<svg width="21" height="21" viewBox="0 0 21 21" fill="none" xmlns="http://www.w3.org/2000/svg">
<path d="M14.629 0.860016H6.44598C5.71242 0.860016 4.98604 1.0045 4.30832 1.28522C3.63059 1.56595 3.01479 1.97741 2.49608 2.49612C1.97737 3.01483 1.56591 3.63062 1.28519 4.30835C1.00446 4.98607 0.859985 5.71245 0.859985 6.44602V14.628C0.859854 15.3617 1.00423 16.0882 1.2849 16.766C1.56556 17.4438 1.97701 18.0597 2.49573 18.5786C3.01445 19.0974 3.63029 19.5089 4.30807 19.7897C4.98586 20.0705 5.71234 20.215 6.44598 20.215H14.629C15.3626 20.215 16.0891 20.0705 16.7669 19.7897C17.4447 19.5089 18.0605 19.0974 18.5792 18.5786C19.098 18.0597 19.5094 17.4438 19.7901 16.766C20.0707 16.0882 20.2151 15.3617 20.215 14.628V6.44602C20.215 5.71245 20.0705 4.98607 19.7898 4.30835C19.5091 3.63062 19.0976 3.01483 18.5789 2.49612C18.0602 1.97741 17.4444 1.56595 16.7666 1.28522C16.0889 1.0045 15.3625 0.860016 14.629 0.860016ZM18.429 14.772C18.429 15.2591 18.333 15.7414 18.1467 16.1914C17.9603 16.6414 17.687 17.0503 17.3426 17.3947C16.9982 17.7391 16.5894 18.0123 16.1394 18.1987C15.6894 18.3851 15.2071 18.481 14.72 18.481H6.34698C5.85991 18.481 5.37761 18.3851 4.92761 18.1987C4.47762 18.0123 4.06873 17.7391 3.72432 17.3947C3.37991 17.0503 3.10671 16.6414 2.92032 16.1914C2.73392 15.7414 2.63799 15.2591 2.63799 14.772V6.39802C2.63785 5.91091 2.7337 5.42854 2.92004 4.97849C3.10639 4.52843 3.37959 4.1195 3.72403 3.77506C4.06847 3.43063 4.4774 3.15743 4.92746 2.97108C5.37752 2.78473 5.85988 2.68888 6.34698 2.68902H14.72C15.2071 2.68888 15.6895 2.78473 16.1395 2.97108C16.5896 3.15743 16.9985 3.43063 17.3429 3.77506C17.6874 4.1195 17.9606 4.52843 18.1469 4.97849C18.3333 5.42854 18.4291 5.91091 18.429 6.39802V14.772Z" fill="#F7E135"/>
<path d="M10.538 5.56401C9.54469 5.56401 8.5737 5.85857 7.74782 6.41044C6.92193 6.96231 6.27825 7.7467 5.89818 8.66441C5.5181 9.58211 5.41871 10.5919 5.61256 11.5661C5.80642 12.5403 6.28482 13.4352 6.98726 14.1375C7.6897 14.8398 8.58463 15.318 9.55887 15.5116C10.5331 15.7053 11.5429 15.6057 12.4605 15.2254C13.3782 14.8452 14.1624 14.2014 14.7141 13.3754C15.2658 12.5494 15.5602 11.5783 15.56 10.585C15.5597 9.25327 15.0305 7.97616 14.0887 7.03457C13.1469 6.09298 11.8697 5.56401 10.538 5.56401ZM10.538 13.841C9.8943 13.8408 9.26512 13.6498 8.72999 13.292C8.19487 12.9343 7.77782 12.4259 7.53158 11.8312C7.28534 11.2364 7.22096 10.5821 7.34659 9.95075C7.47221 9.31943 7.7822 8.73954 8.23736 8.28438C8.69252 7.82922 9.27242 7.51923 9.90373 7.3936C10.535 7.26798 11.1894 7.33235 11.7842 7.57859C12.3789 7.82483 12.8873 8.24188 13.245 8.77701C13.6027 9.31213 13.7938 9.94132 13.794 10.585C13.7941 11.0126 13.71 11.4361 13.5464 11.8312C13.3828 12.2263 13.143 12.5853 12.8406 12.8876C12.5383 13.19 12.1793 13.4298 11.7842 13.5934C11.3891 13.757 10.9656 13.8411 10.538 13.841Z" fill="#F7E135"/>
<path d="M15.728 4.20602C15.4966 4.20602 15.2704 4.27464 15.078 4.4032C14.8856 4.53177 14.7356 4.71449 14.6471 4.92828C14.5585 5.14207 14.5353 5.37732 14.5805 5.60428C14.6256 5.83124 14.737 6.03971 14.9007 6.20334C15.0643 6.36697 15.2728 6.4784 15.4997 6.52354C15.7267 6.56869 15.9619 6.54552 16.1757 6.45696C16.3895 6.36841 16.5722 6.21845 16.7008 6.02604C16.8294 5.83364 16.898 5.60743 16.898 5.37602C16.898 5.06572 16.7747 4.76813 16.5553 4.54871C16.3359 4.32929 16.0383 4.20602 15.728 4.20602Z" fill="#F7E135"/>
<defs>
<linearGradient id="paint0_linear_35_36" x1="0.859985" y1="10.5375" x2="20.215" y2="10.5375" gradientUnits="userSpaceOnUse">
<stop offset="0.121" stop-color="#C2C2C2"/>
<stop offset="0.223" stop-color="#D2D2D2"/>
<stop offset="0.379" stop-color="#E5E5E5"/>
<stop offset="0.539" stop-color="#F1F1F1"/>
<stop offset="0.709" stop-color="#F5F5F5"/>
</linearGradient>
<linearGradient id="paint1_linear_35_36" x1="5.51599" y1="10.586" x2="15.56" y2="10.586" gradientUnits="userSpaceOnUse">
<stop offset="0.121" stop-color="#C2C2C2"/>
<stop offset="0.223" stop-color="#D2D2D2"/>
<stop offset="0.379" stop-color="#E5E5E5"/>
<stop offset="0.539" stop-color="#F1F1F1"/>
<stop offset="0.709" stop-color="#F5F5F5"/>
</linearGradient>
<linearGradient id="paint2_linear_35_36" x1="14.558" y1="5.37602" x2="16.898" y2="5.37602" gradientUnits="userSpaceOnUse">
<stop offset="0.121" stop-color="#C2C2C2"/>
<stop offset="0.223" stop-color="#D2D2D2"/>
<stop offset="0.379" stop-color="#E5E5E5"/>
<stop offset="0.539" stop-color="#F1F1F1"/>
<stop offset="0.709" stop-color="#F5F5F5"/>
</linearGradient>
</defs>
</svg>
