<svg width="21" height="21" fill="none" xmlns="http://www.w3.org/2000/svg"><path d="M14.629.86H6.446A5.586 5.586 0 0 0 .86 6.446v8.182a5.586 5.586 0 0 0 5.586 5.587h8.183a5.586 5.586 0 0 0 5.586-5.587V6.446A5.586 5.586 0 0 0 14.629.86Zm3.8 13.912a3.71 3.71 0 0 1-3.709 3.709H6.347a3.709 3.709 0 0 1-3.709-3.709V6.398a3.708 3.708 0 0 1 3.709-3.709h8.373a3.707 3.707 0 0 1 3.709 3.709v8.374Z" fill="#F7E135"/><path d="M10.538 5.564a5.022 5.022 0 1 0 0 10.044 5.022 5.022 0 0 0 0-10.044Zm0 8.277a3.255 3.255 0 1 1 .002-6.51 3.255 3.255 0 0 1-.002 6.51ZM15.728 4.206a1.17 1.17 0 1 0 0 2.34 1.17 1.17 0 0 0 0-2.34Z" fill="#F7E135"/></svg>