<svg width="130" height="129" fill="none" xmlns="http://www.w3.org/2000/svg"><path d="M64.525 129A64.5 64.5 0 0 1 47.798 2.2a.764.764 0 0 1 .186-.05A64.378 64.378 0 0 1 64.525 0h.205c1.65.005 3.284.072 4.9.2h.015l.137.01.089.008h.057c2.55.212 5.085.574 7.592 1.086a.722.722 0 0 1 .095.026 64.46 64.46 0 0 1 32.344 17.426.78.78 0 0 1 .173.129 64.341 64.341 0 0 1 17.609 32.753c0 .022.009.043.012.066.341 1.695.614 3.406.819 5.132 0 .043.008.082.015.124a.23.23 0 0 0 0 .037c.288 2.49.433 4.994.433 7.5a64.155 64.155 0 0 1-12.3 37.846.764.764 0 0 1-.073.801.762.762 0 0 1-.331.254.764.764 0 0 1-.415.045A64.44 64.44 0 0 1 64.525 129Zm0-1.537a62.905 62.905 0 0 0 50.256-25.072c-3.132-3.345-10.468-6.99-18.183-8.727A3.2 3.2 0 0 1 92.78 95.3l-7.768-2.532c-7.8.693-15.048 3.9-19.582 5.9-.77.34-1.452.64-2.034.884-1.18.493-2.494 1.131-4.015 1.872a72.313 72.313 0 0 1-13.61 5.4h-.005a.798.798 0 0 1-.407.111h-.032a39.546 39.546 0 0 1-9.6 1.219c-6.712 0-14.243-1.835-22.437-7.117a62.935 62.935 0 0 0 51.236 26.426ZM12.037 98.35c12.342 8.747 23.234 9.28 32.088 7.279l-6.5-11.12-13.52 7.901-.409-.7a16.465 16.465 0 0 1 5.7-22.4l.153-.319.312.048a16.48 16.48 0 0 1 6.736-2.058l-2.278-.742a3.18 3.18 0 0 1-2.188-3.019V51.505a3.182 3.182 0 0 1 2.78-3.135l2.317-.293a48.019 48.019 0 0 1 8.613-43.715A62.893 62.893 0 0 0 11.386 98.23a.77.77 0 0 1 .653.114l-.002.006Zm40.1-13.252.408.7-13.522 7.9 6.74 11.531a71.162 71.162 0 0 0 12.948-5.182c1.478-.72 2.874-1.4 4.094-1.907.576-.24 1.247-.537 2.005-.873 3.995-1.767 10.05-4.445 16.813-5.6L48.635 80.915a16.337 16.337 0 0 1 3.497 4.185l.005-.002Zm44.79-4.749V92.2c7.541 1.722 15.16 5.224 18.782 8.929a62.622 62.622 0 0 0 11.782-36.634c0-2.511-.148-5.02-.444-7.514 0-.027-.006-.053-.01-.079l-.006-.053c-.1-.794-.208-1.581-.334-2.366a47.626 47.626 0 0 1-29.772 25.865l.001.001Zm-73.375 9.29a14.741 14.741 0 0 0 1.155 10.555l6.071-3.547c-3.278-6.566-2.9-11.87-2.248-14.754a14.742 14.742 0 0 0-4.983 7.744l.005.001Zm8.623 6.191 5.317-3.107a.14.14 0 0 1 .021-.013l.024-.013 5.31-3.1a21.831 21.831 0 0 0-12.325-8.776c-.619 1.779-2.043 7.53 1.648 15.008l.005.001Zm.141-16.18a23.543 23.543 0 0 1 11.928 9.126l6.074-3.55a14.844 14.844 0 0 0-18-5.577h-.002Zm64.611-.908a46.13 46.13 0 0 0 29.271-26.979c-.044-.216-.091-.431-.137-.646H96.925l.002 27.625Zm-21.6-16.165c0 4.85 3.075 8.521 8.344 8.521 3.017 0 5.206-1.065 6.625-3.313.415-.533.237-1.066-.356-1.478l-1.419-1.005a1.064 1.064 0 0 0-1.539.176A3.422 3.422 0 0 1 84.26 66.6c-2.486 0-3.667-1.833-3.667-4.023 0-2.247 1.122-3.962 3.61-3.962a3.41 3.41 0 0 1 2.543.886c.532.532.948.652 1.537.176l1.42-.945a1.1 1.1 0 0 0 .3-1.6 7.262 7.262 0 0 0-6.27-3.017 8.122 8.122 0 0 0-8.408 8.46l.002.002Zm-15.03 3.787-.828 1.243a1.14 1.14 0 0 0 .237 1.6 10.886 10.886 0 0 0 6.745 1.833c4.083 0 6.627-2.07 6.627-5.029 0-3.373-1.775-4.673-5.62-5.383-2.13-.354-2.78-.533-2.722-1.3 0-.71.711-1.007 2.01-1.007a6.211 6.211 0 0 1 3.2.772 1.077 1.077 0 0 0 1.537-.355l.767-1.066a1.112 1.112 0 0 0-.237-1.658 8.9 8.9 0 0 0-5.56-1.713c-3.846 0-6.746 1.95-6.746 5.205 0 2.9 1.656 4.5 5.681 5.029 2.07.3 2.662.534 2.662 1.36 0 .824-.887 1.065-2.19 1.065a7.627 7.627 0 0 1-4.023-.946 1.4 1.4 0 0 0-.663-.2 1.077 1.077 0 0 0-.882.55h.004Zm-8.877-4.85v8.045a1.074 1.074 0 0 0 1.125 1.184h3.018a1.122 1.122 0 0 0 1.185-1.184V61.69c0-4.971-2.25-7.573-6.39-7.573a6.677 6.677 0 0 0-5.269 2.424 7.417 7.417 0 0 0-.236-1.123 1.147 1.147 0 0 0-1.3-.946h-2.248a1.044 1.044 0 0 0-1.124 1.181v13.9a1.074 1.074 0 0 0 1.124 1.184h3.076a1.073 1.073 0 0 0 1.125-1.184v-6.331c0-3.2 1.361-4.614 3.434-4.614 1.585.006 2.476.953 2.476 2.906h.004Zm51.122-18.4a72.514 72.514 0 0 1 5.924 6.467h17.24a62.447 62.447 0 0 0-2.511-7.948 14.455 14.455 0 0 0-9.231-3.553c-6.158 0-10.764 4.37-11.426 5.033l.004.001Zm-5.616 1v5.464h9.547c-11.15-13.288-24.029-19.814-38.31-19.431-14.946.411-27.062 8.573-30.536 13.083.302 1.57.686 3.124 1.151 4.654l54.6-6.908a3.162 3.162 0 0 1 3.547 3.14l.001-.002Zm4.5-2.057c.8-.786 10.152-9.584 20.65-3.107a63.103 63.103 0 0 0-51.7-37.146h-.016l-.116-.011-.112-.01h-.022a64.248 64.248 0 0 0-5.379-.245h-.2a62.863 62.863 0 0 0-16.023 2.066 46.486 46.486 0 0 0-11.214 37.664c4.534-4.84 16.448-12.259 30.83-12.654.39-.01.78-.015 1.169-.015 11.548.001 22.49 4.601 32.126 13.46l.007-.002Zm-1.045 15.822a.768.768 0 1 1 0-1.537h19.79a.77.77 0 0 1 .769.769.768.768 0 0 1-.769.768h-19.79Zm4.181-3.243a.771.771 0 0 1-.769-.769.77.77 0 0 1 .769-.77h8.287a.769.769 0 1 1 0 1.539h-8.287ZM84.428 21.563a7.72 7.72 0 1 1 2.261 5.459 7.727 7.727 0 0 1-2.264-5.458l.003-.001Zm1.538 0a6.182 6.182 0 1 0 1.808-4.37 6.189 6.189 0 0 0-1.815 4.371l.007-.001Z" fill="#fff"/></svg>