<svg width="576" height="558" fill="none" xmlns="http://www.w3.org/2000/svg"><path d="M287.836 549.145c132.557 0 240.015-107.56 240.015-240.242S420.393 68.661 287.836 68.661 47.821 176.221 47.821 308.903s107.458 240.242 240.015 240.242ZM46.957 203.573l-.719.311-9.962-1.6-.912.3.147 3.111-1.278 3.863-.161 1.725-.468 2 2.216 1.419 1.52 1.336.788.515 1.085 1.1 1.725 1.155.663 1.326v1.327l.24.56-1.166 2.914-.446-.045-.708 1.772-4.455-1.784L4.237 201.39l-4.065-4.08-.173-1.063.47-.344.09-.893.435-1.084-.3-1.246 1.815-1.063 2.181-.321 2.4.3 3.7-.308 2.981.332 2.844-.321 2.525.48 1.541-.045.858.342 13.694 1.7.629.252.548-.045 11.09 1.589 1.827.733.779.707.764.572.23.754.24 1.887-.159.4.159.261.011 1.132.3 1.246-2.136.206-2.558.103Zm-20.9 3.237 1.449-5.122-9.811-1.144 1.418 1.429 5.573 4.288 1.371.549ZM144.094 89.1l-2.016-1.018-4.034-3.59L136.227 82l-1.983-1.632-1.469-.423-1.91.245-1.634 1.1 6.426 8.81 1.919 3.306-.743 2.649-2.676 2.312-.342-.068-.015.306-1.43.961-2.12-.949-20.559-30.67-3.515-6.46.134-.683.441-.668-.223-.887-.171-.255 2.106-2.6 8.732-5.865 2.915-1.068 1.584-.4 2.507.1 1.709.779.138.206.683-.089.359.426 4.1 3.027.633.835 1.319 1.411 1.595 2.932.26 1.161.551 1.483v.222l.135.2-.435 3.11-.42 1.691.037 1.161-.674 2.971-.614.413-.728 1.453 2.186.829 2.051 1.293.99.372.975.9 2.153 1.444.531.682 2.241 1.683 1.553.883.1.6 1.691.422.768.6 2.453-1.647.013-.306.461-.309.651.3 1.784 3.769-.4 2.27-.648.8-2.195 1.476-2.55 1.056-3.563-.57Zm-18.546-19.491 2.583-3 1.026-3.209.045-1.589-1.779-2.435-3.146-2.484-1.964.057-2.264.93-4.7 3.155.173.92.635.835 1.064 2.029 5.364 6.782 2.963-1.991ZM274.789 45.509l-.167-2.584-.024-31.59.422-4.317.015-2.77.419-.809-.026-1.6 1.1-.389L292.762 1l2.774.2.929.477 1.047.045-.215 1.911.082 1.231-.543.809.021 1.17-1.085 1.5-2.385.9-3.192.176-2.835-.2-1.721.152-2.463-.207-.3.622-.019 6.214 10.454-.171 1.854.462.615.051-.956 5.619-1.578 1.074-4.419.811-5.543-.4-.025 5.85-.212 2.159.248 7.632 8.234-.628 3.941.243-.006 3.326-.3.5.024 1.416-.719 1.243-1.16.45-13.519 1.023h-3.876l-1.125-1.151ZM464.581 69.963l-.666.667.138-.2-.683.138-.987 1.487-.015.58-.461.36.1.512-.411.616-.3.017-.138.206.495.035-.375.563-.357-.239-.477.273-.033.5-.785 1.179-.443.224-1.632 2.461-1.5 1.812-1.122 1.692-.528.462.033-.5-.357-.239-.362-.017.258.17-.138.206-.425.087.153.323-.221.667 1.416-.464-.479.275-.375.565.445-.224-.138.649.071.342-.513.1-.1-.514-.407.616.512.563h-.887l-.273.41.1.29-.87.532-1.394 2.1.222.443-.648-.135.068.563-.237.359-.36-.239-1.53 2.308.1.733-.987.6-.614.923-.459 1.246-.63.171.29.563-.375.565-.357-.239-1.023 1.539-.615-.41-.492-.032-.018-.308-.547.153.135-.871-.836.479-.768-.509-.016-.308-.528.24.408-.616-.63.171-.206-.137-.495-.033-.839-.853-.594.12-.449-2.218.651-9.767-.068-.342.388-1.366.119-1.844.133-.2-.12-.6.408-.614-.205-.137.762-5.261-.036-.835 1.014-5.535-.785.737-1.293 1.946-.237.8-.767.153.222.665-.782 1.182-1.125.581-.2.974-.24.357-.2.752-.7.053-1.157 1.743-.528.462-1.4 2.1.018.308-.836.48-.511.767-1.448 1.625.016.53-.253.051-.273.411.053.255-.41.616-.6.12.206.137-.138.2-.307.018-.92.719-1.638-.2-.974.24.273-.411-.068-.339-.63.171-2.082-.423-.1-.512-.5-.033.033-.5-.39.255-.615-.408.237-.357.477-.275-.357-.239.474-1.605L439.393 52.4l4.869-6 .767-.377 1.518-.173.563.375.464.084.459.529.479-.051.084.426.6-.12.75.2.767-.155.4 1.964-.424 1.194-.147 3.449-.357 1.095.357.239-.456 2.135.1.956-.51 1.878.464.306-.393.035-.375.565.169.631.464.086-.885 1.332.255.393.154.767-.237.359.153.769-.51.1-.22.887.309.206-.546.82-.56 2.953.053.257.408-.616.206.137-.135.206-.446.444.138.459-.135.206.545.068-.135.206-.36-.017-.544.82-.132 1.315-.6.342-.406.614.018.308.542-.82.206.135.155.993.615-.48-1.022 1.539.087.647-.24.359.12.6.411.272-.408.616.068.341-.477.051.172.632.425-.086 1.67-2.512.818-.788 2.553-3.844.339-.069-.135-.462 1.02-.871 2.247-3.384 3.8-4.941.747-1.128 2.505-2.548.237-.357 2.013-.362 1.232 1.484.887.219-.272.411.357.239.477-.275.362.239-.411.616.6-.344.307.65-.015.8-.138.206-.068.547-.885 1.333.206.137-.237.357.067.341-.307.018-.885 1.333.07.341-.344.069-.895 1.34-.2-.137-.273.411.307.426-.885.446.326.51.477-.5-.14.207Zm-19.224 11.164-.067.545.372-.563-.305.018Zm.033-.5.2.135.171-.7-.371.565Zm.413 13.5.545.068-.255-.171-.29.103Zm.528-.462.256.17 1.668-2.511-.255-.171-.885 1.333-.633.171.089.649-.24.359Zm.576-2.425.375-.565-.258-.17-.117.735Zm1.331-.446.409.273 2.043-3.077-.562.514-.357-.018-1.533 2.308Zm.457-3.024.084.65.426-1.417-.51.767Zm2.742-.908 1.242-2.2-1.26 1.9.018.3Zm1.869-4.817.375-.565-.443.222.068.343Zm.648-.976.289-.1.086-.461-.375.561Zm.24.751.563.375 1.515-1.727-.067-.341-.581.428-.612.923-.411-.273-.407.615Zm.51-1.878.424-.308-.052-.255-.372.563Zm2.826-1.371.563-.51-.392.255-.171.255Zm1.536.135-.237.359-.206-.135.138-.206.305-.018Zm1.338-5.688.87-.53-.357-.24-.513.77Zm1.674-.071.289-.326.018.309-.307.017Zm2.874-6 .339-.068.138-.2-.344.068-.133.2ZM534.969 219.261l.307-.721 8.324-5.706.458-.845-2.247-2.152-1.731-3.683-1.073-1.362-1.038-1.773-2.58.5-2.022.081-.926.17-1.541-.047-2.046.353-1.394-.5-.912-.962-.56-.24-1.163-2.917.354-.273-.707-1.773 4.457-1.778 38.507-4.231 5.757.156.855.652-.105.572.548.71.434 1.086 1.073.7-.587 2.024-1.359 1.736-1.943 1.438-2.472 2.775-2.388 1.815-1.844 2.192-2.159 1.393-1.089 1.085-.855.344-11.1 8.2-.627.251-.366.413-9.133 6.493-1.829.73-1.052.023-.947.113-.686-.39-1.475-1.2-.158-.4-.3-.08-.789-.814-1.073-.7 1.407-1.622 1.795-1.836Zm12.928-16.755 2.472 4.712 7.9-5.934-2.01-.06-6.99.734-1.372.548Z" fill="#FFD400"/><path d="M284.545 557.134c135.157 0 244.724-109.67 244.724-244.956 0-135.285-109.567-244.956-244.724-244.956-135.157 0-244.724 109.671-244.724 244.956 0 135.286 109.567 244.956 244.724 244.956Z" stroke="#FFD300" stroke-width="1.481" stroke-miterlimit="10"/><path d="M39.822 312.177c0-135.285 109.565-244.956 244.724-244.956s244.723 109.67 244.723 244.956-109.567 244.956-244.723 244.956S39.822 447.463 39.822 312.177Zm-4.758-87.3L4.238 201.393l-4.066-4.08-.173-1.064.47-.344.09-.893.435-1.084-.3-1.246 1.815-1.064 2.182-.321 2.4.3 3.7-.308 2.98.331 2.846-.321 2.524.481 1.54-.045.858.342 13.7 1.7.628.253.548-.045 11.09 1.589 1.826.733.779.707.763.572.23.754.239 1.887-.157.4.157.262.011 1.132.3 1.246-2.137.206-2.559.1-.72.312-9.962-1.6-.911.3.147 3.111-1.279 3.863-.159 1.725-.469 2 2.215 1.419 1.52 1.336.788.515 1.084 1.1 1.725 1.155.664 1.327v1.327l.238.561-1.165 2.914-.445-.045-.709 1.772-4.455-1.788Zm-15.955-22.9 5.573 4.288 1.372.548 1.45-5.121-9.812-1.145 1.417 1.43Zm516.46 23.94-1.475-1.2-.157-.4-.3-.08-.789-.813-1.073-.7 1.407-1.622 1.785-1.838.307-.721 8.323-5.705.458-.846-2.246-2.151-1.733-3.684-1.072-1.362-1.038-1.773-2.581.5-2.021.078-.927.17-1.54-.047-2.047.353-1.394-.5-.911-.962-.56-.24-1.163-2.918.354-.273-.707-1.774 4.457-1.777 38.508-4.231 5.757.156.855.652-.106.572.548.71.434 1.085 1.073.7-.587 2.024-1.359 1.736-1.942 1.438-2.473 2.775-2.388 1.815-1.843 2.192-2.158 1.393-1.088 1.094-.855.344-11.1 8.2-.628.251-.365.413-9.133 6.492-1.827.729-1.053.023-.946.113-.681-.391Zm13.7-23.957-1.371.548 2.473 4.711 7.9-5.934-2.01-.06-6.992.735ZM130.256 98.62l-20.558-30.67-3.515-6.459.133-.683.44-.67-.223-.886-.171-.255 2.107-2.6 8.731-5.865 2.915-1.068 1.584-.4 2.506.1 1.709.78.139.205.681-.089.36.427 4.1 3.027.634.835 1.318 1.411 1.595 2.932.259 1.161.552 1.483v.222l.135.2-.434 3.109-.42 1.691.038 1.161-.675 2.97-.613.414-.727 1.454 2.185.829 2.051 1.292.99.373.976.9 2.153 1.444.531.68 2.241 1.685 1.553.883.1.6 1.69.421.769.6 2.453-1.647.013-.307.461-.309.651.3 1.782 3.77-.4 2.27-.648.804-2.194 1.476-2.556 1.048-3.568-.571-2.015-1.018-4.035-3.59-1.816-2.487-1.983-1.632-1.47-.424-1.909.245-1.634 1.1 6.423 8.807 1.918 3.306-.742 2.649-2.671 2.314-.341-.068-.014.306-1.431.96-2.113-.946Zm-7.936-41.668-2.264.93-4.7 3.155.173.921.635.834 1.064 2.029 5.358 6.78 2.964-1.99 2.582-3 1.031-3.213.045-1.589-1.779-2.435-3.146-2.484-1.963.062Zm320.981 41.287-.491-.031-.019-.308-.546.153.135-.87-.835.48-.769-.51-.017-.308-.528.24.409-.615-.63.171-.206-.137-.494-.032-.84-.853-.594.121-.448-2.219.651-9.767-.068-.343.389-1.366.119-1.843.134-.2-.12-.6.408-.614-.205-.137.761-5.261-.035-.835 1.013-5.534-.784.737-1.294 1.946-.238.8-.766.154.221.665-.781 1.182-1.125.58-.2.976-.241.357-.2.752-.7.052-1.156 1.743-.528.463-1.4 2.1.019.308-.835.48-.513.768-1.446 1.625.015.53-.253.051-.273.41.051.257-.409.616-.6.121.206.136-.138.2-.308.018-.92.72-1.639-.201-.974.24.274-.411-.067-.34-.631.172-2.082-.423-.1-.512-.495-.033.033-.5-.391.255-.616-.408.238-.357.477-.274-.356-.239.473-1.606L439.39 52.4l4.87-6 .766-.377 1.518-.173.563.375.464.084.459.528.479-.051.084.427.6-.12.751.2.766-.155.4 1.964-.425 1.194-.147 3.45-.357 1.093.357.239-.455 2.136.1.957-.509 1.878.463.306-.393.034-.375.565.171.63.463.085-.885 1.332.256.393.153.768-.236.359.152.769-.51.1-.221.887.31.206-.545.819-.561 2.954.052.256.41-.615.205.137-.136.206-.445.445.138.459-.135.206.544.067-.135.205-.36-.016-.544.82-.131 1.315-.6.343-.407.614.018.308.542-.82.206.135.155.993.615-.481-1.022 1.54.087.646-.239.359.119.6.412.272-.408.615.068.34-.477.051.172.633.425-.086 1.669-2.512.819-.789 2.551-3.844.339-.068-.134-.463 1.019-.87 2.247-3.385 3.8-4.942.747-1.128 2.5-2.548.237-.357 2.013-.362 1.231 1.483.887.22-.272.41.357.239.477-.274.361.24-.41.614.6-.344.307.65-.014.801-.138.206-.068.546-.887 1.334.207.137-.239.357.068.34-.306.018-.887 1.334.072.341-.345.07-.884 1.333-.205-.137-.273.411.307.427-.885.445.327.511.476-.5-.137.205-.666.667.138-.2-.682.138-.987 1.487-.014.58-.46.36.1.512-.41.615-.3.017-.14.205.5.035-.375.563-.356-.24-.477.274-.034.5-.784 1.179-.442.223-1.633 2.462-1.5 1.813-1.122 1.692-.527.463.033-.5-.358-.239-.361-.016.258.169-.139.206-.424.086.152.323-.219.667 1.416-.464-.479.275-.374.564.445-.224-.138.649.069.342-.512.1-.1-.514-.407.615.511.563h-.885l-.273.41.1.29-.869.53-1.4 2.101.223.443-.649-.135.068.563-.236.358-.36-.239-1.532 2.308.1.733-.986.6-.613.923-.459 1.247-.631.17.29.564-.375.565-.357-.239-1.023 1.54-.613-.392Zm2.5-4.1.545.067-.255-.171-.29.104Zm1.313-1.642-.633.172.089.648-.24.359.256.17 1.668-2.511-.254-.17-.886 1.332Zm-.208-1.246.374-.565-.258-.169-.116.734Zm1.329-.447.41.274L450.69 88l-.562.514-.357-.018-1.536 2.307Zm.459-3.024.084.65.427-1.417-.511.767Zm2.723-1.215.018.307 1.242-2.2-1.26 1.893Zm2.775-4.736.563.375 1.517-1.726-.068-.341-.581.428-.612.923-.41-.273-.409.614Zm-.956-.117.067.343.375-.565-.442.222Zm-7.88-.584-.068.545.374-.563-.306.018Zm8.6-.05.288-.1.085-.46-.373.56Zm-8.565-.446.2.135.172-.7-.372.565Zm9.315-.682.425-.308-.054-.255-.371.563Zm3-1.626-.172.256.563-.51-.391.254Zm2.7-5.3.869-.53-.356-.24-.513.77Zm4.681-6.274-.133.2.338-.067.138-.2-.343.067Zm-6.463 12.185.138-.206.306-.018-.239.36-.205-.136Zm3.745-6.308.017.31-.307.016.29-.326Zm-187.58-27.12-.167-2.585-.022-31.59.42-4.317.015-2.77.418-.809-.026-1.6 1.1-.389 16.233-.45 2.774.2.929.478 1.048.045-.214 1.911.082 1.232-.544.81.022 1.168-1.085 1.5-2.384.9-3.193.176-2.834-.2-1.721.152-2.463-.207-.3.621-.021 6.22 10.455-.172 1.854.462.614.052-.956 5.62-1.578 1.073-4.419.811-5.543-.4-.024 5.85-.212 2.159.248 7.632 8.233-.627 3.941.243-.006 3.326-.3.5.023 1.416-.717 1.244-1.161.45-13.519 1.022h-3.876l-1.124-1.158Z" fill="url(#a)"/><path d="M188.586 237.752c-4.374 0-8.949-2.884-11.534-9.252-1.093-2.189-2.486-4.278-4.176-3.083-1.292 1.094-1.391 2.884-.8 4.775 3.281 9.351 10.541 14.126 18.4 14.126 14.816 0 32.515-14.126 35.4-32.333.2-1.889.3-4.078.3-5.77 0-27.458-23.963-55.215-50.014-55.215a35.892 35.892 0 0 0-9.652 1.297h.1c-22.272 3.681-42.955 24.873-51.8 49.247-3.679 10.247-5.668 19.7-5.668 26.96a50.98 50.98 0 0 0 2.188 12.834c6.96 20 29.431 24.573 51.009 28.154l2.585.4c5.668 1 13.125 2.388 18.695 3.681 5.966 1.692 11.236 4.477 13.224 8.557.475 1.376.712 2.823.7 4.278 0 10.446-16.606 19.6-26.549 23.677a70.79 70.79 0 0 1-21.976 3.78c-16.008 0-30.327-6.666-34.4-21.887a16.676 16.676 0 0 1-1.008-4.881 7.995 7.995 0 0 1 1.292-4.179l.7-1.393c.3-1.392 0-2.189-.9-2.189-5.966 0-9.147 12.337-9.645 17.41-1.491 21.688 23.666 37.806 48.226 37.806a55.215 55.215 0 0 0 20.78-3.979c16.706-7.363 30.824-23.081 30.824-40.69a33.99 33.99 0 0 0-1.492-9.949c-3.082-9.451-10.44-15.918-18.395-19.7a98.96 98.96 0 0 0-11.733-4.875l-2.188-.8c-12.528-4.477-27.046-10.148-32.614-24.076-2.486-5.671-3.579-12.138-3.579-19.9 0-1.692.1-3.382.2-5.075.6-22.383 10.241-45.266 32.316-45.067 20.086.1 38.581 26.563 39.674 49.246h-.1c.007 16.326-9.439 28.065-18.39 28.065ZM463.824 285.305l-.1.2c-3.283 6.765-9.448 12.933-16.11 14.625a15.57 15.57 0 0 1-2.784.4 10.498 10.498 0 0 1-6.562-2.686l2.784-5.671 2.784-5.869.8-1.591-.1.1 1.095-2.09c4.573-10.146 9.445-22.682 9.445-31.238 0-5.671-2.188-9.65-7.854-10.049-12.63-.894-20.881 19.9-20.881 37.806 0 7.959 1.59 15.419 5.27 20.095l-1.89 3.782c-3.879 7.959-9.445 18.9-16.406 20.395-2.585.6-4.672-1.393-4.275-7.163.3-8.259 3.381-21.39 5.668-31.537a126.61 126.61 0 0 0 2.685-13.034c.5-6.267-.994-11.441-7.558-11.441-4.474 0-6.164.9-6.363 3.484 0 0 .1.8.2 1.491.247 1.076.348 2.181.3 3.284-.6 8.058-2.585 13.53-5.27 21.587l.1-.1c-5.668 9.552-20.482 34.621-25.754 34.621-1.192 0-1.391-2.487-1.292-5.371.894-7.959 5.27-22.882 7.657-30.444 1.393-4.078 3.48-10.148 3.977-15.918.4-5.172-.9-10.247-4.674-12.833a16.432 16.432 0 0 0-6.86-1.692c-1.99 0-3.48.6-3.679 2.288-.038.538.03 1.079.2 1.591v-.1c.385 1.459.52 2.973.4 4.477-.373 4.116-2.16 10.8-4.271 18.441l-1.895 3.446c-5.07 9.85-10.541 20-20.782 22.086a87.43 87.43 0 0 0 9.545-31.239v.1c.204-1.883.305-3.776.3-5.671 0-14.625-5.368-26.066-18.295-26.066-15.81 0-20.283 15.221-21.676 29.25a14.87 14.87 0 0 0-6.264-1.492 12.742 12.742 0 0 0-10.044 4.576 52.159 52.159 0 0 0-2.558 12.4c-5.839 11-18.066 32.962-22.9 32.962-2.186 0-2.385-4.974-2.287-7.661.6-5.87 3.48-14.625 6.563-23.28 3.082-9.053 6.363-18.8 7.059-26.066.7-7.063-1.491-12.436-8.75-12.436-10.541 0-18.793 12.635-25.852 23.778-1.789 2.588-3.182 5.174-4.873 7.461l3.48-15.521c3.281-14.226 7.359-31.934 7.755-35.914.5-6.666-1.391-13.829-11.435-13.829-1.888 0-3.579.5-3.678 2.289.028.601.095 1.198.2 1.79.32 1.638.454 3.306.4 4.974-.4 4.676-3.679 18.5-7.258 33.725-4.475 18.9-9.446 39.895-10.243 49.147-.1 1.393-.2 2.787-.2 4.08 0 8.158 2.487 16.615 12.032 16.615 1.393 0 2.287-.3 2.287-1.393a4.914 4.914 0 0 0-.3-1.492 33.701 33.701 0 0 1-.8-9.85 74.169 74.169 0 0 1 4.474-19.2h-.1l1.59-2.785v.1c5.469-9.252 20.384-35.019 27.543-35.019.7 0 .994.5.9 1.79-.3 2.686-2.586 8.557-5.271 15.72-3.877 10.346-8.949 24.274-10.241 34.522a29.7 29.7 0 0 0-.1 2.983c0 7.86 2.983 13.531 12.131 13.531 9.5 0 19.606-16.1 27.363-30.634.3 13.972 5.149 30.732 19.77 30.732 10.64 0 19.788-7.163 26.549-17.41 9.225-.535 16.419-7.454 21.668-15.2a106.977 106.977 0 0 0-2.875 16.3c-.1 1.393-.2 2.785-.2 4.078 0 7.461 2.287 12.536 9.148 12.536 10.839 0 18.4-11.741 25.456-22.485l1.192-1.889c.1 1.591 0 1.591 0 3.283-.1 10.148-.1 21.887 12.729 21.887 13.524 0 20.283-13.63 25.852-24.773a69.783 69.783 0 0 1 3.679-7.162 18.038 18.038 0 0 0 11.135 2.187c9.546-1.591 17.7-9.749 21.577-18.9-1.596-1.597-2.596-1.895-4.182-.801Zm-143.981 36.909c-6.959 0-9.247-9.153-9.247-19 0-1.99.1-4.08.3-6.168.2-2.189.4-4.576.8-6.666 1.393 12.138 6.86 21.49 20.086 25.469-3.685 4.176-7.463 6.365-11.939 6.365Zm16.01-11.938c-11.038-2.089-13.125-16.414-13.125-27.657 0-3.184.2-6.168.4-8.555.994-10.645 3.778-20.2 9.943-20.2 8.85 0 12.727 9.253 12.727 20.694a45.828 45.828 0 0 1-.2 5.174c-.895 10.447-4.574 22.188-9.745 30.544Zm99.235-17.807-.6 1.194a24.372 24.372 0 0 1-1-7.761c0-14.921 5.768-41.486 13.723-39.4 2.287.5 3.182 2.487 3.182 5.671 0 8.058-6.96 24.074-11.833 33.924-1.087 2.092-2.379 4.282-3.472 6.372ZM146.591 371.578c-3.301-3.073-4.952-4.813-4.953-5.222-.036-.355-1.518-1.421-4.446-3.2a1.864 1.864 0 0 0-.747.24 3.24 3.24 0 0 1-1.73-1.252l-.507.267c-1.703-1.155-2.857-1.732-3.461-1.732-1.65.16-2.892.24-3.726.24a5.009 5.009 0 0 0-1.731-1.252 3.97 3.97 0 0 0-1.97.507l-1.225-.24a31.843 31.843 0 0 0-5.7 1.464c-5.395.569-8.12 1.484-8.174 2.745-1.33.604-1.997 1.101-2 1.492-.002.347.09.687.267.985l-.507 6.926c.165.303.247.643.24.987-.213 3.959-.542 5.939-.985 5.939.03.266.121.522.267.747a35.754 35.754 0 0 1-.507 4.475c.157.817.237 1.646.24 2.478v2.478l.267 1.464c-.201.386-.293.82-.267 1.254v2.476c0 1.723-.08 3.534-.24 5.434.657 5.171 1.154 11.947 1.491 20.329l-.267.985a11.76 11.76 0 0 0 2 6.686c.344.007.684-.075.986-.24.689.601 1.562.95 2.475.987.356.959.773 1.456 1.252 1.491.48-.336.72-.675.72-1.012h.745c0 .497.169.746.507.747h.24l.5-.24a.21.21 0 0 0 .24.24h.505a2.362 2.362 0 0 1 1.731-.987h.985v.507h.507a121.846 121.846 0 0 0 11.875-8.924c5.361-5.1 8.414-8.653 9.159-10.658 3-4.667 4.731-8.547 5.193-11.642a33.458 33.458 0 0 0 1.73-7.672v-.978c0-1.405-.159-4.628-.478-9.671l.718-2.478c-.476-2.167-.882-4.557-1.219-7.17Zm-5.458 18.061c-1.048 7.071-4.261 13.846-9.639 20.327-4.829 5.275-7.962 7.913-9.4 7.913a44.123 44.123 0 0 0-.507-7.913c.16 0 .24-.088.24-.265a46.445 46.445 0 0 1-.48-7.913v-3.969a3.038 3.038 0 0 1 .48-1.492c-.249 0-.498-2.229-.745-6.688l.265-.984c-.213 0-.38-.498-.5-1.494l.5-3.942a.247.247 0 0 1-.108-.009.24.24 0 0 1-.148-.15.22.22 0 0 1-.009-.108l.265-1.466v-1.758l.24-.48h-.24c.029-.662.109-1.321.24-1.971-.16-2.077-.24-3.321-.24-3.73 0-.141.08-.798.24-1.971l-.24-.507.24-1.491v-1.226a40.213 40.213 0 0 0 5.938-.747c6.6.267 9.902 1.341 9.906 3.223 3.141 5.47 4.712 9.182 4.713 11.136a71.533 71.533 0 0 1-1.011 7.675ZM187.861 425.074l-.478.239c-.497 0-.995-.497-1.492-1.491l-.985.505-1.251-.24a.21.21 0 0 1-.24.24 29.835 29.835 0 0 0-5.7-1.492c-.994 0-1.491-.657-1.491-1.971v-1.491c-.657-6.533-.986-10.245-.985-11.136a77.98 77.98 0 0 1-2.21-15.612l.24-1.731a2.607 2.607 0 0 1-.24-1.254c0-.248.328-.5.985-.744l.48.265c6.443-.551 9.665-1.048 9.666-1.492l-.24-.507v-.479c.55-.1 1.058-.359 1.463-.745a1.288 1.288 0 0 1 0-1.492c0-1.153-.488-1.731-1.463-1.732v.24l-1.252-.24-1.225.24a11.432 11.432 0 0 0-2.983-.479h-4.71l-.478.239c-.994-.301-1.491-.798-1.491-1.491.373-2.54.542-5.106.505-7.673l.24-1.491c-.16 0-.24-.249-.24-.747v-1.731c4.722.333 7.278.502 7.669.505h.24c0-1.029.994-2.512 2.981-4.449 0-.835-.248-1.332-.745-1.492h-2.476l-1.252-.267c0 .179-.24.267-.72.267h-.505a3.948 3.948 0 0 1-1.97-.507v.24l-1.252-.24h-.985l-1.491.24a11.756 11.756 0 0 0-2.956-.479l-1.25.239a.2.2 0 0 1-.097-.009.206.206 0 0 1-.143-.23 3.481 3.481 0 0 1-2.743-1.252l-1.465 1.012c-.284 0-.453-.169-.5-.505-.125 0-.623.08-1.492.24l-1.225-.24c0 .333-.497.502-1.491.505-1.775.924-2.681 1.75-2.716 2.478l.24 1.731c-.23.722-.399 1.463-.505 2.213.029.266.12.521.265.745l-.745 2.983c0 .089.08 1.164.24 3.225a2.708 2.708 0 0 1-.48 1.224.21.21 0 0 1 .24.24v.747l-.24.505h.24a42.186 42.186 0 0 0-.505 6.448v3.7l.265.505c-.177 0-.346.249-.505.747a2.79 2.79 0 0 0 .505 1.464c-.03.266-.12.522-.265.747.388 1.546.638 3.124.745 4.715a1.85 1.85 0 0 0-.24.745c.408 0 .816 1.98 1.225 5.941a1.849 1.849 0 0 0-.24.747c.545 2.776.874 5.59.985 8.417l-.478.24c.16 1.456.24 2.282.24 2.478a3.012 3.012 0 0 1-.507 1.732c.242.543.334 1.141.267 1.732a21.446 21.446 0 0 1 1.73 4.714h1.225a3.553 3.553 0 0 1 2 1.732l.478-.24c2.2 2.647 4.267 3.971 6.2 3.97 0-.179.08-.267.24-.267l.985.745h.5l1.492-.239c.221.128.466.21.72.239a6.187 6.187 0 0 0 2-.479c.263.026.517.108.745.24l7.429-.507c1.694.56 3.43.978 5.193 1.252h.24l1.49-1.732c.005-.352-.078-.7-.24-1.012.164-.302.247-.641.24-.985v-.985c-.071-.334-.489-.661-1.255-.98ZM270.803 363.879l.24-.479a2.09 2.09 0 0 0-1.492-.745c-1.082.124-1.987 1.029-2.715 2.716 0 .267-1.323 4.645-3.968 13.134a175.133 175.133 0 0 1-5.7 16.837c-2.023 7-3.425 11.05-4.206 12.149h-.24v-.747a212.21 212.21 0 0 1-7.668-21.046l-1.73-5.968.238-.48v-.24a2.004 2.004 0 0 1-.985-1.731 16.18 16.18 0 0 1-2.476-6.208c0-3.126-1.9-5.355-5.7-6.686v-.24l.478-.745h-.24l-.745.479h-.478c-.339 0-.507-.24-.507-.719h-.24l-.505.24.238.479v.507c-.975 0-1.463-.409-1.463-1.226l-1.252.24-1.225-.24c-.249.657-.498.986-.745.985-.409 0-.658-.328-.746-.985h-.24a8.723 8.723 0 0 1-2.475 1.226c0-.16-.089-.24-.268-.24h-.978c-.333.072-.662.481-.985 1.226a10.65 10.65 0 0 1 1.492 4.475c-.177 0-.267.08-.267.24.193.73.283 1.483.267 2.238a55.854 55.854 0 0 1 1.731 6.421l-.24 1.252c.16 1.119.399 1.696.718 1.731.391 3.943.808 6.421 1.252 7.433 1.474 7.267 2.548 10.9 3.221 10.9a120.044 120.044 0 0 0 3.7 12.122c.835 4.067 1.412 6.544 1.731 7.433a1.85 1.85 0 0 1-.24.744l.24.987a9.42 9.42 0 0 1 2 2.983 3.053 3.053 0 0 1 2.955 1.972l.507-.24h.48c.495.124.913.701 1.252 1.731 1.491.249 2.237.827 2.236 1.732h.478c.337 0 .507-.16.507-.48.441.057.862.222 1.225.48 0-.267.168-.425.507-.48h.505l.718.48h.507l1.97-1.226h.747l.505.24c0-.213.577-.462 1.731-.747l.507.24a18.464 18.464 0 0 0 2.208-3.7l-.478-2.983.746-3.943c3.78-13 6.088-19.935 6.923-20.806a56.84 56.84 0 0 1 3.221-11.642c0-2.487.488-3.731 1.463-3.73v-.987h-.478a7.446 7.446 0 0 1 .24-1.731c1.491-4.849 2.237-7.655 2.236-8.419 0-.5-.169-.745-.507-.745.274-1.091.603-2.167.985-3.225v-.745l-.718-.985-.005-.513ZM311.222 425.074l-.478.239c-.499 0-.996-.497-1.491-1.491l-.985.505-1.252-.24a.21.21 0 0 1-.24.24 29.835 29.835 0 0 0-5.7-1.492c-.993 0-1.489-.657-1.49-1.971v-1.491c-.657-6.533-.986-10.245-.985-11.136a77.98 77.98 0 0 1-2.21-15.612l.238-1.731a2.63 2.63 0 0 1-.238-1.254c0-.248.328-.5.985-.744l.48.265c6.443-.551 9.664-1.048 9.664-1.492l-.24-.507v-.479c.551-.1 1.06-.359 1.465-.745a1.278 1.278 0 0 1 0-1.492c0-1.153-.488-1.731-1.465-1.732v.24l-1.252-.24-1.225.24a11.41 11.41 0 0 0-2.981-.479h-4.712l-.48.239c-.994-.301-1.491-.798-1.49-1.491.37-2.54.538-5.106.5-7.673l.24-1.491c-.16 0-.24-.249-.24-.747v-1.731c4.722.333 7.278.502 7.669.505h.238c0-1.029.994-2.512 2.983-4.449 0-.835-.248-1.332-.745-1.492h-2.475l-1.252-.267c0 .179-.24.267-.718.267h-.507a3.948 3.948 0 0 1-1.97-.507v.24l-1.252-.24h-.986l-1.49.24a11.756 11.756 0 0 0-2.956-.479l-1.251.239a.2.2 0 0 1-.097-.009.206.206 0 0 1-.083-.051.212.212 0 0 1-.06-.179 3.477 3.477 0 0 1-2.741-1.252l-1.465 1.012c-.284 0-.453-.169-.5-.505-.125 0-.623.08-1.493.24l-1.223-.24c0 .333-.497.502-1.492.505-1.775.924-2.681 1.75-2.716 2.478l.24 1.731c-.23.722-.398 1.463-.505 2.213.029.266.12.521.265.745l-.745 2.983c0 .089.08 1.164.24 3.225a2.708 2.708 0 0 1-.48 1.224.21.21 0 0 1 .24.24v.747l-.24.505h.24a42.186 42.186 0 0 0-.505 6.448v3.7l.265.505c-.177 0-.346.249-.505.747a2.79 2.79 0 0 0 .505 1.464c-.03.266-.12.522-.265.747.388 1.546.638 3.124.745 4.715a1.85 1.85 0 0 0-.24.745c.408 0 .816 1.98 1.225 5.941a1.864 1.864 0 0 0-.24.747c.545 2.776.874 5.59.985 8.417l-.478.24c.16 1.456.24 2.282.24 2.478a3.012 3.012 0 0 1-.507 1.732c.242.543.334 1.141.267 1.732a21.446 21.446 0 0 1 1.73 4.714h1.225a3.553 3.553 0 0 1 2 1.732l.478-.24c2.2 2.647 4.267 3.971 6.2 3.97 0-.179.08-.267.24-.267l.985.745h.505l1.491-.239c.221.128.466.21.72.239a6.187 6.187 0 0 0 2-.479c.263.026.517.108.745.24l7.429-.507c1.694.56 3.43.978 5.193 1.252h.238l1.491-1.732c.005-.352-.078-.7-.24-1.012.164-.302.247-.641.24-.985v-.985c-.072-.332-.491-.657-1.253-.98ZM358.324 422.356a12.96 12.96 0 0 1-2-3.97 99.546 99.546 0 0 0-8.414-9.164c-1.722-3.143-2.707-4.715-2.955-4.715h-.267v.507h-.24c-2.591-4.333-4.987-6.891-7.189-7.673.478-.835.975-1.252 1.492-1.252 3.6-2.467 5.828-4.367 6.683-5.7 2.981-3.09 4.473-6.394 4.474-9.911v-1.466c0-1.971-1.074-4.945-3.223-8.924a6.274 6.274 0 0 0-2.981-4.715c-2.147-.32-3.221-.977-3.221-1.971h-.747a16.54 16.54 0 0 1-1.97-.505h-1.97a45.977 45.977 0 0 1-5.459-.48 6.396 6.396 0 0 0-2.716.985l-.983-.24a1.716 1.716 0 0 0-.987.479h-.741l-.505-.239a.196.196 0 0 1-.009.096.201.201 0 0 1-.133.134.209.209 0 0 1-.096.009h-.747c-.337 0-.506-.248-.507-.744h-.745l-1.225-.24a18.552 18.552 0 0 0-3.223 6.18c.337 2.467.586 5.441.747 8.924a.21.21 0 0 0-.24.24l.24 1.012c.028.423-.055.845-.24 1.226.144.738.225 1.487.24 2.239v2.716l-.24 1.252c.32 0 .48 2.886.48 8.659v3.463l.24 1.252a.21.21 0 0 0-.24.24l.24 1.224-.24.507a.21.21 0 0 1 .24.24v4.715l.267.48h-.267c.042 3.732.291 7.458.745 11.162-.141.9-.222 1.808-.24 2.718l.24 1.252a.21.21 0 0 0-.24.24c0 .764.577 2.336 1.731 4.715.5-.267.745-.515.745-.747 1.899.959 3.053 2.114 3.461 3.465.177 0 .267-.08.267-.24a6.88 6.88 0 0 1 3.463.985l.478-.267c0 .177.248.346.745.507.549 0 .968-.41 1.252-1.226l1.225.24.985-.507c.425-1.439.842-2.265 1.252-2.478.064-.829.413-1.61.987-2.211a18.607 18.607 0 0 1-.507-3.49l.267-1.225c-.339-2.895-.508-4.629-.507-5.2a1.85 1.85 0 0 1 .24-.745l-.24-1.492v-1.731c0-.835.249-1.252.747-1.252v-.24c-.659 0-.988-1.323-.987-3.968v-2.718c.411.225.761.546 1.021.935.259.39.42.837.469 1.303 2.309 2.2 3.463 3.433 3.463 3.7-.03.266-.121.522-.267.747v.24c.177 0 .267-.08.267-.24h.24c2.13 3.109 3.452 4.76 3.966 4.955.285 1.119 2.265 3.516 5.939 7.193 1.241 0 3.388 1.483 6.443 4.449 0 .408.737.905 2.21 1.492h2.236v-.747a46.204 46.204 0 0 1-2.981-3.463l.262-.981Zm-23.514-29.492c0-.267-.169-.427-.507-.48l-.983-4.715v-.239a1.989 1.989 0 0 1 .24-.987 29.473 29.473 0 0 0-1.971-8.924c-.248-5.115-.665-7.673-1.252-7.673a2.12 2.12 0 0 1 .24-1.012l-1.463-1.971v-.24c.265-.029.52-.121.743-.267 1.1.554 2.263.974 3.463 1.252.088 0 .993-.168 2.716-.505a7.311 7.311 0 0 1 3.22 2.743c1.775 0 3.506 3.133 5.193 9.4a1.864 1.864 0 0 1-.24.747l.24.479-.48 1.731c.025.263.107.518.24.747l-.983 2.478c-3.144 3.963-5.949 6.441-8.416 7.436ZM422.734 427.044c.029-.662.108-1.321.238-1.971 0-.924-1.65-4.805-4.951-11.643-.497-2.645-.995-3.968-1.492-3.968a152.85 152.85 0 0 0-9.906-18.328l-4.951-11.4c-2.663-8.081-4.891-12.122-6.684-12.122a16.224 16.224 0 0 0-3.94-4.449l-1.252.24c-.8-.835-1.297-1.252-1.492-1.252l-.48.267-3.22-.507a1.953 1.953 0 0 0-.507 1.252l-.986-.505-1.223.24a10.19 10.19 0 0 1-2-.48l-1.225.985a3.03 3.03 0 0 0 .48 1.491 89.553 89.553 0 0 0-2.956 8.659l.24.507c.007.344-.076.683-.24.985-.212 3.623-1.037 5.435-2.476 5.434v.267a.415.415 0 0 0 .12.36.415.415 0 0 0 .36.12 10.838 10.838 0 0 1-1.73 4.715 8.879 8.879 0 0 1-1.226 3.7v.507l.24.507c-1.579 6.767-2.565 10.15-2.956 10.149a.21.21 0 0 0 .24.24c-.781 5.293-1.686 7.939-2.715 7.938a.416.416 0 0 0 .284.462.425.425 0 0 0 .194.018h.267c0 .337-.089.505-.267.505-.815 5.594-1.641 8.809-2.476 9.646a.236.236 0 0 1 .267.265l-.507.747v.238c0 .497.329.746.986.747v.985c.337 1.491.834 2.237 1.49 2.238 0-.179.08-.267.24-.267h.507c.196 0 .773.667 1.73 2l.507-.265h.24c.267 1.153.675 1.73 1.225 1.731l.505-.24c.337 0 .994.417 1.971 1.252h.5l1.493-.745c.318 0 .478.25.478.745h.505c.32 0 .48-.169.48-.505.263.026.517.108.745.24 1.899 0 3.142-1.563 3.728-4.69.994-1.74 2.396-6.695 4.206-14.865l.48.24.507-.24c-.249-.5-.5-.745-.747-.745.078-1.007.248-2.006.507-2.983 0-1.155 1.233-1.733 3.7-1.734 4.099.499 6.655.748 7.668.747 0-.497.338-.826 1.013-.985h.24c.888 1.492 1.545 2.238 1.97 2.238v1.225l1.25 1.492-.505.745v.48l2 1.491v.747a1.663 1.663 0 0 0 .983 1.731 31.227 31.227 0 0 0 1.971 5.2c.143.993.558 1.491 1.252 1.491v.747c.657 2.148 1.314 3.222 1.97 3.223 0 2.007 1.233 3.828 3.7 5.462 0 .621 1.651 1.358 4.953 2.211a3.422 3.422 0 0 0 2-1.492c1.153-.32 1.729-.648 1.73-.985h.478l.505.267c.025-.263.107-.518.24-.747h-.24l.24-1.252v-.239c.003-.292-.155-.462-.473-.515Zm-26.732-28.719a3.105 3.105 0 0 0-1.493.24l-4.446-.505-1.25.265a1.751 1.751 0 0 0-.747-.265c.231-3.091.728-4.825 1.493-5.2a1.864 1.864 0 0 0-.24-.747l1.223-5.939h.24c1.314 1.26 2.388 3.578 3.223 6.953a15.027 15.027 0 0 0 2 4.689l-.003.509ZM467.253 421.344c.177 0 .426-.489.747-1.466 0-.604-.409-1.101-1.226-1.492l.747-2.983c-.817-1.973-1.315-2.959-1.492-2.958a9.46 9.46 0 0 0 .985-2.478v-1.731c-.249-.5-.5-.745-.747-.745l.507-4.715c-.16 0-.24-.249-.24-.747v-.479a4.208 4.208 0 0 1 .48-2 19.524 19.524 0 0 1-.48-4.449 2.609 2.609 0 0 1 .24-1.252l-.24-1.466v-2.986l-.267-2.958h.267l.48.24.747-.985-.747-3.223v-1.732a6.057 6.057 0 0 0-1.225-3.968c0-3.197-3.142-7.078-9.426-11.643-2.133-.496-3.198-.993-3.195-1.492h-.507l-5.936-1.491h-1.493a3.671 3.671 0 0 1-2.476 1.012c-1.313.479-1.969.887-1.97 1.226h-.747l-.743-.507h-.24l-.747.507h-.985v-.986h-.265l-.48.239.24.507v.24h-.747l-.983-.985h-.24v.479c-1.493.41-2.236.827-2.236 1.252v.24c.62.677.97 1.559.983 2.478-1.49 6.433-2.485 11.469-2.986 15.106l.265 1.252c-.333 1.103-.83 5.97-1.49 14.6.16 2.06.24 3.134.24 3.223-.16 0-.24.089-.24.267a.21.21 0 0 1 .24.24v3.462a20.09 20.09 0 0 1-.24 2.716c.709 4.458 1.205 6.687 1.49 6.688a28.75 28.75 0 0 0 3.223 7.7c2.627 3.126 4.109 4.688 4.446 4.687 3.781 2.041 6.427 3.365 7.936 3.97.342.003.68-.08.983-.24l.48.24 1.491-.24.985.48c.344.007.683-.075.985-.24.738.143 1.487.223 2.238.24.337 0 .505-.25.505-.745h.985a3.038 3.038 0 0 0 1.492-.48c.344-.007.683.075.985.24l2.236-.747c.676-.817 2.487-1.803 5.433-2.956v-.267l-.24-.48a6.588 6.588 0 0 0 2.476-4.714l-.261-.505Zm-6.683-21.526c0 2.467-.08 4.527-.24 6.181 0 .728-1.154 4.609-3.463 11.642.249.657.5.985.747.985-.941 2.308-3.168 3.463-6.683 3.465h-.987a14.271 14.271 0 0 1-5.7-11.643l.478-.745v-.48c-.478 0-.718-.168-.718-.507v-3.462c.32-10.319.728-17.175 1.223-20.569l-.24-1.731a.21.21 0 0 0 .24-.24h-.24c.083-2.829.413-5.645.986-8.417l-.507-.987.267-1.251-1.49-4.21v-.24h.24a9.8 9.8 0 0 1 3.46 1.226c.853 0 2.504 1.163 4.953 3.49 1.65 0 3.221 1.811 4.713 5.434a17.218 17.218 0 0 1 1.73 7.94c.551 0 .96 3.133 1.227 9.4.001.911-.079 1.821-.24 2.718.163.654.245 1.326.244 2.001ZM370.336 351.83c.035.64 1.02 1.466 2.956 2.478 0 1.155 1.65 1.732 4.951 1.731h2.236l.507-.265v.265c2.25-.17 4.484-.508 6.683-1.011.296.181.638.274.985.267 1.313 0 1.969-.418 1.97-1.254a20.668 20.668 0 0 0 4.474-1.971h.24l.505.24a.21.21 0 0 1 .24-.24h.48c.352-.005.7.078 1.012.24 1.4 0 2.633-.986 3.7-2.958 0-.497-.329-.914-.987-1.251l.987-1.227c0-.3-.409-.469-1.225-.505-.284 0-.453.169-.507.505a1.808 1.808 0 0 1-.985-.265 14.84 14.84 0 0 1-1.492.265 4.197 4.197 0 0 1-1.73-.744 1.988 1.988 0 0 1-.987.239h-2l-2.955.24v-.479h.985v-.507l-2.476-.24c-3.8.089-5.7.249-5.7.479-7.757.463-11.636 1.04-11.635 1.732-.267 1.333-.595 2-.985 2 .026.263.107.518.238.747a1.873 1.873 0 0 1-.238.745c.377.497.628.745.753.744Z" fill="#fff"/><defs><linearGradient id="a" x1="287.997" y1="557.133" x2="287.997" y2=".997" gradientUnits="userSpaceOnUse"><stop stop-color="#FFBA00"/><stop offset="1" stop-color="#FFE400"/></linearGradient></defs></svg>