<svg width="576" height="558" viewBox="0 0 576 558" fill="none" xmlns="http://www.w3.org/2000/svg">
<path d="M287.836 549.145C420.393 549.145 527.851 441.585 527.851 308.903C527.851 176.221 420.393 68.661 287.836 68.661C155.279 68.661 47.821 176.221 47.821 308.903C47.821 441.585 155.279 549.145 287.836 549.145Z" fill="#FFD400"/>
<path d="M46.957 203.573L46.238 203.884L36.276 202.284L35.364 202.584L35.511 205.695L34.233 209.558L34.072 211.283L33.604 213.283L35.82 214.702L37.34 216.038L38.128 216.553L39.213 217.653L40.938 218.808L41.601 220.134V221.461L41.841 222.021L40.675 224.935L40.229 224.89L39.521 226.662L35.066 224.878L4.23703 201.39L0.172028 197.31L-0.000976562 196.247L0.469025 195.903L0.559021 195.01L0.994034 193.926L0.694031 192.68L2.50903 191.617L4.69003 191.296L7.09003 191.596L10.79 191.288L13.771 191.62L16.615 191.299L19.14 191.779L20.681 191.734L21.539 192.076L35.233 193.776L35.862 194.028L36.41 193.983L47.5 195.572L49.327 196.305L50.106 197.012L50.87 197.584L51.1 198.338L51.34 200.225L51.181 200.625L51.34 200.886L51.351 202.018L51.651 203.264L49.515 203.47L46.957 203.573ZM26.057 206.81L27.506 201.688L17.695 200.544L19.113 201.973L24.686 206.261L26.057 206.81Z" fill="#FFD400"/>
<path d="M144.094 89.1L142.078 88.082L138.044 84.492L136.227 82L134.244 80.368L132.775 79.945L130.865 80.19L129.231 81.29L135.657 90.1L137.576 93.406L136.833 96.055L134.157 98.367L133.815 98.299L133.8 98.605L132.37 99.566L130.25 98.617L109.691 67.947L106.176 61.487L106.31 60.804L106.751 60.136L106.528 59.249L106.357 58.994L108.463 56.394L117.195 50.529L120.11 49.461L121.694 49.061L124.201 49.161L125.91 49.94L126.048 50.146L126.731 50.057L127.09 50.483L131.19 53.51L131.823 54.345L133.142 55.756L134.737 58.688L134.997 59.849L135.548 61.332V61.554L135.683 61.754L135.248 64.864L134.828 66.555L134.865 67.716L134.191 70.687L133.577 71.1L132.849 72.553L135.035 73.382L137.086 74.675L138.076 75.047L139.051 75.947L141.204 77.391L141.735 78.073L143.976 79.756L145.529 80.639L145.629 81.239L147.32 81.661L148.088 82.261L150.541 80.614L150.554 80.308L151.015 79.999L151.666 80.299L153.45 84.068L153.05 86.338L152.402 87.138L150.207 88.614L147.657 89.67L144.094 89.1ZM125.548 69.609L128.131 66.609L129.157 63.4L129.202 61.811L127.423 59.376L124.277 56.892L122.313 56.949L120.049 57.8781L115.349 61.034L115.522 61.954L116.157 62.789L117.221 64.818L122.585 71.6L125.548 69.609Z" fill="#FFD400"/>
<path d="M274.789 45.509L274.622 42.925L274.598 11.335L275.02 7.01801L275.035 4.248L275.454 3.43901L275.428 1.839L276.528 1.45001L292.762 1L295.536 1.20001L296.465 1.677L297.512 1.722L297.297 3.63301L297.379 4.86401L296.836 5.673L296.857 6.843L295.772 8.343L293.387 9.24301L290.195 9.41901L287.36 9.21901L285.639 9.371L283.176 9.164L282.876 9.78601L282.857 16L293.311 15.829L295.165 16.291L295.78 16.342L294.824 21.961L293.246 23.035L288.827 23.846L283.284 23.446L283.259 29.296L283.047 31.455L283.295 39.087L291.529 38.459L295.47 38.702L295.464 42.028L295.164 42.528L295.188 43.944L294.469 45.187L293.309 45.637L279.79 46.66H275.914L274.789 45.509Z" fill="#FFD400"/>
<path d="M464.581 69.963L463.915 70.63L464.053 70.43L463.37 70.568L462.383 72.055L462.368 72.635L461.907 72.995L462.007 73.507L461.596 74.123L461.296 74.14L461.158 74.346L461.653 74.381L461.278 74.944L460.921 74.705L460.444 74.978L460.411 75.478L459.626 76.657L459.183 76.881L457.551 79.342L456.051 81.154L454.929 82.846L454.401 83.308L454.434 82.808L454.077 82.569L453.715 82.552L453.973 82.722L453.835 82.928L453.41 83.015L453.563 83.338L453.342 84.005L454.758 83.541L454.279 83.816L453.904 84.381L454.349 84.157L454.211 84.806L454.282 85.148L453.769 85.248L453.669 84.734L453.262 85.35L453.774 85.913H452.887L452.614 86.323L452.714 86.613L451.844 87.145L450.45 89.245L450.672 89.688L450.024 89.553L450.092 90.116L449.855 90.475L449.495 90.236L447.965 92.544L448.065 93.277L447.078 93.877L446.464 94.8L446.005 96.046L445.375 96.217L445.665 96.78L445.29 97.345L444.933 97.106L443.91 98.645L443.295 98.235L442.803 98.203L442.785 97.895L442.238 98.048L442.373 97.177L441.537 97.656L440.769 97.147L440.753 96.839L440.225 97.079L440.633 96.463L440.003 96.634L439.797 96.497L439.302 96.464L438.463 95.611L437.869 95.731L437.42 93.513L438.071 83.746L438.003 83.404L438.391 82.038L438.51 80.194L438.643 79.994L438.523 79.394L438.931 78.78L438.726 78.643L439.488 73.382L439.452 72.547L440.466 67.012L439.681 67.749L438.388 69.695L438.151 70.495L437.384 70.648L437.606 71.313L436.824 72.495L435.699 73.076L435.499 74.05L435.259 74.407L435.059 75.159L434.359 75.212L433.202 76.955L432.674 77.417L431.274 79.517L431.292 79.825L430.456 80.305L429.945 81.072L428.497 82.697L428.513 83.227L428.26 83.278L427.987 83.689L428.04 83.944L427.63 84.56L427.03 84.68L427.236 84.817L427.098 85.017L426.791 85.035L425.871 85.754L424.233 85.554L423.259 85.794L423.532 85.383L423.464 85.044L422.834 85.215L420.752 84.792L420.652 84.28L420.152 84.247L420.185 83.747L419.795 84.002L419.18 83.594L419.417 83.237L419.894 82.962L419.537 82.723L420.011 81.118L439.393 52.4L444.262 46.4L445.029 46.023L446.547 45.85L447.11 46.225L447.574 46.309L448.033 46.838L448.512 46.787L448.596 47.213L449.196 47.093L449.946 47.293L450.713 47.138L451.113 49.102L450.689 50.296L450.542 53.745L450.185 54.84L450.542 55.079L450.086 57.214L450.186 58.17L449.676 60.048L450.14 60.354L449.747 60.389L449.372 60.954L449.541 61.585L450.005 61.671L449.12 63.003L449.375 63.396L449.529 64.163L449.292 64.522L449.445 65.291L448.935 65.391L448.715 66.278L449.024 66.484L448.478 67.304L447.918 70.257L447.971 70.514L448.379 69.898L448.585 70.035L448.45 70.241L448.004 70.685L448.142 71.144L448.007 71.35L448.552 71.418L448.417 71.624L448.057 71.607L447.513 72.427L447.381 73.742L446.781 74.084L446.375 74.698L446.393 75.006L446.935 74.186L447.141 74.321L447.296 75.314L447.911 74.834L446.889 76.373L446.976 77.02L446.736 77.379L446.856 77.979L447.267 78.251L446.859 78.867L446.927 79.208L446.45 79.259L446.622 79.891L447.047 79.805L448.717 77.293L449.535 76.505L452.088 72.661L452.427 72.592L452.292 72.13L453.312 71.259L455.559 67.875L459.359 62.934L460.106 61.806L462.611 59.258L462.848 58.901L464.861 58.539L466.093 60.023L466.98 60.242L466.708 60.653L467.065 60.892L467.542 60.617L467.904 60.856L467.493 61.472L468.093 61.128L468.4 61.778L468.385 62.578L468.247 62.784L468.179 63.331L467.294 64.664L467.5 64.801L467.263 65.158L467.33 65.499L467.023 65.517L466.138 66.85L466.208 67.191L465.864 67.26L464.969 68.6L464.769 68.463L464.496 68.874L464.803 69.3L463.918 69.746L464.244 70.256L464.721 69.756L464.581 69.963ZM445.357 81.127L445.29 81.672L445.662 81.109L445.357 81.127ZM445.39 80.627L445.59 80.762L445.761 80.062L445.39 80.627ZM445.803 94.127L446.348 94.195L446.093 94.024L445.803 94.127ZM446.331 93.665L446.587 93.835L448.255 91.324L448 91.153L447.115 92.486L446.482 92.657L446.571 93.306L446.331 93.665ZM446.907 91.24L447.282 90.675L447.024 90.505L446.907 91.24ZM448.238 90.794L448.647 91.067L450.69 87.99L450.128 88.504L449.771 88.486L448.238 90.794ZM448.695 87.77L448.779 88.42L449.205 87.003L448.695 87.77ZM451.437 86.862L452.679 84.662L451.419 86.562L451.437 86.862ZM453.306 82.045L453.681 81.48L453.238 81.702L453.306 82.045ZM453.954 81.069L454.243 80.969L454.329 80.508L453.954 81.069ZM454.194 81.82L454.757 82.195L456.272 80.468L456.205 80.127L455.624 80.555L455.012 81.478L454.601 81.205L454.194 81.82ZM454.704 79.942L455.128 79.634L455.076 79.379L454.704 79.942ZM457.53 78.571L458.093 78.061L457.701 78.316L457.53 78.571ZM459.066 78.706L458.829 79.065L458.623 78.93L458.761 78.724L459.066 78.706ZM460.404 73.018L461.274 72.488L460.917 72.248L460.404 73.018ZM462.078 72.947L462.367 72.621L462.385 72.93L462.078 72.947ZM464.952 66.947L465.291 66.879L465.429 66.679L465.085 66.747L464.952 66.947Z" fill="#FFD400"/>
<path d="M534.969 219.261L535.276 218.54L543.6 212.834L544.058 211.989L541.811 209.837L540.08 206.154L539.007 204.792L537.969 203.019L535.389 203.519L533.367 203.6L532.441 203.77L530.9 203.723L528.854 204.076L527.46 203.576L526.548 202.614L525.988 202.374L524.825 199.457L525.179 199.184L524.472 197.411L528.929 195.633L567.436 191.402L573.193 191.558L574.048 192.21L573.943 192.782L574.491 193.492L574.925 194.578L575.998 195.278L575.411 197.302L574.052 199.038L572.109 200.476L569.637 203.251L567.249 205.066L565.405 207.258L563.246 208.651L562.157 209.736L561.302 210.08L550.202 218.28L549.575 218.531L549.209 218.944L540.076 225.437L538.247 226.167L537.195 226.19L536.248 226.303L535.562 225.913L534.087 224.713L533.929 224.313L533.629 224.233L532.84 223.419L531.767 222.719L533.174 221.097L534.969 219.261ZM547.897 202.506L550.369 207.218L558.269 201.284L556.259 201.224L549.269 201.958L547.897 202.506Z" fill="#FFD400"/>
<path d="M284.545 557.134C419.702 557.134 529.269 447.464 529.269 312.178C529.269 176.893 419.702 67.222 284.545 67.222C149.388 67.222 39.821 176.893 39.821 312.178C39.821 447.464 149.388 557.134 284.545 557.134Z" stroke="#FFD300" stroke-width="1.481" stroke-miterlimit="10"/>
<path d="M39.822 312.177C39.822 176.892 149.387 67.2209 284.546 67.2209C419.705 67.2209 529.269 176.891 529.269 312.177C529.269 447.463 419.702 557.133 284.546 557.133C149.39 557.133 39.822 447.463 39.822 312.177ZM35.064 224.877L4.23804 201.393L0.171997 197.313L-0.000976562 196.249L0.468994 195.905L0.55896 195.012L0.994019 193.928L0.69397 192.682L2.50903 191.618L4.69104 191.297L7.09094 191.597L10.791 191.289L13.771 191.62L16.6169 191.299L19.141 191.78L20.681 191.735L21.5389 192.077L35.239 193.777L35.8669 194.03L36.415 193.985L47.505 195.574L49.3311 196.307L50.11 197.014L50.873 197.586L51.1021 198.34L51.342 200.227L51.1851 200.627L51.342 200.889L51.353 202.021L51.653 203.267L49.516 203.473L46.957 203.573L46.2371 203.885L36.275 202.285L35.364 202.585L35.511 205.696L34.2321 209.559L34.073 211.284L33.604 213.284L35.819 214.703L37.339 216.039L38.127 216.554L39.2111 217.654L40.936 218.809L41.6 220.136V221.463L41.838 222.024L40.673 224.938L40.228 224.893L39.519 226.665L35.064 224.877ZM19.109 201.977L24.682 206.265L26.054 206.813L27.5031 201.692L17.692 200.547L19.109 201.977ZM535.569 225.917L534.094 224.717L533.937 224.317L533.637 224.237L532.848 223.424L531.775 222.724L533.182 221.102L534.967 219.264L535.274 218.543L543.597 212.838L544.055 211.992L541.809 209.841L540.076 206.157L539.004 204.795L537.966 203.022L535.385 203.522L533.364 203.6L532.437 203.77L530.897 203.723L528.85 204.076L527.456 203.576L526.545 202.614L525.985 202.374L524.822 199.456L525.176 199.183L524.469 197.409L528.926 195.632L567.434 191.401L573.191 191.557L574.046 192.209L573.94 192.781L574.488 193.491L574.922 194.576L575.995 195.276L575.408 197.3L574.049 199.036L572.107 200.474L569.634 203.249L567.246 205.064L565.403 207.256L563.245 208.649L562.157 209.743L561.302 210.087L550.202 218.287L549.574 218.538L549.209 218.951L540.076 225.443L538.249 226.172L537.196 226.195L536.25 226.308L535.569 225.917ZM549.269 201.96L547.898 202.508L550.371 207.219L558.271 201.285L556.261 201.225L549.269 201.96ZM130.256 98.6201L109.698 67.95L106.183 61.491L106.316 60.8081L106.756 60.1389L106.533 59.252L106.362 58.9971L108.469 56.397L117.2 50.532L120.115 49.4641L121.699 49.064L124.205 49.1641L125.914 49.9431L126.053 50.1489L126.734 50.0601L127.094 50.4871L131.194 53.5139L131.828 54.3491L133.146 55.76L134.741 58.6919L135 59.853L135.552 61.3359V61.5581L135.687 61.7581L135.253 64.8669L134.833 66.5581L134.871 67.719L134.196 70.6899L133.583 71.103L132.856 72.5569L135.041 73.386L137.092 74.678L138.082 75.051L139.058 75.9509L141.211 77.395L141.742 78.0759L143.983 79.76L145.536 80.6431L145.636 81.2429L147.326 81.6641L148.095 82.2639L150.548 80.6169L150.561 80.3101L151.022 80.001L151.673 80.301L153.455 84.0701L153.055 86.3401L152.407 87.145L150.213 88.6211L147.657 89.6689L144.089 89.0979L142.074 88.0801L138.039 84.49L136.223 82.0029L134.24 80.3711L132.77 79.947L130.861 80.1919L129.227 81.292L135.65 90.0991L137.568 93.405L136.826 96.054L134.155 98.3679L133.814 98.3L133.8 98.606L132.369 99.5669L130.256 98.6201ZM122.32 56.9519L120.056 57.8811L115.356 61.0371L115.529 61.958L116.164 62.792L117.228 64.821L122.586 71.6011L125.55 69.6111L128.132 66.6111L129.163 63.3979L129.208 61.8091L127.429 59.374L124.283 56.8899L122.32 56.9519ZM443.301 98.239L442.81 98.208L442.791 97.8999L442.245 98.053L442.38 97.1831L441.545 97.6621L440.776 97.1531L440.759 96.845L440.231 97.085L440.64 96.47L440.01 96.6411L439.804 96.5039L439.31 96.4719L438.47 95.6189L437.876 95.74L437.428 93.521L438.079 83.7539L438.011 83.4109L438.4 82.0449L438.519 80.2019L438.653 80.002L438.533 79.4021L438.941 78.7881L438.736 78.6509L439.497 73.3899L439.462 72.5549L440.475 67.021L439.691 67.7581L438.397 69.7041L438.159 70.5039L437.393 70.658L437.614 71.323L436.833 72.5049L435.708 73.0859L435.508 74.061L435.267 74.418L435.067 75.1699L434.367 75.2219L433.211 76.9651L432.683 77.428L431.283 79.5281L431.302 79.8359L430.467 80.3159L429.954 81.084L428.508 82.709L428.523 83.239L428.27 83.29L427.997 83.7009L428.048 83.957L427.639 84.573L427.039 84.6941L427.245 84.8301L427.107 85.03L426.799 85.0481L425.879 85.7671L424.24 85.5669L423.266 85.8069L423.54 85.396L423.473 85.0569L422.842 85.228L420.76 84.8049L420.66 84.293L420.165 84.26L420.198 83.76L419.807 84.0149L419.191 83.6069L419.429 83.25L419.906 82.9761L419.55 82.7371L420.023 81.1311L439.39 52.3999L444.26 46.3999L445.026 46.0229L446.544 45.8501L447.107 46.2251L447.571 46.3091L448.03 46.8369L448.509 46.7859L448.593 47.2129L449.193 47.093L449.944 47.293L450.71 47.1379L451.11 49.1021L450.685 50.2959L450.538 53.7451L450.181 54.8391L450.538 55.0779L450.083 57.2141L450.183 58.1709L449.674 60.0491L450.137 60.355L449.744 60.3889L449.369 60.9541L449.54 61.584L450.003 61.6689L449.118 63.001L449.374 63.394L449.527 64.1621L449.291 64.521L449.443 65.29L448.933 65.3899L448.712 66.2771L449.022 66.4829L448.477 67.302L447.916 70.2561L447.968 70.512L448.378 69.897L448.583 70.0339L448.447 70.24L448.002 70.6851L448.14 71.144L448.005 71.3501L448.549 71.417L448.414 71.6221L448.054 71.606L447.51 72.426L447.379 73.741L446.779 74.084L446.372 74.698L446.39 75.0061L446.932 74.186L447.138 74.321L447.293 75.314L447.908 74.833L446.886 76.3721L446.973 77.019L446.734 77.3779L446.853 77.978L447.265 78.25L446.857 78.865L446.925 79.2051L446.448 79.2561L446.62 79.8889L447.045 79.803L448.714 77.291L449.533 76.502L452.084 72.658L452.423 72.5901L452.289 72.127L453.308 71.2561L455.555 67.8721L459.355 62.9299L460.102 61.802L462.602 59.2539L462.839 58.897L464.852 58.5349L466.083 60.0181L466.97 60.2371L466.698 60.6479L467.055 60.887L467.532 60.613L467.893 60.8521L467.483 61.467L468.083 61.123L468.39 61.7739L468.376 62.574L468.238 62.78L468.17 63.3259L467.283 64.6599L467.49 64.7971L467.251 65.1541L467.319 65.4939L467.013 65.512L466.126 66.8459L466.198 67.187L465.853 67.2561L464.969 68.5901L464.764 68.4529L464.491 68.864L464.798 69.291L463.913 69.7361L464.24 70.2471L464.716 69.7471L464.579 69.9519L463.913 70.6189L464.051 70.4189L463.369 70.5569L462.382 72.0439L462.368 72.624L461.908 72.9839L462.008 73.4961L461.598 74.1111L461.298 74.1279L461.158 74.333L461.658 74.3679L461.283 74.9309L460.927 74.6919L460.45 74.9651L460.416 75.4651L459.632 76.644L459.19 76.8669L457.557 79.3291L456.057 81.1421L454.935 82.834L454.408 83.2971L454.441 82.7971L454.083 82.5581L453.722 82.542L453.98 82.7109L453.841 82.917L453.417 83.0029L453.569 83.3259L453.35 83.9929L454.766 83.5291L454.287 83.804L453.913 84.3679L454.358 84.144L454.22 84.793L454.289 85.135L453.777 85.2351L453.677 84.7209L453.27 85.3359L453.781 85.8989H452.896L452.623 86.3091L452.723 86.5991L451.854 87.1299L450.454 89.23L450.677 89.6731L450.028 89.5381L450.096 90.1011L449.86 90.459L449.5 90.22L447.968 92.5281L448.068 93.261L447.082 93.8611L446.469 94.7839L446.01 96.031L445.379 96.2019L445.669 96.7649L445.294 97.3301L444.937 97.0911L443.914 98.6311L443.301 98.239ZM445.801 94.1389L446.346 94.2061L446.091 94.0349L445.801 94.1389ZM447.114 92.4971L446.481 92.6689L446.57 93.3169L446.33 93.676L446.586 93.8459L448.254 91.335L448 91.1641L447.114 92.4971ZM446.906 91.251L447.28 90.686L447.022 90.5171L446.906 91.251ZM448.235 90.804L448.645 91.0779L450.69 88.001L450.128 88.5149L449.771 88.4971L448.235 90.804ZM448.694 87.78L448.778 88.4299L449.205 87.0129L448.694 87.78ZM451.417 86.5649L451.435 86.8721L452.677 84.6721L451.417 86.5649ZM454.192 81.8291L454.755 82.2041L456.272 80.478L456.204 80.137L455.623 80.5649L455.011 81.488L454.601 81.2151L454.192 81.8291ZM453.236 81.7119L453.303 82.0549L453.678 81.49L453.236 81.7119ZM445.356 81.1279L445.288 81.6731L445.662 81.1101L445.356 81.1279ZM453.956 81.0779L454.244 80.978L454.329 80.5171L453.956 81.0779ZM445.391 80.6321L445.591 80.7671L445.763 80.0669L445.391 80.6321ZM454.706 79.95L455.131 79.6421L455.077 79.387L454.706 79.95ZM457.706 78.324L457.534 78.5801L458.097 78.0701L457.706 78.324ZM460.406 73.0239L461.275 72.4939L460.919 72.2539L460.406 73.0239ZM465.087 66.75L464.954 66.95L465.292 66.8831L465.43 66.6831L465.087 66.75ZM458.624 78.9351L458.762 78.729L459.068 78.7109L458.829 79.0701L458.624 78.9351ZM462.369 72.627L462.386 72.937L462.079 72.9529L462.369 72.627ZM274.789 45.5061L274.622 42.9221L274.6 11.332L275.02 7.01489L275.035 4.24512L275.453 3.43604L275.427 1.83594L276.527 1.44702L292.76 0.99707L295.534 1.19702L296.463 1.67505L297.511 1.71997L297.297 3.6311L297.379 4.86304L296.835 5.67212L296.857 6.84106L295.772 8.34106L293.388 9.24097L290.195 9.41699L287.361 9.21704L285.64 9.3689L283.177 9.16211L282.877 9.78296L282.856 16.0029L293.311 15.8311L295.165 16.293L295.779 16.345L294.823 21.9641L293.245 23.0381L288.826 23.8491L283.283 23.449L283.259 29.2991L283.047 31.458L283.295 39.0901L291.528 38.4629L295.469 38.7061L295.463 42.032L295.163 42.532L295.186 43.948L294.469 45.1919L293.308 45.6421L279.789 46.6641H275.913L274.789 45.5061Z" fill="url(#paint0_linear_35_865)"/>
<path d="M188.586 237.752C184.212 237.752 179.637 234.868 177.052 228.5C175.959 226.311 174.566 224.222 172.876 225.417C171.584 226.511 171.485 228.301 172.076 230.192C175.357 239.543 182.617 244.318 190.476 244.318C205.292 244.318 222.991 230.192 225.876 211.985C226.076 210.096 226.176 207.907 226.176 206.215C226.176 178.757 202.213 151 176.162 151C172.901 150.992 169.653 151.428 166.51 152.297H166.61C144.338 155.978 123.655 177.17 114.81 201.544C111.131 211.791 109.142 221.244 109.142 228.504C109.32 232.858 110.055 237.171 111.33 241.338C118.29 261.338 140.761 265.911 162.339 269.492L164.924 269.892C170.592 270.892 178.049 272.28 183.619 273.573C189.585 275.265 194.855 278.05 196.843 282.13C197.318 283.506 197.555 284.953 197.543 286.408C197.543 296.854 180.937 306.008 170.994 310.085C163.914 312.498 156.497 313.774 149.018 313.865C133.01 313.865 118.691 307.199 114.618 291.978C114.039 290.411 113.7 288.765 113.61 287.097C113.644 285.611 114.091 284.164 114.902 282.918L115.602 281.525C115.902 280.133 115.602 279.336 114.702 279.336C108.736 279.336 105.555 291.673 105.057 296.746C103.566 318.434 128.723 334.552 153.283 334.552C160.401 334.578 167.458 333.226 174.063 330.573C190.769 323.21 204.887 307.492 204.887 289.883C204.886 286.511 204.383 283.158 203.395 279.934C200.313 270.483 192.955 264.016 185 260.234C181.197 258.359 177.278 256.731 173.267 255.359L171.079 254.559C158.551 250.082 144.033 244.411 138.465 230.483C135.979 224.812 134.886 218.345 134.886 210.583C134.886 208.891 134.986 207.201 135.086 205.508C135.686 183.125 145.327 160.242 167.402 160.441C187.488 160.541 205.983 187.004 207.076 209.687H206.976C206.983 226.013 197.537 237.752 188.586 237.752Z" fill="white"/>
<path d="M463.824 285.305L463.724 285.505C460.441 292.27 454.276 298.438 447.614 300.13C446.7 300.347 445.768 300.481 444.83 300.53C442.397 300.423 440.078 299.473 438.268 297.844L441.052 292.173L443.836 286.304L444.636 284.713L444.536 284.813L445.631 282.723C450.204 272.577 455.076 260.041 455.076 251.485C455.076 245.814 452.888 241.835 447.222 241.436C434.592 240.542 426.341 261.336 426.341 279.242C426.341 287.201 427.931 294.661 431.611 299.337L429.721 303.119C425.842 311.078 420.276 322.019 413.315 323.514C410.73 324.114 408.643 322.121 409.04 316.351C409.34 308.092 412.421 294.961 414.708 284.814C415.831 280.519 416.727 276.169 417.393 271.78C417.893 265.513 416.399 260.339 409.835 260.339C405.361 260.339 403.671 261.239 403.472 263.823C403.472 263.823 403.572 264.623 403.672 265.314C403.919 266.39 404.02 267.495 403.972 268.598C403.372 276.656 401.387 282.128 398.702 290.185L398.802 290.085C393.134 299.637 378.32 324.706 373.048 324.706C371.856 324.706 371.657 322.219 371.756 319.335C372.65 311.376 377.026 296.453 379.413 288.891C380.806 284.813 382.893 278.743 383.39 272.973C383.79 267.801 382.49 262.726 378.716 260.14C376.579 259.085 374.238 258.508 371.856 258.448C369.866 258.448 368.376 259.048 368.177 260.736C368.139 261.274 368.207 261.815 368.377 262.327V262.227C368.762 263.686 368.897 265.2 368.777 266.704C368.404 270.82 366.617 277.504 364.506 285.145L362.611 288.591C357.541 298.441 352.07 308.591 341.829 310.677C346.945 300.956 350.183 290.358 351.374 279.438V279.538C351.578 277.655 351.679 275.762 351.674 273.867C351.674 259.242 346.306 247.801 333.379 247.801C317.569 247.801 313.096 263.022 311.703 277.051C309.749 276.102 307.611 275.593 305.439 275.559C303.529 275.52 301.634 275.911 299.896 276.703C298.157 277.495 296.619 278.668 295.395 280.135C294.042 284.149 293.183 288.313 292.837 292.535C286.998 303.535 274.771 325.497 269.937 325.497C267.751 325.497 267.552 320.523 267.65 317.836C268.25 311.966 271.13 303.211 274.213 294.556C277.295 285.503 280.576 275.756 281.272 268.49C281.972 261.427 279.781 256.054 272.522 256.054C261.981 256.054 253.729 268.689 246.67 279.832C244.881 282.42 243.488 285.006 241.797 287.293L245.277 271.772C248.558 257.546 252.636 239.838 253.032 235.858C253.532 229.192 251.641 222.029 241.597 222.029C239.709 222.029 238.018 222.529 237.919 224.318C237.947 224.919 238.014 225.516 238.119 226.108C238.439 227.746 238.573 229.414 238.519 231.082C238.119 235.758 234.84 249.582 231.261 264.807C226.786 283.707 221.815 304.702 221.018 313.954C220.918 315.347 220.818 316.741 220.818 318.034C220.818 326.192 223.305 334.649 232.85 334.649C234.243 334.649 235.137 334.349 235.137 333.256C235.115 332.746 235.014 332.243 234.837 331.764C234.088 328.538 233.818 325.219 234.037 321.914C234.667 315.344 236.172 308.887 238.511 302.714H238.411L240.001 299.929V300.029C245.47 290.777 260.385 265.01 267.544 265.01C268.244 265.01 268.538 265.51 268.444 266.8C268.144 269.486 265.858 275.357 263.173 282.52C259.296 292.866 254.224 306.794 252.932 317.042C252.849 318.034 252.815 319.03 252.832 320.025C252.832 327.885 255.815 333.556 264.963 333.556C274.463 333.556 284.569 317.456 292.326 302.922C292.626 316.894 297.475 333.654 312.096 333.654C322.736 333.654 331.884 326.491 338.645 316.244C347.87 315.709 355.064 308.79 360.313 301.044C358.935 306.395 357.974 311.845 357.438 317.344C357.338 318.737 357.238 320.129 357.238 321.422C357.238 328.883 359.525 333.958 366.386 333.958C377.225 333.958 384.786 322.217 391.842 311.473L393.034 309.584C393.134 311.175 393.034 311.175 393.034 312.867C392.934 323.015 392.934 334.754 405.763 334.754C419.287 334.754 426.046 321.124 431.615 309.981C432.702 307.525 433.931 305.134 435.294 302.819C438.674 304.727 442.579 305.494 446.429 305.006C455.975 303.415 464.129 295.257 468.006 286.106C466.41 284.509 465.41 284.211 463.824 285.305ZM319.843 322.214C312.884 322.214 310.596 313.061 310.596 303.214C310.596 301.224 310.696 299.134 310.896 297.046C311.096 294.857 311.296 292.47 311.696 290.38C313.089 302.518 318.556 311.87 331.782 315.849C328.097 320.025 324.319 322.214 319.843 322.214ZM335.853 310.276C324.815 308.187 322.728 293.862 322.728 282.619C322.728 279.435 322.928 276.451 323.128 274.064C324.122 263.419 326.906 253.864 333.071 253.864C341.921 253.864 345.798 263.117 345.798 274.558C345.829 276.285 345.762 278.013 345.598 279.732C344.703 290.179 341.024 301.92 335.853 310.276ZM435.088 292.469L434.488 293.663C433.739 291.147 433.401 288.526 433.488 285.902C433.488 270.981 439.256 244.416 447.211 246.502C449.498 247.002 450.393 248.989 450.393 252.173C450.393 260.231 443.433 276.247 438.56 286.097C437.473 288.189 436.181 290.379 435.088 292.469Z" fill="white"/>
<path d="M146.591 371.578C143.29 368.505 141.639 366.765 141.638 366.356C141.602 366.001 140.12 364.935 137.192 363.156C136.929 363.182 136.674 363.264 136.445 363.396C135.743 363.186 135.134 362.745 134.715 362.144L134.208 362.411C132.505 361.256 131.351 360.679 130.747 360.679C129.097 360.839 127.855 360.919 127.021 360.919C126.541 360.382 125.95 359.955 125.29 359.667C124.6 359.662 123.921 359.837 123.32 360.174L122.095 359.934C120.154 360.245 118.246 360.735 116.395 361.398C111 361.967 108.275 362.882 108.221 364.143C106.891 364.747 106.224 365.244 106.221 365.635C106.219 365.982 106.311 366.322 106.488 366.62L105.981 373.546C106.146 373.849 106.228 374.189 106.221 374.533C106.008 378.492 105.679 380.472 105.236 380.472C105.266 380.738 105.357 380.994 105.503 381.219C105.428 382.72 105.259 384.215 104.996 385.694C105.153 386.511 105.233 387.34 105.236 388.172V390.65L105.503 392.114C105.302 392.5 105.21 392.934 105.236 393.368V395.844C105.236 397.567 105.156 399.378 104.996 401.278C105.653 406.449 106.15 413.225 106.487 421.607L106.22 422.592C106.195 424.972 106.892 427.303 108.22 429.278C108.564 429.285 108.904 429.203 109.206 429.038C109.895 429.639 110.768 429.988 111.681 430.025C112.037 430.984 112.454 431.481 112.933 431.516C113.413 431.18 113.653 430.841 113.653 430.504H114.398C114.398 431.001 114.567 431.25 114.905 431.251H115.145L115.645 431.011C115.64 431.044 115.643 431.077 115.654 431.108C115.664 431.139 115.682 431.168 115.705 431.191C115.728 431.215 115.757 431.232 115.788 431.242C115.819 431.253 115.852 431.256 115.885 431.251H116.39C116.589 430.971 116.848 430.737 117.147 430.567C117.446 430.396 117.778 430.293 118.121 430.264H119.106V430.771H119.613C123.749 428.041 127.715 425.06 131.488 421.847C136.849 416.747 139.902 413.194 140.647 411.189C143.647 406.522 145.378 402.642 145.84 399.547C146.716 397.067 147.297 394.492 147.57 391.875V390.897C147.57 389.492 147.411 386.269 147.092 381.226L147.81 378.748C147.334 376.581 146.928 374.191 146.591 371.578ZM141.133 389.639C140.085 396.71 136.872 403.485 131.494 409.966C126.665 415.241 123.532 417.879 122.094 417.879C122.163 415.232 121.993 412.583 121.587 409.966C121.747 409.966 121.827 409.878 121.827 409.701C121.442 407.082 121.281 404.435 121.347 401.788V397.819C121.374 397.288 121.539 396.774 121.827 396.327C121.578 396.327 121.329 394.098 121.082 389.639L121.347 388.655C121.134 388.655 120.967 388.157 120.847 387.161L121.347 383.219C121.311 383.224 121.274 383.221 121.239 383.21C121.204 383.198 121.173 383.178 121.147 383.152C121.121 383.126 121.102 383.095 121.091 383.06C121.079 383.025 121.076 382.988 121.082 382.952L121.347 381.486V379.728L121.587 379.248H121.347C121.376 378.586 121.456 377.927 121.587 377.277C121.427 375.2 121.347 373.956 121.347 373.547C121.347 373.406 121.427 372.749 121.587 371.576L121.347 371.069L121.587 369.578V368.352C123.582 368.251 125.567 368.001 127.525 367.605C134.125 367.872 137.427 368.946 137.431 370.828C140.572 376.298 142.143 380.01 142.144 381.964C141.946 384.539 141.608 387.101 141.133 389.639Z" fill="white"/>
<path d="M187.861 425.074L187.383 425.313C186.886 425.313 186.388 424.816 185.891 423.822L184.906 424.327L183.655 424.087C183.66 424.12 183.657 424.153 183.646 424.184C183.636 424.215 183.618 424.244 183.595 424.267C183.572 424.29 183.543 424.308 183.512 424.318C183.481 424.329 183.448 424.332 183.415 424.327C181.569 423.643 179.66 423.143 177.715 422.835C176.721 422.835 176.224 422.178 176.224 420.864V419.373C175.567 412.84 175.238 409.128 175.239 408.237C173.977 403.121 173.236 397.89 173.029 392.625L173.269 390.894C173.086 390.502 173.004 390.071 173.029 389.64C173.029 389.392 173.357 389.14 174.014 388.896L174.494 389.161C180.937 388.61 184.159 388.113 184.16 387.669L183.92 387.162V386.683C184.47 386.583 184.978 386.324 185.383 385.938C185.228 385.72 185.145 385.459 185.145 385.192C185.145 384.925 185.228 384.664 185.383 384.446C185.383 383.293 184.895 382.715 183.92 382.714V382.954L182.668 382.714L181.443 382.954C180.474 382.663 179.471 382.502 178.46 382.475H173.75L173.272 382.714C172.278 382.413 171.781 381.916 171.781 381.223C172.154 378.683 172.323 376.117 172.286 373.55L172.526 372.059C172.366 372.059 172.286 371.81 172.286 371.312V369.581C177.008 369.914 179.564 370.083 179.955 370.086H180.195C180.195 369.057 181.189 367.574 183.176 365.637C183.176 364.802 182.928 364.305 182.431 364.145H179.955L178.703 363.878C178.703 364.057 178.463 364.145 177.983 364.145H177.478C176.788 364.151 176.109 363.976 175.508 363.638V363.878L174.256 363.638H173.271L171.78 363.878C170.819 363.593 169.826 363.432 168.824 363.399L167.574 363.638C167.541 363.643 167.508 363.64 167.477 363.629C167.446 363.619 167.418 363.602 167.394 363.578C167.371 363.555 167.353 363.527 167.343 363.496C167.333 363.465 167.329 363.432 167.334 363.399C166.812 363.409 166.295 363.302 165.82 363.085C165.345 362.868 164.925 362.548 164.591 362.147L163.126 363.159C162.842 363.159 162.673 362.99 162.626 362.654C162.501 362.654 162.003 362.734 161.134 362.894L159.909 362.654C159.909 362.987 159.412 363.156 158.418 363.159C156.643 364.083 155.737 364.909 155.702 365.637L155.942 367.368C155.712 368.09 155.543 368.831 155.437 369.581C155.466 369.847 155.557 370.102 155.702 370.326L154.957 373.309C154.957 373.398 155.037 374.473 155.197 376.534C155.14 376.975 154.975 377.396 154.717 377.758C154.75 377.753 154.783 377.756 154.814 377.767C154.845 377.777 154.874 377.795 154.897 377.818C154.92 377.841 154.938 377.87 154.948 377.901C154.959 377.932 154.962 377.965 154.957 377.998V378.745L154.717 379.25H154.957C154.624 381.383 154.455 383.539 154.452 385.698V389.398L154.717 389.903C154.54 389.903 154.371 390.152 154.212 390.65C154.239 391.176 154.414 391.684 154.717 392.114C154.687 392.38 154.597 392.636 154.452 392.861C154.84 394.407 155.09 395.985 155.197 397.576C155.065 397.804 154.983 398.058 154.957 398.321C155.365 398.321 155.773 400.301 156.182 404.262C156.049 404.491 155.968 404.746 155.942 405.009C156.487 407.785 156.816 410.599 156.927 413.426L156.449 413.666C156.609 415.122 156.689 415.948 156.689 416.144C156.701 416.76 156.524 417.364 156.182 417.876C156.424 418.419 156.516 419.017 156.449 419.608C157.208 421.106 157.789 422.688 158.179 424.322H159.404C160.269 424.62 160.985 425.241 161.404 426.054L161.882 425.814C164.082 428.461 166.149 429.785 168.082 429.784C168.082 429.605 168.162 429.517 168.322 429.517L169.307 430.262H169.807L171.299 430.023C171.52 430.151 171.765 430.233 172.019 430.262C172.708 430.215 173.384 430.053 174.019 429.783C174.282 429.809 174.536 429.891 174.764 430.023L182.193 429.516C183.887 430.076 185.623 430.494 187.386 430.768H187.626L189.116 429.036C189.121 428.684 189.038 428.336 188.876 428.024C189.04 427.722 189.123 427.383 189.116 427.039V426.054C189.045 425.72 188.627 425.393 187.861 425.074Z" fill="white"/>
<path d="M270.803 363.879L271.043 363.4C270.859 363.18 270.631 363 270.375 362.872C270.118 362.744 269.838 362.67 269.551 362.655C268.469 362.779 267.564 363.684 266.836 365.371C266.836 365.638 265.513 370.016 262.868 378.505C261.254 384.21 259.352 389.83 257.168 395.342C255.145 402.342 253.743 406.392 252.962 407.491H252.722V406.744C249.797 399.869 247.238 392.843 245.054 385.698L243.324 379.73L243.562 379.25V379.01C243.261 378.832 243.013 378.579 242.84 378.275C242.667 377.972 242.576 377.628 242.577 377.279C241.329 375.405 240.485 373.29 240.101 371.071C240.101 367.945 238.201 365.716 234.401 364.385V364.145L234.879 363.4H234.639L233.894 363.879H233.416C233.077 363.879 232.909 363.639 232.909 363.16H232.669L232.164 363.4L232.402 363.879V364.386C231.427 364.386 230.939 363.977 230.939 363.16L229.687 363.4L228.462 363.16C228.213 363.817 227.964 364.146 227.717 364.145C227.308 364.145 227.059 363.817 226.971 363.16H226.731C225.976 363.698 225.141 364.111 224.256 364.386C224.256 364.226 224.167 364.146 223.988 364.146H223.01C222.677 364.218 222.348 364.627 222.025 365.372C222.851 366.733 223.36 368.263 223.517 369.847C223.34 369.847 223.25 369.927 223.25 370.087C223.443 370.817 223.533 371.57 223.517 372.325C224.221 374.429 224.799 376.573 225.248 378.746L225.008 379.998C225.168 381.117 225.407 381.694 225.726 381.729C226.117 385.672 226.534 388.15 226.978 389.162C228.452 396.429 229.526 400.062 230.199 400.062C231.218 404.165 232.453 408.211 233.899 412.184C234.734 416.251 235.311 418.728 235.63 419.617C235.604 419.879 235.522 420.133 235.39 420.361L235.63 421.348C236.482 422.205 237.161 423.218 237.63 424.331C238.267 424.311 238.894 424.49 239.423 424.844C239.953 425.197 240.359 425.707 240.585 426.303L241.092 426.063H241.572C242.067 426.187 242.485 426.764 242.824 427.794C244.315 428.043 245.061 428.621 245.06 429.526H245.538C245.875 429.526 246.045 429.366 246.045 429.046C246.486 429.103 246.907 429.268 247.27 429.526C247.27 429.259 247.438 429.101 247.777 429.046H248.282L249 429.526H249.507L251.477 428.3H252.224L252.729 428.54C252.729 428.327 253.306 428.078 254.46 427.793L254.967 428.033C255.845 426.89 256.586 425.648 257.175 424.333L256.697 421.35L257.443 417.407C261.223 404.407 263.531 397.472 264.366 396.601C265.023 392.617 266.103 388.714 267.587 384.959C267.587 382.472 268.075 381.228 269.05 381.229V380.242H268.572C268.584 379.658 268.664 379.077 268.812 378.511C270.303 373.662 271.049 370.856 271.048 370.092C271.048 369.592 270.879 369.347 270.541 369.347C270.815 368.256 271.144 367.18 271.526 366.122V365.377L270.808 364.392L270.803 363.879Z" fill="white"/>
<path d="M311.222 425.074L310.744 425.313C310.245 425.313 309.748 424.816 309.253 423.822L308.268 424.327L307.016 424.087C307.021 424.12 307.018 424.153 307.007 424.184C306.997 424.215 306.979 424.244 306.956 424.267C306.933 424.29 306.904 424.308 306.873 424.318C306.842 424.329 306.809 424.332 306.776 424.327C304.93 423.643 303.021 423.143 301.076 422.835C300.083 422.835 299.587 422.178 299.586 420.864V419.373C298.929 412.84 298.6 409.128 298.601 408.237C297.339 403.121 296.598 397.89 296.391 392.625L296.629 390.894C296.448 390.502 296.366 390.071 296.391 389.64C296.391 389.392 296.719 389.14 297.376 388.896L297.856 389.161C304.299 388.61 307.52 388.113 307.52 387.669L307.28 387.162V386.683C307.831 386.583 308.34 386.324 308.745 385.938C308.589 385.721 308.505 385.46 308.505 385.192C308.505 384.924 308.589 384.664 308.745 384.446C308.745 383.293 308.257 382.715 307.28 382.714V382.954L306.028 382.714L304.803 382.954C303.835 382.663 302.833 382.502 301.822 382.475H297.11L296.63 382.714C295.636 382.413 295.139 381.916 295.14 381.223C295.51 378.683 295.678 376.117 295.64 373.55L295.88 372.059C295.72 372.059 295.64 371.81 295.64 371.312V369.581C300.362 369.914 302.918 370.083 303.309 370.086H303.547C303.547 369.057 304.541 367.574 306.53 365.637C306.53 364.802 306.282 364.305 305.785 364.145H303.31L302.058 363.878C302.058 364.057 301.818 364.145 301.34 364.145H300.833C300.143 364.151 299.464 363.976 298.863 363.638V363.878L297.611 363.638H296.625L295.135 363.878C294.174 363.593 293.181 363.432 292.179 363.399L290.928 363.638C290.895 363.643 290.862 363.64 290.831 363.629C290.8 363.619 290.772 363.602 290.748 363.578C290.725 363.555 290.708 363.527 290.697 363.496C290.687 363.465 290.683 363.432 290.688 363.399C290.167 363.409 289.649 363.302 289.175 363.085C288.701 362.868 288.281 362.548 287.947 362.147L286.482 363.159C286.198 363.159 286.029 362.99 285.982 362.654C285.857 362.654 285.359 362.734 284.489 362.894L283.266 362.654C283.266 362.987 282.769 363.156 281.774 363.159C279.999 364.083 279.093 364.909 279.058 365.637L279.298 367.368C279.068 368.09 278.9 368.831 278.793 369.581C278.822 369.847 278.913 370.102 279.058 370.326L278.313 373.309C278.313 373.398 278.393 374.473 278.553 376.534C278.496 376.975 278.331 377.396 278.073 377.758C278.106 377.753 278.139 377.756 278.17 377.767C278.201 377.777 278.23 377.795 278.253 377.818C278.276 377.841 278.294 377.87 278.304 377.901C278.315 377.932 278.318 377.965 278.313 377.998V378.745L278.073 379.25H278.313C277.98 381.383 277.811 383.539 277.808 385.698V389.398L278.073 389.903C277.896 389.903 277.727 390.152 277.568 390.65C277.595 391.176 277.77 391.684 278.073 392.114C278.043 392.38 277.953 392.636 277.808 392.861C278.196 394.407 278.446 395.985 278.553 397.576C278.421 397.804 278.339 398.058 278.313 398.321C278.721 398.321 279.129 400.301 279.538 404.262C279.406 404.491 279.324 404.746 279.298 405.009C279.843 407.785 280.172 410.599 280.283 413.426L279.805 413.666C279.965 415.122 280.045 415.948 280.045 416.144C280.057 416.76 279.88 417.364 279.538 417.876C279.78 418.419 279.872 419.017 279.805 419.608C280.564 421.106 281.145 422.688 281.535 424.322H282.76C283.625 424.62 284.341 425.241 284.76 426.054L285.238 425.814C287.438 428.461 289.505 429.785 291.438 429.784C291.438 429.605 291.518 429.517 291.678 429.517L292.663 430.262H293.168L294.659 430.023C294.88 430.151 295.125 430.233 295.379 430.262C296.068 430.215 296.744 430.053 297.379 429.783C297.642 429.809 297.896 429.891 298.124 430.023L305.553 429.516C307.247 430.076 308.983 430.494 310.746 430.768H310.984L312.475 429.036C312.48 428.684 312.397 428.336 312.235 428.024C312.399 427.722 312.482 427.383 312.475 427.039V426.054C312.403 425.722 311.984 425.397 311.222 425.074Z" fill="white"/>
<path d="M358.324 422.356C357.434 421.158 356.757 419.815 356.324 418.386C353.713 415.159 350.903 412.098 347.91 409.222C346.188 406.079 345.203 404.507 344.955 404.507H344.688V405.014H344.448C341.857 400.681 339.461 398.123 337.259 397.341C337.737 396.506 338.234 396.089 338.751 396.089C342.351 393.622 344.579 391.722 345.434 390.389C348.415 387.299 349.907 383.995 349.908 380.478V379.012C349.908 377.041 348.834 374.067 346.685 370.088C346.586 369.125 346.265 368.199 345.748 367.38C345.231 366.562 344.531 365.875 343.704 365.373C341.557 365.053 340.483 364.396 340.483 363.402H339.736C339.07 363.274 338.412 363.106 337.766 362.897H335.796C333.968 362.846 332.145 362.685 330.337 362.417C329.368 362.534 328.439 362.871 327.621 363.402L326.638 363.162C326.265 363.209 325.919 363.378 325.651 363.641H324.91L324.405 363.402C324.41 363.434 324.407 363.467 324.396 363.498C324.386 363.53 324.369 363.558 324.346 363.581C324.323 363.604 324.294 363.622 324.263 363.632C324.232 363.642 324.199 363.646 324.167 363.641H323.42C323.083 363.641 322.914 363.393 322.913 362.897H322.168L320.943 362.657C319.488 364.495 318.394 366.592 317.72 368.837C318.057 371.304 318.306 374.278 318.467 377.761C318.434 377.756 318.401 377.759 318.37 377.77C318.339 377.78 318.31 377.798 318.287 377.821C318.264 377.844 318.246 377.873 318.236 377.904C318.225 377.935 318.222 377.968 318.227 378.001L318.467 379.013C318.495 379.436 318.412 379.858 318.227 380.239C318.371 380.977 318.452 381.726 318.467 382.478V385.194L318.227 386.446C318.547 386.446 318.707 389.332 318.707 395.105V398.568L318.947 399.82C318.914 399.815 318.881 399.818 318.85 399.829C318.819 399.839 318.79 399.857 318.767 399.88C318.744 399.903 318.726 399.932 318.716 399.963C318.705 399.994 318.702 400.027 318.707 400.06L318.947 401.284L318.707 401.791C318.74 401.786 318.773 401.789 318.804 401.8C318.835 401.81 318.864 401.828 318.887 401.851C318.91 401.874 318.928 401.903 318.938 401.934C318.949 401.965 318.952 401.998 318.947 402.031V406.746L319.214 407.226H318.947C318.989 410.958 319.238 414.684 319.692 418.388C319.551 419.288 319.47 420.196 319.452 421.106L319.692 422.358C319.659 422.353 319.626 422.356 319.595 422.367C319.564 422.377 319.535 422.395 319.512 422.418C319.489 422.441 319.471 422.47 319.461 422.501C319.45 422.532 319.447 422.565 319.452 422.598C319.452 423.362 320.029 424.934 321.183 427.313C321.683 427.046 321.928 426.798 321.928 426.566C323.827 427.525 324.981 428.68 325.389 430.031C325.566 430.031 325.656 429.951 325.656 429.791C326.877 429.806 328.072 430.146 329.119 430.776L329.597 430.509C329.597 430.686 329.845 430.855 330.342 431.016C330.891 431.016 331.31 430.606 331.594 429.79L332.819 430.03L333.804 429.523C334.229 428.084 334.646 427.258 335.056 427.045C335.12 426.216 335.469 425.435 336.043 424.834C335.764 423.689 335.594 422.521 335.536 421.344L335.803 420.119C335.464 417.224 335.295 415.49 335.296 414.919C335.322 414.656 335.404 414.402 335.536 414.174L335.296 412.682V410.951C335.296 410.116 335.545 409.699 336.043 409.699V409.459C335.384 409.459 335.055 408.136 335.056 405.491V402.773C335.467 402.998 335.817 403.319 336.077 403.708C336.336 404.098 336.497 404.545 336.546 405.011C338.855 407.211 340.009 408.444 340.009 408.711C339.979 408.977 339.888 409.233 339.742 409.458V409.698C339.919 409.698 340.009 409.618 340.009 409.458H340.249C342.379 412.567 343.701 414.218 344.215 414.413C344.5 415.532 346.48 417.929 350.154 421.606C351.395 421.606 353.542 423.089 356.597 426.055C356.597 426.463 357.334 426.96 358.807 427.547H361.043V426.8C359.89 425.576 358.897 424.422 358.062 423.337L358.324 422.356ZM334.81 392.864C334.81 392.597 334.641 392.437 334.303 392.384L333.32 387.669V387.43C333.313 387.086 333.396 386.746 333.56 386.443C333.371 383.384 332.706 380.373 331.589 377.519C331.341 372.404 330.924 369.846 330.337 369.846C330.332 369.494 330.414 369.146 330.577 368.834L329.114 366.863V366.623C329.379 366.594 329.634 366.502 329.857 366.356C330.957 366.91 332.12 367.33 333.32 367.608C333.408 367.608 334.313 367.44 336.036 367.103C337.356 367.68 338.476 368.634 339.256 369.846C341.031 369.846 342.762 372.979 344.449 379.246C344.423 379.509 344.341 379.764 344.209 379.993L344.449 380.472L343.969 382.203C343.994 382.466 344.076 382.721 344.209 382.95L343.226 385.428C340.082 389.391 337.277 391.869 334.81 392.864Z" fill="white"/>
<path d="M422.734 427.044C422.763 426.382 422.842 425.723 422.972 425.073C422.972 424.149 421.322 420.268 418.021 413.43C417.524 410.785 417.026 409.462 416.529 409.462C413.648 403.135 410.338 397.011 406.623 391.134L401.672 379.734C399.009 371.653 396.781 367.612 394.988 367.612C393.96 365.899 392.624 364.391 391.048 363.163L389.796 363.403C388.996 362.568 388.499 362.151 388.304 362.151L387.824 362.418L384.604 361.911C384.291 362.255 384.112 362.699 384.097 363.163L383.111 362.658L381.888 362.898C381.207 362.806 380.537 362.645 379.888 362.418L378.663 363.403C378.69 363.934 378.855 364.448 379.143 364.894C378.011 367.728 377.024 370.618 376.187 373.553L376.427 374.06C376.434 374.404 376.351 374.743 376.187 375.045C375.975 378.668 375.15 380.48 373.711 380.479V380.746C373.702 380.811 373.708 380.878 373.728 380.94C373.749 381.003 373.784 381.06 373.831 381.106C373.877 381.153 373.934 381.188 373.997 381.209C374.059 381.23 374.126 381.236 374.191 381.226C373.991 382.912 373.399 384.527 372.461 385.941C372.331 387.25 371.913 388.514 371.235 389.641V390.148L371.475 390.655C369.896 397.422 368.91 400.805 368.519 400.804C368.514 400.837 368.517 400.87 368.528 400.901C368.538 400.932 368.556 400.961 368.579 400.984C368.602 401.007 368.631 401.025 368.662 401.035C368.693 401.046 368.726 401.049 368.759 401.044C367.978 406.337 367.073 408.983 366.044 408.982C366.034 409.047 366.04 409.114 366.061 409.176C366.081 409.238 366.116 409.295 366.163 409.342C366.209 409.388 366.266 409.424 366.328 409.444C366.39 409.465 366.457 409.471 366.522 409.462H366.789C366.789 409.799 366.7 409.967 366.522 409.967C365.707 415.561 364.881 418.776 364.046 419.613C364.082 419.608 364.119 419.611 364.154 419.622C364.189 419.633 364.22 419.653 364.246 419.678C364.272 419.704 364.292 419.736 364.303 419.77C364.315 419.805 364.318 419.842 364.313 419.878L363.806 420.625V420.863C363.806 421.36 364.135 421.609 364.792 421.61V422.595C365.129 424.086 365.626 424.832 366.282 424.833C366.282 424.654 366.362 424.566 366.522 424.566H367.029C367.225 424.566 367.802 425.233 368.759 426.566L369.266 426.301H369.506C369.773 427.454 370.181 428.031 370.731 428.032L371.236 427.792C371.573 427.792 372.23 428.209 373.207 429.044H373.707L375.2 428.299C375.518 428.299 375.678 428.549 375.678 429.044H376.183C376.503 429.044 376.663 428.875 376.663 428.539C376.926 428.565 377.18 428.647 377.408 428.779C379.307 428.779 380.55 427.216 381.136 424.089C382.13 422.349 383.532 417.394 385.342 409.224L385.822 409.464L386.329 409.224C386.08 408.724 385.829 408.479 385.582 408.479C385.66 407.472 385.83 406.473 386.089 405.496C386.089 404.341 387.322 403.763 389.789 403.762C393.888 404.261 396.444 404.51 397.457 404.509C397.457 404.012 397.795 403.683 398.47 403.524H398.71C399.598 405.016 400.255 405.762 400.68 405.762V406.987L401.93 408.479L401.425 409.224V409.704L403.425 411.195V411.942C403.38 412.298 403.451 412.659 403.628 412.971C403.806 413.283 404.079 413.53 404.408 413.673C404.909 415.462 405.569 417.202 406.379 418.873C406.522 419.866 406.937 420.364 407.631 420.364V421.111C408.288 423.259 408.945 424.333 409.601 424.334C409.601 426.341 410.834 428.162 413.301 429.796C413.301 430.417 414.952 431.154 418.254 432.007C419.085 431.779 419.799 431.246 420.254 430.515C421.407 430.195 421.983 429.867 421.984 429.53H422.462L422.967 429.797C422.992 429.534 423.074 429.279 423.207 429.05H422.967L423.207 427.798V427.559C423.21 427.267 423.052 427.097 422.734 427.044ZM396.002 398.325C395.492 398.281 394.979 398.363 394.509 398.565L390.063 398.06L388.813 398.325C388.588 398.181 388.332 398.09 388.066 398.06C388.297 394.969 388.794 393.235 389.559 392.86C389.533 392.597 389.451 392.342 389.319 392.113L390.542 386.174H390.782C392.096 387.434 393.17 389.752 394.005 393.127C394.4 394.793 395.076 396.378 396.005 397.816L396.002 398.325Z" fill="white"/>
<path d="M467.253 421.344C467.43 421.344 467.679 420.855 468 419.878C468 419.274 467.591 418.777 466.774 418.386L467.521 415.403C466.704 413.43 466.206 412.444 466.029 412.445C466.473 411.67 466.804 410.835 467.014 409.967V408.236C466.765 407.736 466.514 407.491 466.267 407.491L466.774 402.776C466.614 402.776 466.534 402.527 466.534 402.029V401.55C466.526 400.854 466.691 400.167 467.014 399.55C466.684 398.09 466.523 396.598 466.534 395.101C466.509 394.67 466.592 394.24 466.774 393.849L466.534 392.383V389.397L466.267 386.439H466.534L467.014 386.679L467.761 385.694L467.014 382.471V380.739C467.086 379.313 466.652 377.908 465.789 376.771C465.789 373.574 462.647 369.693 456.363 365.128C454.23 364.632 453.165 364.135 453.168 363.636H452.661L446.725 362.145H445.232C444.563 362.782 443.679 363.143 442.756 363.157C441.443 363.636 440.787 364.044 440.786 364.383H440.039L439.296 363.876H439.056L438.309 364.383H437.324V363.397H437.059L436.579 363.636L436.819 364.143V364.383H436.072L435.089 363.398H434.849V363.877C433.356 364.287 432.613 364.704 432.613 365.129V365.369C433.233 366.046 433.583 366.928 433.596 367.847C432.106 374.28 431.111 379.316 430.61 382.953L430.875 384.205C430.542 385.308 430.045 390.175 429.385 398.805C429.545 400.865 429.625 401.939 429.625 402.028C429.465 402.028 429.385 402.117 429.385 402.295C429.418 402.29 429.451 402.293 429.482 402.304C429.513 402.314 429.542 402.332 429.565 402.355C429.588 402.378 429.606 402.407 429.616 402.438C429.627 402.469 429.63 402.502 429.625 402.535V405.997C429.607 406.907 429.526 407.814 429.385 408.713C430.094 413.171 430.59 415.4 430.875 415.401C431.569 418.111 432.655 420.705 434.098 423.101C436.725 426.227 438.207 427.789 438.544 427.788C442.325 429.829 444.971 431.153 446.48 431.758C446.822 431.761 447.16 431.678 447.463 431.518L447.943 431.758L449.434 431.518L450.419 431.998C450.763 432.005 451.102 431.923 451.404 431.758C452.142 431.901 452.891 431.981 453.642 431.998C453.979 431.998 454.147 431.748 454.147 431.253H455.132C455.663 431.226 456.177 431.061 456.624 430.773C456.968 430.766 457.307 430.848 457.609 431.013L459.845 430.266C460.521 429.449 462.332 428.463 465.278 427.31V427.043L465.038 426.563C465.756 425.993 466.348 425.279 466.774 424.468C467.2 423.656 467.452 422.764 467.514 421.849L467.253 421.344ZM460.57 399.818C460.57 402.285 460.49 404.345 460.33 405.999C460.33 406.727 459.176 410.608 456.867 417.641C457.116 418.298 457.367 418.626 457.614 418.626C456.673 420.934 454.446 422.089 450.931 422.091H449.944C448.142 420.738 446.686 418.978 445.695 416.954C444.704 414.931 444.207 412.701 444.244 410.448L444.722 409.703V409.223C444.244 409.223 444.004 409.055 444.004 408.716V405.254C444.324 394.935 444.732 388.079 445.227 384.685L444.987 382.954C445.02 382.959 445.053 382.956 445.084 382.945C445.115 382.935 445.144 382.917 445.167 382.894C445.19 382.871 445.208 382.842 445.218 382.811C445.229 382.78 445.232 382.747 445.227 382.714H444.987C445.07 379.885 445.4 377.069 445.973 374.297L445.466 373.31L445.733 372.059L444.243 367.849V367.609H444.483C445.703 367.796 446.877 368.212 447.943 368.835C448.796 368.835 450.447 369.998 452.896 372.325C454.546 372.325 456.117 374.136 457.609 377.759C458.811 380.23 459.404 382.952 459.339 385.699C459.89 385.699 460.299 388.832 460.566 395.099C460.567 396.01 460.487 396.92 460.326 397.817C460.489 398.471 460.571 399.143 460.57 399.818Z" fill="white"/>
<path d="M370.336 351.83C370.371 352.47 371.356 353.296 373.292 354.308C373.292 355.463 374.942 356.04 378.243 356.039H380.479L380.986 355.774V356.039C383.236 355.869 385.47 355.531 387.669 355.028C387.965 355.209 388.307 355.302 388.654 355.295C389.967 355.295 390.623 354.877 390.624 354.041C392.188 353.563 393.69 352.902 395.098 352.07H395.338L395.843 352.31C395.838 352.277 395.841 352.244 395.852 352.213C395.862 352.182 395.88 352.153 395.903 352.13C395.926 352.107 395.955 352.089 395.986 352.079C396.017 352.068 396.05 352.065 396.083 352.07H396.563C396.915 352.065 397.263 352.148 397.575 352.31C398.975 352.31 400.208 351.324 401.275 349.352C401.275 348.855 400.946 348.438 400.288 348.101L401.275 346.874C401.275 346.574 400.866 346.405 400.05 346.369C399.766 346.369 399.597 346.538 399.543 346.874C399.196 346.882 398.854 346.79 398.558 346.609C398.065 346.723 397.567 346.811 397.066 346.874C396.44 346.76 395.849 346.506 395.336 346.13C395.033 346.294 394.693 346.376 394.349 346.369H392.349L389.394 346.609V346.13H390.379V345.623L387.903 345.383C384.103 345.472 382.203 345.632 382.203 345.862C374.446 346.325 370.567 346.902 370.568 347.594C370.301 348.927 369.973 349.594 369.583 349.594C369.609 349.857 369.69 350.112 369.821 350.341C369.795 350.603 369.714 350.857 369.583 351.086C369.96 351.583 370.211 351.831 370.336 351.83Z" fill="white"/>
<defs>
<linearGradient id="paint0_linear_35_865" x1="287.997" y1="557.133" x2="287.997" y2="0.99707" gradientUnits="userSpaceOnUse">
<stop stop-color="#FFBA00"/>
<stop offset="1" stop-color="#FFE400"/>
</linearGradient>
</defs>
</svg>
