<svg width="548" height="548" fill="none" xmlns="http://www.w3.org/2000/svg"><path d="M274 530c141.385 0 256-114.615 256-256S415.385 18 274 18 18 132.615 18 274s114.615 256 256 256Z" fill="#fff"/><path d="M274 546.5c150.498 0 272.5-122.002 272.5-272.5S424.498 1.5 274 1.5 1.5 123.502 1.5 274 123.502 546.5 274 546.5Z" stroke="#fff" stroke-width="3"/><path d="M275.382 453.194c95.505 0 172.927-77.351 172.927-172.768s-77.422-172.768-172.927-172.768-172.927 77.351-172.927 172.768 77.422 172.768 172.927 172.768ZM101.831 204.676l-.518.224-7.178-1.152-.657.214.106 2.237-.921 2.778-.116 1.241-.337 1.439 1.6 1.02 1.095.961.567.37.781.789 1.243.83.478.953v.955l.173.4-.84 2.1-.321-.032-.514 1.273-3.21-1.283-22.21-16.888-2.929-2.934-.124-.765.338-.247.065-.642.313-.78-.214-.9 1.308-.764 1.571-.231 1.729.214 2.666-.221 2.148.239 2.049-.231 1.819.346 1.11-.032.618.246 9.867 1.224.453.181.395-.032 7.99 1.142 1.316.527.561.509.55.411.165.542.173 1.357-.115.288.115.188.008.814.215.9-1.539.148-1.842.074Zm-15.06 2.328 1.044-3.683-7.068-.823 1.021 1.028 4.015 3.084.988.394ZM171.818 122.356l-1.453-.732-2.906-2.582-1.309-1.788-1.429-1.174-1.058-.3-1.376.176-1.177.789 4.628 6.333 1.382 2.378-.535 1.9-1.924 1.664-.246-.049-.011.22-1.03.691-1.527-.682-14.812-22.056-2.532-4.645.1-.491.318-.48-.161-.638-.123-.184 1.517-1.87 6.291-4.218 2.1-.768 1.141-.286 1.806.069 1.231.56.1.148.492-.064.258.307 2.956 2.177.456.6.95 1.015 1.149 2.109.187.835.4 1.067v.16l.1.147-.313 2.236-.3 1.216.027.835-.485 2.137-.442.3-.524 1.045 1.575.6 1.477.93.713.268.7.648 1.551 1.039.383.49 1.615 1.21 1.119.635.076.43 1.218.3.553.429 1.767-1.185.01-.22.332-.222.469.219 1.285 2.71-.289 1.633-.467.579-1.581 1.061-1.842.754-2.58-.415Zm-13.362-14.017 1.861-2.154.743-2.311.032-1.142-1.282-1.751-2.266-1.786-1.415.041-1.631.668-3.385 2.27.124.662.457.6.766 1.459 3.861 4.875 2.135-1.431ZM265.982 91.008l-.12-1.858-.017-22.718.3-3.1.011-1.992.3-.582-.018-1.15.792-.28 11.7-.324 2 .145.669.343.754.032-.155 1.375.059.885-.391.582.015.84-.781 1.07-1.719.648-2.3.126-2.043-.144-1.24.109-1.775-.15-.214.448-.015 4.473 7.532-.123 1.336.333.443.037-.688 4.04-1.137.773-3.184.583-3.994-.288-.018 4.207-.152 1.553.178 5.489 5.932-.451 2.839.175v2.392l-.217.357.017 1.018-.518.894-.835.324-9.74.735h-2.793l-.813-.826ZM402.724 108.594l-.48.479.1-.147-.492.1-.711 1.069-.011.417-.332.259.075.368-.3.443-.219.012-.1.148.357.025-.27.4-.257-.172-.344.2-.024.356-.565.848-.319.161-1.176 1.77-1.081 1.3-.808 1.217-.38.333.024-.356-.257-.172-.26-.012.186.122-.1.148-.306.063.11.232-.159.479 1.02-.334-.345.2-.27.406.321-.161-.1.466.051.246-.37.075-.073-.369-.293.443.368.4h-.639l-.2.295.073.208-.627.382-1 1.512.16.319-.467-.1.049.4-.171.258-.259-.172-1.1 1.66.075.527-.711.432-.442.664-.331.9-.454.123.209.4-.27.406-.257-.172-.737 1.107-.443-.295-.354-.023-.013-.221-.394.11.1-.626-.6.344-.553-.366-.012-.221-.38.173.294-.443-.454.123-.148-.1-.357-.024-.6-.613-.428.086-.323-1.595.469-7.024-.049-.246.28-.983.085-1.326.1-.147-.086-.431.294-.442-.148-.1.549-3.784-.026-.6.731-3.98-.565.53-.932 1.4-.171.579-.552.11.16.478-.563.85-.811.418-.146.7-.173.257-.146.541-.5.038-.833 1.254-.38.333-1.005 1.511.013.221-.6.346-.369.552-1.043 1.168.012.381-.183.037-.2.3.038.184-.3.443-.429.086.148.1-.1.147-.222.013-.663.517-1.18-.146-.7.173.2-.3-.049-.244-.454.123-1.5-.3-.075-.368-.357-.024.024-.356-.281.184-.443-.294.171-.257.344-.2-.257-.172.342-1.154 13.933-20.646 3.508-4.316.552-.271 1.094-.124.405.27.334.06.331.38.345-.037.061.307.431-.086.54.146.552-.111.285 1.412-.306.858-.106 2.48-.257.787.257.172-.329 1.535.076.688-.367 1.351.334.22-.283.025-.27.406.122.454.334.062-.638.958.184.283.111.552-.171.258.11.553-.367.075-.159.638.223.148-.393.59-.4 2.124.038.185.294-.443.148.1-.1.148-.321.32.1.33-.1.148.392.049-.1.148-.259-.012-.392.59-.1.946-.431.246-.293.442.013.221.39-.59.148.1.111.714.443-.346-.736 1.107.063.465-.173.258.086.431.3.2-.294.443.049.245-.344.037.124.455.306-.062 1.2-1.807.589-.567 1.84-2.764.244-.05-.1-.333.735-.626 1.619-2.434 2.736-3.554.538-.811 1.8-1.832.171-.257 1.45-.26.887 1.067.639.158-.2.3.257.172.344-.2.26.172-.3.443.431-.247.222.468-.011.577-.1.148-.049.393-.638.959.148.1-.171.257.049.245-.222.013-.638.959.051.245-.247.05-.638.959-.147-.1-.2.3.222.307-.638.321.235.367.344-.357-.065.127Zm-13.85 8.028-.049.392.268-.4-.219.008Zm.024-.356.147.1.123-.5-.27.4Zm.3 9.712.392.049-.184-.123-.208.074Zm.38-.333.185.122 1.2-1.805-.184-.123-.638.959-.456.123.064.466-.171.258Zm.415-1.744.27-.406-.191-.119-.079.525Zm.959-.321.3.2 1.472-2.213-.405.369-.257-.013-1.11 1.657Zm.33-2.175.061.468.307-1.019-.368.551Zm1.976-.653.895-1.585-.908 1.365.013.22Zm1.347-3.464.27-.406-.319.16.049.246Zm.467-.7.209-.073.062-.331-.271.404Zm.173.54.405.27 1.092-1.242-.049-.245-.418.308-.441.664-.3-.2-.289.445Zm.367-1.351.306-.221-.038-.184-.268.405Zm2.036-.986.405-.367-.282.184-.123.183Zm1.107.1-.171.258-.148-.1.1-.148.219-.01Zm.964-4.09.627-.381-.257-.173-.37.554Zm1.206-.051.209-.234.013.222-.222.012Zm2.071-4.314.244-.049.1-.147-.247.049-.097.147ZM453.439 215.961l.222-.518 6-4.1.33-.608-1.619-1.547-1.247-2.649-.773-.979-.752-1.284-1.859.36-1.457.056-.667.122-1.11-.033-1.474.254-1-.363-.657-.692-.4-.173-.838-2.1.255-.2-.509-1.275 3.211-1.278 27.744-3.043 4.148.112.616.469-.076.411.394.511.312.781.773.5-.423 1.456-.979 1.248-1.4 1.034-1.781 2-1.721 1.305-1.328 1.577-1.555 1-.784.787-.616.247-8 5.9-.452.18-.264.3-6.58 4.669-1.318.525-.758.016-.682.081-.494-.281-1.062-.864-.113-.288-.213-.057-.569-.585-.773-.5 1.014-1.166 1.284-1.318Zm9.314-12.049 1.781 3.388 5.691-4.267-1.448-.043-5.036.528-.988.394Z" fill="#FFD400"/><path d="M273.011 458.939c97.379 0 176.32-78.869 176.32-176.158 0-97.29-78.941-176.158-176.32-176.158-97.379 0-176.32 78.868-176.32 176.158 0 97.289 78.941 176.158 176.32 176.158Z" stroke="#FFD300" stroke-width="1.066" stroke-miterlimit="10"/><path d="M96.691 282.781c0-97.289 78.942-176.158 176.32-176.158s176.32 78.869 176.32 176.158c0 97.289-78.941 176.158-176.32 176.158-97.379 0-176.32-78.869-176.32-176.158ZM93.263 220l-22.209-16.888-2.93-2.933-.124-.769.338-.247.065-.642.314-.78-.214-.9 1.308-.765 1.571-.231 1.729.214 2.667-.221 2.147.239 2.049-.231 1.819.346 1.11-.032.618.247 9.867 1.224.452.182.4-.032 7.99 1.142 1.317.527.56.508.551.411.166.542.172 1.357-.113.289.113.188.007.814.216.9-1.539.148-1.843.074-.518.223-7.177-1.152-.657.214.106 2.237-.921 2.778-.116 1.24-.338 1.44 1.6 1.02 1.1.961.567.371.781.789 1.243.83.478.954v.954l.173.4-.84 2.1-.32-.032-.51 1.273L93.263 220Zm-11.494-16.468 4.015 3.084.987.394 1.044-3.684-7.068-.823 1.022 1.029Zm372.1 17.216-1.064-.863-.113-.289-.212-.057-.568-.586-.773-.5 1.014-1.166 1.285-1.322.221-.518 6-4.1.33-.607-1.619-1.548-1.247-2.649-.773-.979-.748-1.275-1.859.36-1.456.056-.668.122-1.109-.033-1.474.253-1-.363-.657-.692-.4-.173-.838-2.1.256-.2-.509-1.275 3.211-1.279 27.743-3.043 4.149.113.615.469-.075.411.393.51.313.781.773.5-.422 1.455-.98 1.248-1.4 1.034-1.78 2-1.721 1.3-1.327 1.577-1.555 1-.784.788-.617.247-8 5.9-.452.181-.264.3-6.58 4.669-1.318.525-.758.016-.682.081-.501-.279Zm9.87-17.228-.987.394 1.781 3.389 5.691-4.268-1.449-.043-5.036.528ZM161.848 129.2l-14.813-22.055-2.535-4.645.1-.491.318-.48-.161-.639-.123-.183 1.517-1.87 6.291-4.218 2.1-.768 1.141-.286 1.805.069 1.231.56.1.149.491-.064.258.307 2.956 2.177.456.6.95 1.015 1.148 2.109.188.834.4 1.067v.159l.1.147-.313 2.237-.3 1.216.027.834-.486 2.138-.442.3-.524 1.045 1.575.6 1.477.93.714.268.7.648 1.552 1.039.383.491 1.615 1.21 1.119.635.076.43 1.218.3.553.428 1.768-1.184.009-.22.332-.222.468.22 1.286 2.71-.289 1.633-.466.579-1.581 1.062-1.842.753-2.569-.41-1.453-.732-2.906-2.582-1.31-1.788-1.428-1.174-1.058-.3-1.376.176-1.176.789 4.628 6.333 1.382 2.378-.535 1.9-1.924 1.664-.246-.049-.011.221-1.03.691-1.535-.691Zm-5.719-29.966-1.632.669-3.385 2.27.124.661.457.6.767 1.458 3.86 4.875 2.135-1.43 1.861-2.155.742-2.31.032-1.143-1.282-1.751-2.266-1.786-1.413.042Zm231.263 29.692-.356-.023-.013-.221-.4.11.1-.626-.6.345-.554-.366-.012-.221-.38.173.292-.443-.453.123-.149-.1-.357-.024-.6-.613-.428.086-.323-1.595.469-7.024-.049-.246.28-.983.085-1.326.1-.148-.086-.43.293-.442-.148-.1.549-3.784-.026-.6.731-3.981-.565.53-.931 1.4-.172.579-.552.111.16.478-.562.85-.811.418-.147.7-.172.257-.147.541-.505.038-.832 1.254-.382.333-1 1.51.014.221-.6.346-.37.552-1.043 1.168.013.382-.182.037-.2.3.038.184-.3.443-.427.086.147.1-.1.147-.221.013-.662.518-1.18-.146-.7.173.2-.3-.049-.244-.454.122-1.5-.3-.075-.368-.356-.023.023-.356-.282.184-.442-.294.169-.257.345-.2-.257-.172.342-1.154 13.954-20.662 3.509-4.316.552-.272 1.094-.124.406.27.334.061.33.38.345-.037.061.307.431-.086.539.146.554-.112.285 1.413-.306.858-.106 2.48-.256.787.256.172-.328 1.535.076.688-.367 1.351.334.221-.283.024-.271.406.122.454.335.062-.637.958.184.283.111.552-.171.258.111.553-.367.075-.159.638.223.148-.394.589-.4 2.124.039.184.293-.443.149.1-.1.148-.322.32.1.33-.1.148.393.049-.1.148-.26-.012-.391.59-.094.946-.432.247-.293.442.013.221.391-.59.147.1.112.715.442-.346-.734 1.106.062.465-.173.258.086.431.3.2-.292.443.049.245-.344.037.124.455.306-.061 1.2-1.806.589-.567 1.84-2.765.244-.049-.1-.332.734-.626 1.62-2.435 2.735-3.553.538-.811 1.805-1.832.17-.257 1.451-.26.887 1.067.638.158-.2.3.257.172.344-.2.26.171-.3.443.431-.247.222.467-.012.577-.1.148-.049.393-.639.958.149.1-.171.257.048.245-.221.013-.636.958.05.246-.248.049-.637.958-.148-.1-.2.3.221.306-.638.321.234.367.345-.357-.1.148-.48.48.1-.148-.491.1-.711 1.069-.012.417-.331.259.075.368-.3.443-.218.012-.1.148.357.025-.27.4-.257-.172-.344.2-.024.356-.565.848-.319.161-1.175 1.769-1.082 1.3-.807 1.218-.381.332.024-.356-.258-.172-.26-.012.185.122-.1.148-.305.063.11.232-.158.479 1.02-.333-.345.2-.27.406.32-.16-.1.466.051.246-.37.075-.075-.369-.292.443.368.4h-.639l-.2.294.073.209-.626.383-1 1.511.159.319-.466-.1.049.405-.171.258-.26-.172-1.1 1.66.075.527-.712.432-.442.664-.33.9-.455.123.208.405-.27.406-.257-.172-.737 1.107-.432-.309Zm1.8-2.949.391.049-.184-.123-.207.074Zm.946-1.18-.456.123.064.466-.174.258.185.122 1.2-1.805-.184-.123-.635.959Zm-.15-.9.269-.406-.185-.122-.084.528Zm.958-.32.3.2 1.471-2.212-.4.369-.257-.013-1.114 1.656Zm.329-2.175.06.468.307-1.02-.367.552Zm1.963-.873.013.22.9-1.585-.913 1.365Zm2-3.406.406.27 1.091-1.242-.048-.246-.419.308-.441.664-.3-.2-.289.446Zm-.687-.085.048.247.271-.407-.319.16Zm-5.679-.42-.049.392.268-.4-.219.008Zm6.193-.035.21-.074.061-.331-.271.405Zm-6.169-.321.146.1.124-.5-.27.4Zm6.709-.49.307-.221-.038-.184-.269.405Zm2.16-1.17-.123.184.406-.367-.283.183Zm1.947-3.81.627-.381-.256-.173-.371.554Zm3.374-4.511-.1.147.244-.049.1-.147-.244.049Zm-4.657 8.762.1-.148.221-.013-.171.258-.15-.097Zm2.7-4.536.014.222-.222.012.208-.234Zm-135.147-19.5-.121-1.858-.018-22.72.3-3.1.012-1.992.3-.581-.019-1.15.792-.28 11.7-.324 2 .145.669.344.753.032-.153 1.374.059.886-.391.581.014.84-.78 1.077-1.719.648-2.3.126-2.043-.143-1.239.109-1.776-.15-.213.448-.016 4.472 7.532-.122 1.336.332.443.037-.688 4.04-1.138.772-3.184.583-3.992-.288-.02 4.207-.152 1.553.179 5.488 5.933-.451 2.839.175v2.39l-.217.359.017 1.018-.518.894-.835.324-9.741.735h-2.793l-.812-.83Z" fill="url(#a)"/><path d="M204.33 229.363c-3.157 0-6.459-2.073-8.324-6.651-.789-1.574-1.794-3.075-3.014-2.217-.933.786-1 2.073-.574 3.433 2.368 6.722 7.608 10.154 13.277 10.154 10.694 0 23.468-10.154 25.55-23.243.143-1.358.215-2.932.215-4.148 0-19.738-17.3-39.692-36.1-39.692a25.993 25.993 0 0 0-6.962.93h.071c-16.075 2.646-31 17.88-37.39 35.4-2.656 7.366-4.091 14.16-4.091 19.381a36.5 36.5 0 0 0 1.579 9.226c5.024 14.374 21.243 17.665 36.816 20.239l1.865.285c4.091.716 9.473 1.717 13.493 2.646 4.306 1.216 8.109 3.218 9.545 6.151.341.989.51 2.029.5 3.075 0 7.509-11.985 14.089-19.162 17.021a51.263 51.263 0 0 1-15.861 2.717c-11.554 0-21.889-4.792-24.831-15.734a11.91 11.91 0 0 1-.718-3.5 5.73 5.73 0 0 1 .933-3l.5-1c.215-1 0-1.574-.646-1.574-4.306 0-6.6 8.869-6.962 12.515-1.077 15.59 17.081 27.177 34.808 27.177a40.012 40.012 0 0 0 15-2.861c12.058-5.293 22.248-16.592 22.248-29.251a24.353 24.353 0 0 0-1.077-7.152c-2.224-6.794-7.536-11.443-13.277-14.16a71.563 71.563 0 0 0-8.468-3.5l-1.579-.572c-9.042-3.218-19.521-7.295-23.539-17.307a34.896 34.896 0 0 1-2.583-14.3c0-1.216.071-2.431.143-3.648.43-16.09 7.392-32.54 23.324-32.4 14.5.072 27.846 19.1 28.635 35.4h-.071c.005 11.721-6.813 20.16-13.273 20.16ZM402.99 263.546l-.071.143c-2.369 4.863-6.819 9.3-11.628 10.513-.66.155-1.332.25-2.009.285a7.594 7.594 0 0 1-4.736-1.931l2.009-4.077 2.009-4.219.575-1.144-.072.071.79-1.5c3.3-7.294 6.817-16.306 6.817-22.456 0-4.077-1.579-6.937-5.669-7.224-9.116-.643-15.071 14.3-15.071 27.178 0 5.721 1.148 11.084 3.8 14.445l-1.364 2.719c-2.8 5.721-6.817 13.587-11.842 14.661-1.865.429-3.372-1-3.086-5.149.215-5.937 2.441-15.376 4.091-22.671a90.883 90.883 0 0 0 1.938-9.369c.359-4.505-.718-8.224-5.455-8.224-3.23 0-4.449.644-4.592 2.5 0 0 .071.572.144 1.072.178.774.25 1.568.215 2.361-.431 5.792-1.866 9.726-3.8 15.518l.071-.071c-4.091 6.866-14.783 24.888-18.588 24.888-.86 0-1-1.788-.933-3.861.645-5.721 3.8-16.449 5.526-21.885a50.276 50.276 0 0 0 2.871-11.443c.286-3.718-.646-7.366-3.373-9.225a11.889 11.889 0 0 0-4.951-1.216c-1.436 0-2.512.429-2.656 1.645a2.94 2.94 0 0 0 .144 1.144v-.071a9.59 9.59 0 0 1 .286 3.218c-.269 2.959-1.559 7.761-3.082 13.257l-1.371 2.477c-3.66 7.081-7.608 14.374-15 15.877a62.69 62.69 0 0 0 6.889-22.457v.072c.147-1.354.219-2.715.215-4.077 0-10.513-3.875-18.738-13.2-18.738-11.411 0-14.64 10.942-15.645 21.026a10.77 10.77 0 0 0-4.521-1.073 9.214 9.214 0 0 0-7.249 3.289 37.374 37.374 0 0 0-1.846 8.917c-4.214 7.906-13.039 23.7-16.528 23.7-1.578 0-1.722-3.576-1.65-5.507.431-4.22 2.512-10.513 4.737-16.735 2.224-6.508 4.592-13.517 5.1-18.738.5-5.077-1.076-8.94-6.315-8.94-7.608 0-13.564 9.083-18.659 17.093-1.292 1.86-2.3 3.719-3.517 5.364l2.512-11.157c2.368-10.227 5.311-22.956 5.6-25.817.359-4.792-1-9.941-8.253-9.941-1.363 0-2.583.359-2.654 1.646.02.432.067.862.143 1.287.23 1.177.327 2.377.288 3.576-.288 3.362-2.656 13.3-5.239 24.244-3.23 13.589-6.818 28.679-7.393 35.33-.071 1-.144 2-.144 2.933 0 5.865 1.8 11.944 8.684 11.944 1.005 0 1.65-.215 1.65-1a3.513 3.513 0 0 0-.215-1.073 24.12 24.12 0 0 1-.574-7.081 53.11 53.11 0 0 1 3.23-13.8h-.083l1.148-2v.071c3.947-6.651 14.712-25.174 19.88-25.174.5 0 .718.358.646 1.287-.216 1.931-1.867 6.151-3.8 11.3-2.8 7.437-6.459 17.449-7.392 24.817a21.02 21.02 0 0 0-.072 2.144c0 5.65 2.153 9.727 8.756 9.727 6.855 0 14.151-11.574 19.749-22.021.216 10.044 3.716 22.092 14.27 22.092 7.679 0 14.282-5.149 19.162-12.515 6.658-.385 11.851-5.358 15.639-10.929a76.67 76.67 0 0 0-2.075 11.717c-.071 1-.144 2-.144 2.932 0 5.364 1.65 9.012 6.6 9.012 7.823 0 13.278-8.44 18.373-16.163l.86-1.358c.072 1.144 0 1.144 0 2.36-.071 7.295-.071 15.734 9.187 15.734 9.761 0 14.64-9.8 18.659-17.808a49.96 49.96 0 0 1 2.656-5.148 13.06 13.06 0 0 0 8.037 1.572c6.89-1.144 12.775-7.008 15.574-13.588-1.151-1.156-1.869-1.37-3.013-.584Zm-103.92 26.532c-5.023 0-6.674-6.58-6.674-13.659 0-1.43.071-2.933.215-4.434.144-1.574.288-3.289.575-4.792 1.005 8.725 4.951 15.448 14.5 18.309-2.662 3.003-5.389 4.577-8.62 4.577l.004-.001Zm11.555-8.582c-7.967-1.5-9.473-11.8-9.473-19.881 0-2.289.144-4.434.288-6.15.718-7.653 2.727-14.519 7.177-14.519 6.388 0 9.186 6.652 9.186 14.876a32.986 32.986 0 0 1-.144 3.719 52.775 52.775 0 0 1-7.038 21.955h.004Zm71.624-12.8-.43.858a17.437 17.437 0 0 1-.719-5.579c0-10.726 4.163-29.823 9.9-28.32 1.65.358 2.3 1.788 2.3 4.077 0 5.792-5.024 17.306-8.541 24.387-.792 1.501-1.724 3.074-2.513 4.577h.003ZM174.019 325.565c-2.383-2.209-3.575-3.46-3.575-3.754-.026-.255-1.096-1.021-3.209-2.3a1.35 1.35 0 0 0-.539.173 2.339 2.339 0 0 1-1.249-.9l-.366.192a6.193 6.193 0 0 0-2.5-1.245c-1.191.115-2.088.173-2.69.173a3.635 3.635 0 0 0-1.25-.9 2.873 2.873 0 0 0-1.422.364l-.884-.173a23.059 23.059 0 0 0-4.114 1.052c-3.894.409-5.861 1.067-5.9 1.973-.96.434-1.441.792-1.441 1.073-.002.249.064.494.192.708l-.366 4.979c.118.217.178.462.173.71-.154 2.846-.391 4.269-.711 4.27.021.192.087.375.192.537a25.565 25.565 0 0 1-.366 3.217c.113.587.17 1.183.173 1.781v1.781l.192 1.052a1.715 1.715 0 0 0-.192.9v1.78c0 1.239-.058 2.541-.173 3.906.474 3.717.833 8.588 1.077 14.614l-.192.708a8.431 8.431 0 0 0 1.441 4.807 1.43 1.43 0 0 0 .712-.173 2.899 2.899 0 0 0 1.786.71c.256.689.556 1.047.9 1.072.346-.241.52-.485.52-.728h.538c0 .357.122.536.366.537h.173l.364-.173a.14.14 0 0 0 .006.07c.008.022.02.043.037.06a.168.168 0 0 0 .06.037.164.164 0 0 0 .07.006h.365c.144-.202.331-.37.546-.493.216-.122.456-.196.704-.217h.723v.364h.366a88.03 88.03 0 0 0 8.571-6.415c3.866-3.667 6.07-6.221 6.611-7.662 2.165-3.357 3.414-6.146 3.748-8.369a24.039 24.039 0 0 0 1.249-5.515v-.708c0-1.009-.115-3.327-.345-6.952l.518-1.781a56.355 56.355 0 0 1-.889-5.148Zm-3.939 12.984a29.574 29.574 0 0 1-6.957 14.612c-3.486 3.793-5.747 5.689-6.784 5.689a31.674 31.674 0 0 0-.366-5.689c.115 0 .173-.063.173-.191a33.214 33.214 0 0 1-.346-5.689v-2.853a2.17 2.17 0 0 1 .346-1.073c-.18 0-.36-1.603-.538-4.808l.191-.707c-.154 0-.276-.358-.364-1.074l.364-2.834a.172.172 0 0 1-.144-.048.175.175 0 0 1-.041-.066.172.172 0 0 1-.006-.078l.191-1.054v-1.261l.173-.345h-.173c.021-.476.078-.95.173-1.417-.116-1.493-.173-2.387-.173-2.681 0-.101.057-.574.173-1.417l-.173-.364.173-1.072v-.881a29.159 29.159 0 0 0 4.286-.537c4.765.192 7.148.964 7.15 2.317 2.266 3.933 3.4 6.602 3.4 8.006a51.435 51.435 0 0 1-.728 5.515ZM203.807 364.021l-.345.171c-.359 0-.718-.357-1.077-1.072l-.711.363-.9-.173a.16.16 0 0 1-.043.13.177.177 0 0 1-.06.037.167.167 0 0 1-.07.006 21.56 21.56 0 0 0-4.112-1.073c-.717 0-1.077-.472-1.077-1.417v-1.072c-.474-4.698-.711-7.367-.711-8.006a55.8 55.8 0 0 1-1.595-11.223l.173-1.244a1.861 1.861 0 0 1-.173-.9c0-.178.237-.358.711-.535l.346.191c4.65-.396 6.975-.754 6.976-1.073l-.173-.364v-.344a2.065 2.065 0 0 0 1.056-.536.923.923 0 0 1 0-1.073c0-.829-.352-1.244-1.056-1.245v.173l-.9-.173-.884.173a8.274 8.274 0 0 0-2.153-.344h-3.4l-.345.171c-.718-.217-1.077-.574-1.077-1.072.269-1.826.391-3.671.365-5.516l.173-1.072c-.116 0-.173-.179-.173-.537v-1.244c3.408.241 5.253.362 5.535.363h.173c0-.74.717-1.807 2.152-3.2 0-.6-.179-.958-.538-1.073h-1.787l-.9-.192c0 .129-.173.192-.52.192h-.365a2.863 2.863 0 0 1-1.422-.364v.173l-.9-.173h-.711l-1.077.173a8.485 8.485 0 0 0-2.134-.344l-.9.171a.15.15 0 0 1-.129-.042.162.162 0 0 1-.038-.059.167.167 0 0 1-.006-.07 2.526 2.526 0 0 1-1.98-.9l-1.057.728c-.2 0-.327-.122-.365-.363-.091 0-.45.058-1.077.173l-.884-.173c0 .241-.359.362-1.077.363-1.281.667-1.935 1.26-1.961 1.781l.173 1.244a9.74 9.74 0 0 0-.364 1.59c.021.191.086.375.191.536l-.538 2.144c0 .067.057.839.173 2.318-.041.317-.16.62-.346.88a.167.167 0 0 1 .07.006c.022.008.043.02.06.037a.153.153 0 0 1 .036.06c.008.023.01.046.007.07v.537l-.173.363h.173a30.099 30.099 0 0 0-.365 4.635v2.662l.191.363c-.128 0-.25.179-.364.537.019.378.145.743.364 1.052a1.248 1.248 0 0 1-.191.537c.28 1.112.46 2.246.538 3.39a1.337 1.337 0 0 0-.173.536c.294 0 .588 1.424.884 4.271a1.31 1.31 0 0 0-.173.537c.393 1.995.631 4.019.711 6.051l-.345.173c.115 1.047.173 1.64.173 1.781.008.443-.119.877-.366 1.245.174.39.241.82.192 1.245a15.393 15.393 0 0 1 1.249 3.389h.884c.623.214 1.139.66 1.442 1.245l.345-.173c1.588 1.903 3.081 2.854 4.478 2.854 0-.129.058-.192.173-.192l.711.536h.364l1.077-.171c.16.092.337.15.52.171a4.48 4.48 0 0 0 1.441-.344c.189.019.373.078.538.173l5.362-.364a23.51 23.51 0 0 0 3.748.9h.173l1.075-1.245a1.526 1.526 0 0 0-.173-.728c.118-.217.178-.461.173-.708v-.708c-.059-.241-.364-.477-.915-.706ZM263.671 320.03l.173-.344a1.5 1.5 0 0 0-1.077-.536c-.782.089-1.435.74-1.959 1.953 0 .192-.955 3.339-2.864 9.442a125.569 125.569 0 0 1-4.114 12.1c-1.46 5.03-2.472 7.941-3.036 8.733h-.173v-.537a151.948 151.948 0 0 1-5.531-15.126l-1.249-4.29.172-.345v-.175a1.442 1.442 0 0 1-.711-1.244 11.582 11.582 0 0 1-1.787-4.462c0-2.247-1.371-3.849-4.112-4.806v-.173l.345-.536h-.173l-.538.344h-.347c-.245 0-.366-.173-.366-.517h-.173l-.365.173.172.344v.364c-.704 0-1.056-.294-1.056-.881l-.9.173-.884-.173c-.18.473-.359.709-.538.708-.295 0-.475-.236-.539-.708h-.173a6.315 6.315 0 0 1-1.786.881c0-.115-.065-.173-.194-.173h-.711c-.242.052-.479.346-.711.881a7.626 7.626 0 0 1 1.077 3.217c-.128 0-.192.058-.192.173.139.525.204 1.066.192 1.609a40.017 40.017 0 0 1 1.25 4.616l-.173.9c.115.804.288 1.219.518 1.244.09 1.81.392 3.603.9 5.343 1.066 5.221 1.841 7.832 2.325 7.833a86.046 86.046 0 0 0 2.671 8.714c.6 2.924 1.016 4.705 1.25 5.343a1.332 1.332 0 0 1-.173.535l.173.71a6.762 6.762 0 0 1 1.441 2.144 2.203 2.203 0 0 1 2.133 1.424l.366-.173h.346c.358.089.658.504.9 1.244 1.076.179 1.614.594 1.614 1.245h.345c.243 0 .365-.115.366-.345.318.041.622.16.884.345 0-.192.121-.306.366-.345h.365l.518.345h.366l1.422-.881h.539l.365.173c0-.153.416-.332 1.25-.537l.366.173a13.223 13.223 0 0 0 1.594-2.662l-.345-2.144.539-2.835c2.728-9.346 4.395-14.331 5-14.956a40.701 40.701 0 0 1 2.325-8.369c0-1.788.352-2.682 1.056-2.681v-.71h-.345c.008-.42.066-.838.173-1.244a39.79 39.79 0 0 0 1.614-6.052c0-.356-.122-.536-.366-.536.197-.784.435-1.558.711-2.318v-.537l-.518-.708-.003-.367ZM292.844 364.021l-.345.171c-.36 0-.719-.357-1.076-1.072l-.711.363-.9-.173a.153.153 0 0 1-.007.07.15.15 0 0 1-.096.097.167.167 0 0 1-.07.006 21.58 21.58 0 0 0-4.114-1.073c-.717 0-1.075-.472-1.075-1.417v-1.072c-.474-4.698-.711-7.367-.711-8.006a55.8 55.8 0 0 1-1.595-11.223l.172-1.244a1.872 1.872 0 0 1-.172-.9c0-.178.237-.358.711-.535l.346.191c4.65-.396 6.975-.754 6.975-1.073l-.173-.364v-.344a2.072 2.072 0 0 0 1.057-.536.916.916 0 0 1 0-1.073c0-.829-.353-1.244-1.057-1.245v.173l-.9-.173-.884.173a8.266 8.266 0 0 0-2.152-.344h-3.4l-.346.171c-.718-.217-1.076-.574-1.075-1.072.269-1.826.391-3.671.365-5.516l.173-1.072c-.116 0-.173-.179-.173-.537v-1.244c3.408.241 5.253.362 5.535.363h.172c0-.74.717-1.807 2.153-3.2 0-.6-.18-.958-.538-1.073h-1.787l-.9-.192c0 .129-.173.192-.518.192h-.366a2.863 2.863 0 0 1-1.422-.364v.173l-.9-.173h-.712l-1.075.173a8.485 8.485 0 0 0-2.134-.344l-.9.171a.15.15 0 0 1-.129-.042.162.162 0 0 1-.038-.059.167.167 0 0 1-.006-.07 2.523 2.523 0 0 1-1.979-.9l-1.057.728c-.2 0-.327-.122-.365-.363-.091 0-.45.058-1.078.173l-.883-.173c0 .241-.359.362-1.077.363-1.282.667-1.935 1.26-1.961 1.781l.173 1.244a9.742 9.742 0 0 0-.365 1.59c.021.191.086.375.191.536l-.555 2.143c0 .067.057.839.173 2.318-.041.317-.16.62-.346.88a.152.152 0 0 1 .166.103c.008.023.01.046.007.07v.537l-.173.363h.173a30.223 30.223 0 0 0-.364 4.635v2.662l.191.363c-.128 0-.25.179-.365.537.019.378.146.743.365 1.052a1.261 1.261 0 0 1-.191.537c.28 1.112.46 2.246.538 3.39a1.306 1.306 0 0 0-.173.536c.294 0 .589 1.424.884 4.271a1.31 1.31 0 0 0-.173.537c.393 1.996.631 4.019.711 6.051l-.345.173c.115 1.047.173 1.64.173 1.781a2.17 2.17 0 0 1-.366 1.245c.174.39.241.82.192 1.245a15.393 15.393 0 0 1 1.249 3.389h.884c.623.214 1.139.66 1.442 1.245l.345-.173c1.588 1.903 3.08 2.854 4.478 2.854 0-.129.058-.192.173-.192l.711.536h.365l1.076-.171c.16.092.337.15.52.171a4.48 4.48 0 0 0 1.441-.344c.189.019.373.078.538.173l5.362-.364a23.51 23.51 0 0 0 3.748.9h.172l1.077-1.245a1.538 1.538 0 0 0-.173-.728c.118-.217.178-.461.173-.708v-.708c-.052-.24-.358-.476-.904-.705ZM326.84 362.067a9.293 9.293 0 0 1-1.441-2.854 71.556 71.556 0 0 0-6.073-6.588c-1.243-2.259-1.954-3.389-2.133-3.39h-.192v.364h-.173c-1.87-3.115-3.6-4.954-5.189-5.516.345-.6.704-.9 1.076-.9 2.6-1.775 4.207-3.141 4.823-4.1a10.159 10.159 0 0 0 2.33-3.238 10.16 10.16 0 0 0 .9-3.887v-1.053c0-1.417-.776-3.555-2.326-6.415a4.507 4.507 0 0 0-2.152-3.39c-1.55-.23-2.325-.702-2.325-1.417h-.539a11.995 11.995 0 0 1-1.422-.363h-1.422a33.32 33.32 0 0 1-3.94-.345 4.617 4.617 0 0 0-1.961.708l-.71-.173a1.24 1.24 0 0 0-.712.344h-.539l-.365-.171a.147.147 0 0 1-.007.069.14.14 0 0 1-.037.059.152.152 0 0 1-.128.043h-.539c-.244 0-.366-.178-.366-.535h-.538l-.884-.173a13.304 13.304 0 0 0-2.326 4.442c.243 1.775.423 3.913.539 6.415a.155.155 0 0 0-.167.103.15.15 0 0 0-.006.07l.173.728c.02.304-.04.607-.173.881.104.53.162 1.069.173 1.61v1.953l-.173.9c.23 0 .346 2.074.346 6.224v2.49l.173.9a.155.155 0 0 0-.167.103.15.15 0 0 0-.006.07l.173.88-.173.364a.152.152 0 0 1 .166.103.15.15 0 0 1 .007.07v3.39l.192.345h-.192c.03 2.682.21 5.361.538 8.024-.102.646-.16 1.299-.173 1.954l.173.9a.155.155 0 0 0-.167.103.15.15 0 0 0-.006.07c.219 1.193.642 2.34 1.25 3.39.359-.192.538-.37.538-.537a4.448 4.448 0 0 1 2.5 2.491c.128 0 .192-.058.192-.173a4.985 4.985 0 0 1 2.5.708l.345-.192c0 .127.179.249.538.364.4 0 .7-.294.9-.881l.884.173.711-.364c.306-1.035.606-1.628.9-1.781a2.582 2.582 0 0 1 .712-1.589 13.288 13.288 0 0 1-.366-2.509l.192-.881c-.245-2.081-.367-3.326-.366-3.735.018-.189.077-.372.173-.536l-.173-1.073v-1.244c0-.6.179-.9.539-.9v-.173c-.476 0-.713-.951-.712-2.853v-1.954a2.073 2.073 0 0 1 1.075 1.609 13.716 13.716 0 0 1 2.5 2.661 1.237 1.237 0 0 1-.192.537v.173c.128 0 .192-.058.192-.173h.173c1.537 2.235 2.491 3.422 2.863 3.562.206.804 1.635 2.528 4.287 5.171.895 0 2.445 1.067 4.65 3.2 0 .293.533.651 1.6 1.073h1.614v-.537c-.832-.88-1.55-1.71-2.152-2.49l.193-.708Zm-16.969-21.2c0-.192-.122-.307-.366-.345l-.71-3.39v-.171a1.417 1.417 0 0 1 .173-.71 21.127 21.127 0 0 0-1.423-6.415c-.179-3.677-.479-5.516-.9-5.516a1.523 1.523 0 0 1 .173-.728l-1.056-1.417v-.17c.191-.021.375-.087.537-.192.794.398 1.634.7 2.5.9.066 0 .72-.121 1.961-.363.952.414 1.76 1.1 2.324 1.972 1.281 0 2.53 2.253 3.748 6.76a1.346 1.346 0 0 1-.173.537l.173.344-.346 1.244c.018.189.077.372.173.537l-.71 1.781c-2.272 2.846-4.298 4.627-6.078 5.342ZM373.329 365.437c.021-.476.078-.95.172-1.417 0-.667-1.192-3.457-3.574-8.37-.359-1.902-.718-2.853-1.077-2.853a109.81 109.81 0 0 0-7.149-13.175l-3.574-8.2c-1.922-5.809-3.53-8.714-4.824-8.714a11.657 11.657 0 0 0-2.843-3.2l-.9.173c-.576-.6-.935-.9-1.077-.9l-.346.192-2.324-.364a1.395 1.395 0 0 0-.366.9l-.712-.363-.883.173a7.442 7.442 0 0 1-1.442-.345l-.884.708c.019.381.138.751.346 1.072a63.865 63.865 0 0 0-2.134 6.224l.173.364c.005.247-.055.491-.173.708-.153 2.605-.749 3.907-1.787 3.906v.192a.306.306 0 0 0 .346.345 7.768 7.768 0 0 1-1.249 3.39 6.372 6.372 0 0 1-.885 2.661v.364l.173.364c-1.14 4.867-1.852 7.3-2.134 7.3a.152.152 0 0 0 .173.173c-.564 3.805-1.217 5.707-1.959 5.707a.307.307 0 0 0 .01.141.306.306 0 0 0 .194.194.307.307 0 0 0 .141.01h.192c0 .243-.065.363-.192.363-.589 4.021-1.185 6.333-1.787 6.934a.176.176 0 0 1 .144.047.172.172 0 0 1 .048.144l-.366.537v.171c0 .357.237.536.712.537v.708c.243 1.071.601 1.608 1.075 1.609 0-.129.058-.192.173-.192h.366c.141 0 .557.479 1.249 1.436l.366-.191h.173c.192.829.487 1.244.884 1.244l.365-.173c.243 0 .717.3 1.423.9h.365l1.078-.536c.23 0 .345.179.345.536h.365c.231 0 .346-.122.346-.363.189.018.373.077.538.173 1.37 0 2.267-1.124 2.691-3.372.718-1.251 1.73-4.813 3.036-10.686l.346.173.366-.173c-.18-.358-.359-.536-.539-.536.056-.724.179-1.442.366-2.144 0-.83.89-1.245 2.671-1.246 2.958.359 4.803.538 5.534.537 0-.357.243-.593.731-.708h.173c.641 1.073 1.114 1.609 1.422 1.609v.881l.9 1.073-.364.536v.345l1.442 1.072v.537a1.193 1.193 0 0 0 .71 1.244 22.358 22.358 0 0 0 1.423 3.735c.1.714.4 1.072.9 1.072v.537c.474 1.544.948 2.316 1.422 2.317 0 1.443.89 2.752 2.671 3.927 0 .447 1.191.976 3.575 1.589a2.472 2.472 0 0 0 1.442-1.073c.832-.23 1.248-.466 1.249-.708h.345l.364.192a1.31 1.31 0 0 1 .173-.537h-.173l.173-.9v-.169c.002-.207-.113-.329-.343-.368Zm-19.294-20.645a2.237 2.237 0 0 0-1.078.173l-3.209-.363-.9.191a1.256 1.256 0 0 0-.539-.191c.166-2.222.526-3.467 1.078-3.735a1.341 1.341 0 0 0-.173-.537l.883-4.27h.173c.948.906 1.724 2.573 2.326 5a10.75 10.75 0 0 0 1.441 3.371l-.002.361ZM405.461 361.339c.128 0 .307-.351.539-1.054 0-.434-.295-.792-.885-1.073l.539-2.144c-.59-1.418-.949-2.127-1.077-2.126.32-.557.559-1.157.711-1.781v-1.244c-.18-.358-.359-.536-.539-.536l.366-3.39c-.116 0-.173-.179-.173-.537v-.344a3.01 3.01 0 0 1 .346-1.437 13.895 13.895 0 0 1-.346-3.2c-.018-.31.041-.619.173-.9l-.173-1.054v-2.144l-.192-2.126h.192l.346.173.539-.708-.539-2.317v-1.245a4.352 4.352 0 0 0-.884-2.853c0-2.298-2.267-5.088-6.8-8.37-1.539-.357-2.308-.714-2.306-1.073h-.366l-4.285-1.072h-1.078a2.657 2.657 0 0 1-1.787.728c-.948.344-1.422.638-1.422.881h-.539l-.537-.364h-.173l-.539.364h-.711v-.708h-.191l-.346.171.173.364v.173h-.539l-.71-.708h-.173v.344c-1.078.294-1.614.594-1.614.9v.173c.447.486.7 1.12.71 1.781-1.076 4.623-1.793 8.242-2.152 10.858l.191.9a98.308 98.308 0 0 0-1.075 10.5c.115 1.481.173 2.254.173 2.317-.115 0-.173.064-.173.192a.152.152 0 0 1 .166.103c.008.023.01.046.007.07v2.49a14.356 14.356 0 0 1-.173 1.953c.511 3.205.869 4.807 1.075 4.808a20.59 20.59 0 0 0 2.326 5.535c1.896 2.247 2.965 3.37 3.209 3.369 2.729 1.467 4.638 2.418 5.728 2.854.247.002.491-.058.71-.173l.346.173 1.077-.173.711.345c.248.005.493-.055.711-.173a9.623 9.623 0 0 0 1.615.173c.243 0 .364-.179.364-.536h.711a2.197 2.197 0 0 0 1.077-.345c.248-.005.493.054.711.173l1.614-.537a10.985 10.985 0 0 1 3.921-2.125v-.192l-.173-.345a4.735 4.735 0 0 0 1.787-3.389l-.194-.369Zm-4.823-15.474c0 1.775-.058 3.256-.173 4.443a70.753 70.753 0 0 1-2.5 8.369c.18.473.359.708.539.708-.68 1.659-2.287 2.49-4.823 2.491h-.712a10.243 10.243 0 0 1-4.111-8.37l.345-.536v-.345c-.345 0-.518-.121-.518-.364v-2.488c.23-7.418.525-12.347.883-14.786l-.173-1.244a.167.167 0 0 0 .07-.006.15.15 0 0 0 .096-.097.153.153 0 0 0 .007-.07h-.178c.06-2.034.298-4.059.712-6.051l-.366-.71.192-.9-1.075-3.026v-.173h.173a7.102 7.102 0 0 1 2.5.881c.616 0 1.807.836 3.575 2.509 1.19 0 2.324 1.302 3.4 3.906a12.339 12.339 0 0 1 1.249 5.708c.4 0 .695 2.253.885 6.76.001.655-.057 1.309-.173 1.954.118.47.177.952.176 1.437ZM335.51 311.369c.024.46.736 1.054 2.134 1.781 0 .83 1.191 1.245 3.574 1.244h1.614l.366-.191v.191a32.873 32.873 0 0 0 4.823-.726c.214.13.46.197.711.192.947 0 1.421-.3 1.422-.9a15.005 15.005 0 0 0 3.229-1.417h.173l.364.173a.15.15 0 0 1 .043-.13.155.155 0 0 1 .13-.043h.346c.254-.003.504.056.73.173 1.01 0 1.901-.709 2.671-2.126 0-.357-.238-.657-.712-.9l.712-.882c0-.217-.3-.337-.884-.363-.2 0-.327.122-.366.363a1.317 1.317 0 0 1-.711-.191c-.356.082-.715.146-1.077.191a3.039 3.039 0 0 1-1.249-.535 1.449 1.449 0 0 1-.712.171H351.4l-2.133.173v-.344h.711v-.368l-1.788-.17c-2.742.067-4.112.181-4.112.344-5.6.333-8.4.748-8.4 1.245-.193.958-.43 1.437-.711 1.436.018.189.077.372.172.537a1.335 1.335 0 0 1-.172.536c.272.357.453.536.543.536Z" fill="#fff"/><defs><linearGradient id="a" x1="275.505" y1="458.939" x2="275.505" y2="59.002" gradientUnits="userSpaceOnUse"><stop stop-color="#FFBA00"/><stop offset="1" stop-color="#FFE400"/></linearGradient></defs></svg>