<svg width="548" height="548" viewBox="0 0 548 548" fill="none" xmlns="http://www.w3.org/2000/svg">
<path d="M274 530C415.385 530 530 415.385 530 274C530 132.615 415.385 18 274 18C132.615 18 18 132.615 18 274C18 415.385 132.615 530 274 530Z" fill="white"/>
<path d="M274 546.5C424.498 546.5 546.5 424.498 546.5 274C546.5 123.502 424.498 1.5 274 1.5C123.502 1.5 1.5 123.502 1.5 274C1.5 424.498 123.502 546.5 274 546.5Z" stroke="white" stroke-width="3"/>
<path d="M275.382 453.194C370.887 453.194 448.309 375.843 448.309 280.426C448.309 185.009 370.887 107.658 275.382 107.658C179.877 107.658 102.455 185.009 102.455 280.426C102.455 375.843 179.877 453.194 275.382 453.194Z" fill="#FFD400"/>
<path d="M101.831 204.676L101.313 204.9L94.135 203.748L93.478 203.962L93.584 206.199L92.663 208.977L92.547 210.218L92.21 211.657L93.81 212.677L94.905 213.638L95.472 214.008L96.253 214.797L97.496 215.627L97.974 216.58V217.535L98.147 217.935L97.307 220.035L96.986 220.003L96.472 221.276L93.262 219.993L71.052 203.105L68.123 200.171L67.999 199.406L68.337 199.159L68.402 198.517L68.715 197.737L68.501 196.837L69.809 196.073L71.38 195.842L73.109 196.056L75.775 195.835L77.923 196.074L79.972 195.843L81.791 196.189L82.901 196.157L83.519 196.403L93.386 197.627L93.839 197.808L94.234 197.776L102.224 198.918L103.54 199.445L104.101 199.954L104.651 200.365L104.816 200.907L104.989 202.264L104.874 202.552L104.989 202.74L104.997 203.554L105.212 204.454L103.673 204.602L101.831 204.676ZM86.771 207.004L87.815 203.321L80.747 202.498L81.768 203.526L85.783 206.61L86.771 207.004Z" fill="#FFD400"/>
<path d="M171.818 122.356L170.365 121.624L167.459 119.042L166.15 117.254L164.721 116.08L163.663 115.78L162.287 115.956L161.11 116.745L165.738 123.078L167.12 125.456L166.585 127.356L164.661 129.02L164.415 128.971L164.404 129.191L163.374 129.882L161.847 129.2L147.035 107.144L144.503 102.499L144.603 102.008L144.921 101.528L144.76 100.89L144.637 100.706L146.154 98.836L152.445 94.618L154.545 93.85L155.686 93.564L157.492 93.633L158.723 94.193L158.823 94.341L159.315 94.277L159.573 94.584L162.529 96.761L162.985 97.361L163.935 98.376L165.084 100.485L165.271 101.32L165.671 102.387V102.547L165.771 102.694L165.458 104.93L165.158 106.146L165.185 106.981L164.7 109.118L164.258 109.418L163.734 110.463L165.309 111.063L166.786 111.993L167.499 112.261L168.199 112.909L169.75 113.948L170.133 114.438L171.748 115.648L172.867 116.283L172.943 116.713L174.161 117.013L174.714 117.442L176.481 116.257L176.491 116.037L176.823 115.815L177.292 116.034L178.577 118.744L178.288 120.377L177.821 120.956L176.24 122.017L174.398 122.771L171.818 122.356ZM158.456 108.339L160.317 106.185L161.06 103.874L161.092 102.732L159.81 100.981L157.544 99.195L156.129 99.236L154.498 99.904L151.113 102.174L151.237 102.836L151.694 103.436L152.46 104.895L156.321 109.77L158.456 108.339Z" fill="#FFD400"/>
<path d="M265.982 91.0079L265.862 89.1499L265.845 66.4319L266.145 63.3319L266.156 61.3399L266.456 60.7579L266.438 59.6079L267.23 59.3279L278.93 59.0039L280.93 59.1489L281.599 59.4919L282.353 59.5239L282.198 60.8989L282.257 61.7839L281.866 62.3659L281.881 63.2069L281.1 64.2759L279.381 64.9239L277.081 65.0499L275.038 64.9059L273.798 65.0149L272.023 64.8659L271.809 65.3129L271.794 69.7859L279.326 69.6629L280.662 69.9959L281.105 70.0329L280.417 74.0739L279.28 74.8459L276.096 75.4289L272.102 75.1409L272.084 79.3479L271.932 80.9009L272.11 86.3899L278.042 85.9389L280.881 86.1139V88.5059L280.664 88.8629L280.681 89.8809L280.163 90.7749L279.328 91.0989L269.588 91.8339H266.795L265.982 91.0079Z" fill="#FFD400"/>
<path d="M402.724 108.594L402.244 109.073L402.344 108.926L401.852 109.026L401.141 110.095L401.13 110.512L400.798 110.771L400.873 111.139L400.573 111.582L400.354 111.594L400.254 111.742L400.611 111.767L400.341 112.167L400.084 111.995L399.74 112.195L399.716 112.551L399.151 113.399L398.832 113.56L397.656 115.33L396.575 116.63L395.767 117.847L395.387 118.18L395.411 117.824L395.154 117.652L394.894 117.64L395.08 117.762L394.98 117.91L394.674 117.973L394.784 118.205L394.625 118.684L395.645 118.35L395.3 118.55L395.03 118.956L395.351 118.795L395.251 119.261L395.302 119.507L394.932 119.582L394.859 119.213L394.566 119.656L394.934 120.056H394.295L394.095 120.351L394.168 120.559L393.541 120.941L392.541 122.453L392.701 122.772L392.234 122.672L392.283 123.072L392.112 123.33L391.853 123.158L390.753 124.818L390.828 125.345L390.117 125.777L389.675 126.441L389.344 127.341L388.89 127.464L389.099 127.864L388.829 128.27L388.572 128.098L387.835 129.205L387.392 128.91L387.038 128.887L387.025 128.666L386.631 128.776L386.731 128.15L386.131 128.494L385.578 128.128L385.566 127.907L385.186 128.08L385.48 127.637L385.026 127.76L384.878 127.66L384.521 127.636L383.921 127.023L383.493 127.109L383.17 125.514L383.639 118.49L383.59 118.244L383.87 117.261L383.955 115.935L384.055 115.788L383.969 115.357L384.263 114.915L384.115 114.815L384.664 111.031L384.638 110.431L385.369 106.451L384.804 106.981L383.872 108.381L383.701 108.96L383.149 109.07L383.309 109.548L382.746 110.398L381.935 110.816L381.789 111.516L381.616 111.773L381.47 112.314L380.97 112.352L380.137 113.606L379.757 113.939L378.752 115.45L378.765 115.671L378.165 116.017L377.796 116.569L376.753 117.737L376.765 118.118L376.582 118.155L376.382 118.455L376.42 118.639L376.12 119.082L375.691 119.168L375.839 119.268L375.739 119.415L375.517 119.428L374.854 119.945L373.674 119.799L372.974 119.972L373.174 119.672L373.125 119.428L372.671 119.551L371.171 119.251L371.096 118.883L370.739 118.859L370.763 118.503L370.482 118.687L370.039 118.393L370.21 118.136L370.554 117.936L370.297 117.764L370.639 116.61L384.572 95.9639L388.08 91.6479L388.632 91.3769L389.726 91.2529L390.131 91.5229L390.465 91.5829L390.796 91.9629L391.141 91.9259L391.202 92.2329L391.633 92.1469L392.173 92.2929L392.725 92.1819L393.01 93.5939L392.704 94.4519L392.598 96.9319L392.341 97.7189L392.598 97.8909L392.269 99.4259L392.345 100.114L391.978 101.465L392.312 101.685L392.029 101.71L391.759 102.116L391.881 102.57L392.215 102.632L391.577 103.59L391.761 103.873L391.872 104.425L391.701 104.683L391.811 105.236L391.444 105.311L391.285 105.949L391.508 106.097L391.115 106.687L390.715 108.811L390.753 108.996L391.047 108.553L391.195 108.653L391.095 108.801L390.774 109.121L390.874 109.451L390.774 109.599L391.166 109.648L391.066 109.796L390.807 109.784L390.415 110.374L390.315 111.32L389.884 111.566L389.591 112.008L389.604 112.229L389.994 111.639L390.142 111.739L390.253 112.453L390.696 112.107L389.96 113.214L390.023 113.679L389.85 113.937L389.936 114.368L390.236 114.568L389.942 115.011L389.991 115.256L389.647 115.293L389.771 115.748L390.077 115.686L391.277 113.879L391.866 113.312L393.706 110.548L393.95 110.498L393.85 110.165L394.585 109.539L396.204 107.105L398.94 103.551L399.478 102.74L401.278 100.908L401.449 100.651L402.899 100.391L403.786 101.458L404.425 101.616L404.225 101.916L404.482 102.088L404.826 101.888L405.086 102.06L404.786 102.503L405.217 102.256L405.439 102.724L405.428 103.301L405.328 103.449L405.279 103.842L404.641 104.801L404.789 104.901L404.618 105.158L404.667 105.403L404.445 105.416L403.807 106.375L403.858 106.62L403.611 106.67L402.973 107.629L402.826 107.529L402.626 107.829L402.848 108.136L402.21 108.457L402.445 108.824L402.789 108.467L402.724 108.594ZM388.874 116.622L388.825 117.014L389.093 116.614L388.874 116.622ZM388.898 116.266L389.045 116.366L389.168 115.866L388.898 116.266ZM389.198 125.978L389.59 126.027L389.406 125.904L389.198 125.978ZM389.578 125.645L389.763 125.767L390.963 123.962L390.779 123.839L390.141 124.798L389.685 124.921L389.749 125.387L389.578 125.645ZM389.993 123.901L390.263 123.495L390.072 123.376L389.993 123.901ZM390.952 123.58L391.252 123.78L392.724 121.567L392.319 121.936L392.062 121.923L390.952 123.58ZM391.282 121.405L391.343 121.873L391.65 120.854L391.282 121.405ZM393.258 120.752L394.153 119.167L393.245 120.532L393.258 120.752ZM394.605 117.288L394.875 116.882L394.556 117.042L394.605 117.288ZM395.072 116.588L395.281 116.515L395.343 116.184L395.072 116.588ZM395.245 117.128L395.65 117.398L396.742 116.156L396.693 115.911L396.275 116.219L395.834 116.883L395.534 116.683L395.245 117.128ZM395.612 115.777L395.918 115.556L395.88 115.372L395.612 115.777ZM397.648 114.791L398.053 114.424L397.771 114.608L397.648 114.791ZM398.755 114.891L398.584 115.149L398.436 115.049L398.536 114.901L398.755 114.891ZM399.719 110.801L400.346 110.42L400.089 110.247L399.719 110.801ZM400.925 110.75L401.134 110.516L401.147 110.738L400.925 110.75ZM402.996 106.436L403.24 106.387L403.34 106.24L403.093 106.289L402.996 106.436Z" fill="#FFD400"/>
<path d="M453.439 215.961L453.661 215.443L459.661 211.343L459.991 210.735L458.372 209.188L457.125 206.539L456.352 205.56L455.6 204.276L453.741 204.636L452.284 204.692L451.617 204.814L450.507 204.781L449.033 205.035L448.033 204.672L447.376 203.98L446.976 203.807L446.138 201.707L446.393 201.507L445.884 200.232L449.095 198.954L476.839 195.911L480.987 196.023L481.603 196.492L481.527 196.903L481.921 197.414L482.233 198.195L483.006 198.695L482.583 200.151L481.604 201.399L480.204 202.433L478.423 204.433L476.702 205.738L475.374 207.315L473.819 208.315L473.035 209.102L472.419 209.349L464.419 215.249L463.967 215.429L463.703 215.729L457.123 220.398L455.805 220.923L455.047 220.939L454.365 221.02L453.871 220.739L452.809 219.875L452.696 219.587L452.483 219.53L451.914 218.945L451.141 218.445L452.155 217.279L453.439 215.961ZM462.753 203.912L464.534 207.3L470.225 203.033L468.777 202.99L463.741 203.518L462.753 203.912Z" fill="#FFD400"/>
<path d="M273.011 458.939C370.39 458.939 449.331 380.07 449.331 282.781C449.331 185.491 370.39 106.623 273.011 106.623C175.632 106.623 96.6909 185.491 96.6909 282.781C96.6909 380.07 175.632 458.939 273.011 458.939Z" stroke="#FFD300" stroke-width="1.066" stroke-miterlimit="10"/>
<path d="M96.691 282.781C96.691 185.492 175.633 106.623 273.011 106.623C370.389 106.623 449.331 185.492 449.331 282.781C449.331 380.07 370.39 458.939 273.011 458.939C175.632 458.939 96.691 380.07 96.691 282.781ZM93.263 220L71.054 203.112L68.124 200.179L68 199.41L68.338 199.163L68.403 198.521L68.717 197.741L68.503 196.841L69.811 196.076L71.382 195.845L73.111 196.059L75.778 195.838L77.925 196.077L79.974 195.846L81.793 196.192L82.903 196.16L83.521 196.407L93.388 197.631L93.84 197.813L94.24 197.781L102.23 198.923L103.547 199.45L104.107 199.958L104.658 200.369L104.824 200.911L104.996 202.268L104.883 202.557L104.996 202.745L105.003 203.559L105.219 204.459L103.68 204.607L101.837 204.681L101.319 204.904L94.142 203.752L93.485 203.966L93.591 206.203L92.67 208.981L92.554 210.221L92.216 211.661L93.816 212.681L94.916 213.642L95.483 214.013L96.264 214.802L97.507 215.632L97.985 216.586V217.54L98.158 217.94L97.318 220.04L96.998 220.008L96.488 221.281L93.263 220ZM81.769 203.532L85.784 206.616L86.771 207.01L87.815 203.326L80.747 202.503L81.769 203.532ZM453.869 220.748L452.805 219.885L452.692 219.596L452.48 219.539L451.912 218.953L451.139 218.453L452.153 217.287L453.438 215.965L453.659 215.447L459.659 211.347L459.989 210.74L458.37 209.192L457.123 206.543L456.35 205.564L455.602 204.289L453.743 204.649L452.287 204.705L451.619 204.827L450.51 204.794L449.036 205.047L448.036 204.684L447.379 203.992L446.979 203.819L446.141 201.719L446.397 201.519L445.888 200.244L449.099 198.965L476.842 195.922L480.991 196.035L481.606 196.504L481.531 196.915L481.924 197.425L482.237 198.206L483.01 198.706L482.588 200.161L481.608 201.409L480.208 202.443L478.428 204.443L476.707 205.743L475.38 207.32L473.825 208.32L473.041 209.108L472.424 209.355L464.424 215.255L463.972 215.436L463.708 215.736L457.128 220.405L455.81 220.93L455.052 220.946L454.37 221.027L453.869 220.748ZM463.739 203.52L462.752 203.914L464.533 207.303L470.224 203.035L468.775 202.992L463.739 203.52ZM161.848 129.2L147.035 107.145L144.5 102.5L144.6 102.009L144.918 101.529L144.757 100.89L144.634 100.707L146.151 98.8369L152.442 94.619L154.542 93.851L155.683 93.5649L157.488 93.6339L158.719 94.1949L158.819 94.343L159.31 94.2789L159.568 94.5859L162.524 96.7629L162.98 97.3629L163.93 98.3779L165.078 100.487L165.266 101.321L165.666 102.388V102.547L165.766 102.694L165.453 104.931L165.153 106.147L165.18 106.981L164.694 109.119L164.252 109.419L163.728 110.464L165.303 111.064L166.78 111.994L167.494 112.262L168.194 112.91L169.746 113.949L170.129 114.44L171.744 115.65L172.863 116.285L172.939 116.715L174.157 117.015L174.71 117.443L176.478 116.259L176.487 116.039L176.819 115.817L177.287 116.037L178.573 118.747L178.284 120.38L177.818 120.959L176.237 122.021L174.395 122.774L171.826 122.364L170.373 121.632L167.467 119.05L166.157 117.262L164.729 116.088L163.671 115.788L162.295 115.964L161.119 116.753L165.747 123.086L167.129 125.464L166.594 127.364L164.67 129.028L164.424 128.979L164.413 129.2L163.383 129.891L161.848 129.2ZM156.129 99.2339L154.497 99.903L151.112 102.173L151.236 102.834L151.693 103.434L152.46 104.892L156.32 109.767L158.455 108.337L160.316 106.182L161.058 103.872L161.09 102.729L159.808 100.978L157.542 99.192L156.129 99.2339ZM387.392 128.926L387.036 128.903L387.023 128.682L386.623 128.792L386.723 128.166L386.123 128.511L385.569 128.145L385.557 127.924L385.177 128.097L385.469 127.654L385.016 127.777L384.867 127.677L384.51 127.653L383.91 127.04L383.482 127.126L383.159 125.531L383.628 118.507L383.579 118.261L383.859 117.278L383.944 115.952L384.044 115.804L383.958 115.374L384.251 114.932L384.103 114.832L384.652 111.048L384.626 110.448L385.357 106.467L384.792 106.997L383.861 108.397L383.689 108.976L383.137 109.087L383.297 109.565L382.735 110.415L381.924 110.833L381.777 111.533L381.605 111.79L381.458 112.331L380.953 112.369L380.121 113.623L379.739 113.956L378.739 115.466L378.753 115.687L378.153 116.033L377.783 116.585L376.74 117.753L376.753 118.135L376.571 118.172L376.371 118.472L376.409 118.656L376.109 119.099L375.682 119.185L375.829 119.285L375.729 119.432L375.508 119.445L374.846 119.963L373.666 119.817L372.966 119.99L373.166 119.69L373.117 119.446L372.663 119.568L371.163 119.268L371.088 118.9L370.732 118.877L370.755 118.521L370.473 118.705L370.031 118.411L370.2 118.154L370.545 117.954L370.288 117.782L370.63 116.628L384.584 95.9659L388.093 91.65L388.645 91.3779L389.739 91.254L390.145 91.5239L390.479 91.585L390.809 91.965L391.154 91.9279L391.215 92.2349L391.646 92.1489L392.185 92.2949L392.739 92.1829L393.024 93.5959L392.718 94.4539L392.612 96.934L392.356 97.7209L392.612 97.8929L392.284 99.4279L392.36 100.116L391.993 101.467L392.327 101.688L392.044 101.712L391.773 102.118L391.895 102.572L392.23 102.634L391.593 103.592L391.777 103.875L391.888 104.427L391.717 104.685L391.828 105.238L391.461 105.313L391.302 105.951L391.525 106.099L391.131 106.688L390.731 108.812L390.77 108.996L391.063 108.553L391.212 108.653L391.112 108.801L390.79 109.121L390.89 109.451L390.79 109.599L391.183 109.648L391.083 109.796L390.823 109.784L390.432 110.374L390.338 111.32L389.906 111.567L389.613 112.009L389.626 112.23L390.017 111.64L390.164 111.74L390.276 112.455L390.718 112.109L389.984 113.215L390.046 113.68L389.873 113.938L389.959 114.369L390.259 114.569L389.967 115.012L390.016 115.257L389.672 115.294L389.796 115.749L390.102 115.688L391.302 113.882L391.891 113.315L393.731 110.55L393.975 110.501L393.875 110.169L394.609 109.543L396.229 107.108L398.964 103.555L399.502 102.744L401.307 100.912L401.477 100.655L402.928 100.395L403.815 101.462L404.453 101.62L404.253 101.92L404.51 102.092L404.854 101.892L405.114 102.063L404.814 102.506L405.245 102.259L405.467 102.726L405.455 103.303L405.355 103.451L405.306 103.844L404.667 104.802L404.816 104.902L404.645 105.159L404.693 105.404L404.472 105.417L403.836 106.375L403.886 106.621L403.638 106.67L403.001 107.628L402.853 107.528L402.653 107.828L402.874 108.134L402.236 108.455L402.47 108.822L402.815 108.465L402.715 108.613L402.235 109.093L402.335 108.945L401.844 109.045L401.133 110.114L401.121 110.531L400.79 110.79L400.865 111.158L400.565 111.601L400.347 111.613L400.247 111.761L400.604 111.786L400.334 112.186L400.077 112.014L399.733 112.214L399.709 112.57L399.144 113.418L398.825 113.579L397.65 115.348L396.568 116.648L395.761 117.866L395.38 118.198L395.404 117.842L395.146 117.67L394.886 117.658L395.071 117.78L394.971 117.928L394.666 117.991L394.776 118.223L394.618 118.702L395.638 118.369L395.293 118.569L395.023 118.975L395.343 118.815L395.243 119.281L395.294 119.527L394.924 119.602L394.849 119.233L394.557 119.676L394.925 120.076H394.286L394.086 120.37L394.159 120.579L393.533 120.962L392.533 122.473L392.692 122.792L392.226 122.692L392.275 123.097L392.104 123.355L391.844 123.183L390.744 124.843L390.819 125.37L390.107 125.802L389.665 126.466L389.335 127.366L388.88 127.489L389.088 127.894L388.818 128.3L388.561 128.128L387.824 129.235L387.392 128.926ZM389.192 125.977L389.583 126.026L389.399 125.903L389.192 125.977ZM390.138 124.797L389.682 124.92L389.746 125.386L389.572 125.644L389.757 125.766L390.957 123.961L390.773 123.838L390.138 124.797ZM389.988 123.897L390.257 123.491L390.072 123.369L389.988 123.897ZM390.946 123.577L391.246 123.777L392.717 121.565L392.317 121.934L392.06 121.921L390.946 123.577ZM391.275 121.402L391.335 121.87L391.642 120.85L391.275 121.402ZM393.238 120.529L393.251 120.749L394.151 119.164L393.238 120.529ZM395.238 117.123L395.644 117.393L396.735 116.151L396.687 115.905L396.268 116.213L395.827 116.877L395.527 116.677L395.238 117.123ZM394.551 117.038L394.599 117.285L394.87 116.878L394.551 117.038ZM388.872 116.618L388.823 117.01L389.091 116.61L388.872 116.618ZM395.065 116.583L395.275 116.509L395.336 116.178L395.065 116.583ZM388.896 116.262L389.042 116.362L389.166 115.862L388.896 116.262ZM395.605 115.772L395.912 115.551L395.874 115.367L395.605 115.772ZM397.765 114.602L397.642 114.786L398.048 114.419L397.765 114.602ZM399.712 110.792L400.339 110.411L400.083 110.238L399.712 110.792ZM403.086 106.281L402.986 106.428L403.23 106.379L403.33 106.232L403.086 106.281ZM398.429 115.043L398.529 114.895L398.75 114.882L398.579 115.14L398.429 115.043ZM401.129 110.507L401.143 110.729L400.921 110.741L401.129 110.507ZM265.982 91.007L265.861 89.1489L265.843 66.4299L266.143 63.3299L266.155 61.3369L266.455 60.756L266.436 59.6059L267.228 59.3259L278.928 59.002L280.928 59.1469L281.597 59.4909L282.35 59.5229L282.197 60.8969L282.256 61.7829L281.865 62.364L281.879 63.2049L281.099 64.2809L279.38 64.9289L277.08 65.0549L275.037 64.9119L273.798 65.0209L272.022 64.8719L271.809 65.3189L271.793 69.7909L279.325 69.6689L280.661 70.0009L281.104 70.0379L280.416 74.0789L279.278 74.8499L276.094 75.433L272.102 75.1449L272.082 79.3519L271.93 80.905L272.109 86.3929L278.042 85.942L280.881 86.1169V88.5079L280.664 88.866L280.681 89.8839L280.163 90.778L279.328 91.1019L269.587 91.8369H266.794L265.982 91.007Z" fill="url(#paint0_linear_35_1181)"/>
<path d="M204.33 229.363C201.173 229.363 197.871 227.29 196.006 222.712C195.217 221.138 194.212 219.637 192.992 220.495C192.059 221.281 191.992 222.568 192.418 223.928C194.786 230.65 200.026 234.082 205.695 234.082C216.389 234.082 229.163 223.928 231.245 210.839C231.388 209.481 231.46 207.907 231.46 206.691C231.46 186.953 214.16 166.999 195.36 166.999C193.008 166.993 190.666 167.305 188.398 167.929H188.469C172.394 170.575 157.469 185.809 151.079 203.329C148.423 210.695 146.988 217.489 146.988 222.71C147.116 225.84 147.647 228.941 148.567 231.936C153.591 246.31 169.81 249.601 185.383 252.175L187.248 252.46C191.339 253.176 196.721 254.177 200.741 255.106C205.047 256.322 208.85 258.324 210.286 261.257C210.627 262.246 210.796 263.286 210.786 264.332C210.786 271.841 198.801 278.421 191.624 281.353C186.513 283.088 181.16 284.005 175.763 284.07C164.209 284.07 153.874 279.278 150.932 268.336C150.518 267.212 150.276 266.032 150.214 264.836C150.239 263.769 150.563 262.729 151.147 261.836L151.647 260.836C151.862 259.836 151.647 259.262 151.001 259.262C146.695 259.262 144.401 268.131 144.039 271.777C142.962 287.367 161.12 298.954 178.847 298.954C183.984 298.972 189.077 298.001 193.847 296.093C205.905 290.8 216.095 279.501 216.095 266.842C216.094 264.418 215.731 262.007 215.018 259.69C212.794 252.896 207.482 248.247 201.741 245.53C198.996 244.184 196.167 243.014 193.273 242.03L191.694 241.458C182.652 238.24 172.173 234.163 168.155 224.151C166.3 219.618 165.42 214.746 165.572 209.851C165.572 208.635 165.643 207.42 165.715 206.203C166.145 190.113 173.107 173.663 189.039 173.803C203.539 173.875 216.885 192.903 217.674 209.203H217.603C217.608 220.924 210.79 229.363 204.33 229.363Z" fill="white"/>
<path d="M402.99 263.546L402.919 263.689C400.55 268.552 396.1 272.989 391.291 274.202C390.631 274.357 389.959 274.452 389.282 274.487C387.527 274.41 385.854 273.728 384.546 272.556L386.555 268.479L388.564 264.26L389.139 263.116L389.067 263.187L389.857 261.687C393.157 254.393 396.674 245.381 396.674 239.231C396.674 235.154 395.095 232.294 391.005 232.007C381.889 231.364 375.934 246.307 375.934 259.185C375.934 264.906 377.082 270.269 379.734 273.63L378.37 276.349C375.57 282.07 371.553 289.936 366.528 291.01C364.663 291.439 363.156 290.01 363.442 285.861C363.657 279.924 365.883 270.485 367.533 263.19C368.343 260.103 368.99 256.976 369.471 253.821C369.83 249.316 368.753 245.597 364.016 245.597C360.786 245.597 359.567 246.241 359.424 248.097C359.424 248.097 359.495 248.669 359.568 249.169C359.746 249.943 359.818 250.737 359.783 251.53C359.352 257.322 357.917 261.256 355.983 267.048L356.054 266.977C351.963 273.843 341.271 291.865 337.466 291.865C336.606 291.865 336.466 290.077 336.533 288.004C337.178 282.283 340.333 271.555 342.059 266.119C343.462 262.431 344.425 258.59 344.93 254.676C345.216 250.958 344.284 247.31 341.557 245.451C340.014 244.692 338.325 244.278 336.606 244.235C335.17 244.235 334.094 244.664 333.95 245.88C333.922 246.267 333.971 246.656 334.094 247.024V246.953C334.371 248.002 334.467 249.09 334.38 250.171C334.111 253.13 332.821 257.932 331.298 263.428L329.927 265.905C326.267 272.986 322.319 280.279 314.927 281.782C318.618 274.797 320.955 267.178 321.816 259.325V259.397C321.963 258.043 322.035 256.682 322.031 255.32C322.031 244.807 318.156 236.582 308.831 236.582C297.42 236.582 294.191 247.524 293.186 257.608C291.775 256.926 290.232 256.559 288.665 256.535C287.287 256.506 285.921 256.787 284.666 257.356C283.412 257.925 282.301 258.768 281.416 259.824C280.439 262.71 279.82 265.705 279.57 268.741C275.356 276.647 266.531 292.441 263.042 292.441C261.464 292.441 261.32 288.865 261.392 286.934C261.823 282.714 263.904 276.421 266.129 270.199C268.353 263.691 270.721 256.682 271.229 251.461C271.729 246.384 270.153 242.521 264.914 242.521C257.306 242.521 251.35 251.604 246.255 259.614C244.963 261.474 243.955 263.333 242.738 264.978L245.25 253.821C247.618 243.594 250.561 230.865 250.85 228.004C251.209 223.212 249.85 218.063 242.597 218.063C241.234 218.063 240.014 218.422 239.943 219.709C239.963 220.141 240.01 220.571 240.086 220.996C240.316 222.173 240.413 223.373 240.374 224.572C240.086 227.934 237.718 237.872 235.135 248.816C231.905 262.405 228.317 277.495 227.742 284.146C227.671 285.146 227.598 286.146 227.598 287.079C227.598 292.944 229.398 299.023 236.282 299.023C237.287 299.023 237.932 298.808 237.932 298.023C237.917 297.656 237.844 297.294 237.717 296.95C237.177 294.631 236.984 292.245 237.143 289.869C237.598 285.145 238.685 280.504 240.373 276.069H240.29L241.438 274.069V274.14C245.385 267.489 256.15 248.966 261.318 248.966C261.818 248.966 262.036 249.324 261.964 250.253C261.748 252.184 260.097 256.404 258.164 261.553C255.364 268.99 251.705 279.002 250.772 286.37C250.712 287.083 250.687 287.799 250.7 288.514C250.7 294.164 252.853 298.241 259.456 298.241C266.311 298.241 273.607 286.667 279.205 276.22C279.421 286.264 282.921 298.312 293.475 298.312C301.154 298.312 307.757 293.163 312.637 285.797C319.295 285.412 324.488 280.439 328.276 274.868C327.282 278.714 326.588 282.631 326.201 286.585C326.13 287.585 326.057 288.585 326.057 289.517C326.057 294.881 327.707 298.529 332.657 298.529C340.48 298.529 345.935 290.089 351.03 282.366L351.89 281.008C351.962 282.152 351.89 282.152 351.89 283.368C351.819 290.663 351.819 299.102 361.077 299.102C370.838 299.102 375.717 289.302 379.736 281.294C380.521 279.528 381.408 277.809 382.392 276.146C384.833 277.518 387.65 278.069 390.429 277.718C397.319 276.574 403.204 270.71 406.003 264.13C404.852 262.974 404.134 262.76 402.99 263.546ZM299.07 290.078C294.047 290.078 292.396 283.498 292.396 276.419C292.396 274.989 292.467 273.486 292.611 271.985C292.755 270.411 292.899 268.696 293.186 267.193C294.191 275.918 298.137 282.641 307.686 285.502C305.024 288.505 302.297 290.079 299.066 290.079L299.07 290.078ZM310.625 281.496C302.658 279.996 301.152 269.696 301.152 261.615C301.152 259.326 301.296 257.181 301.44 255.465C302.158 247.812 304.167 240.946 308.617 240.946C315.005 240.946 317.803 247.598 317.803 255.822C317.825 257.063 317.777 258.305 317.659 259.541C316.96 267.289 314.556 274.786 310.621 281.496H310.625ZM382.249 268.696L381.819 269.554C381.279 267.745 381.036 265.861 381.1 263.975C381.1 253.249 385.263 234.152 391 235.655C392.65 236.013 393.3 237.443 393.3 239.732C393.3 245.524 388.276 257.038 384.759 264.119C383.967 265.62 383.035 267.193 382.246 268.696H382.249Z" fill="white"/>
<path d="M174.019 325.565C171.636 323.356 170.444 322.105 170.444 321.811C170.418 321.556 169.348 320.79 167.235 319.511C167.045 319.53 166.861 319.589 166.696 319.684C166.19 319.534 165.75 319.216 165.447 318.784L165.081 318.976C164.353 318.376 163.498 317.95 162.581 317.731C161.39 317.846 160.493 317.904 159.891 317.904C159.543 317.518 159.117 317.211 158.641 317.004C158.143 317 157.653 317.126 157.219 317.368L156.335 317.195C154.934 317.418 153.557 317.771 152.221 318.247C148.327 318.656 146.36 319.314 146.321 320.22C145.361 320.654 144.88 321.012 144.88 321.293C144.878 321.542 144.944 321.787 145.072 322.001L144.706 326.98C144.824 327.197 144.884 327.442 144.879 327.69C144.725 330.536 144.488 331.959 144.168 331.96C144.189 332.152 144.255 332.335 144.36 332.497C144.306 333.576 144.184 334.65 143.994 335.714C144.107 336.301 144.164 336.897 144.167 337.495V339.276L144.359 340.328C144.214 340.605 144.148 340.916 144.167 341.228V343.008C144.167 344.247 144.109 345.549 143.994 346.914C144.468 350.631 144.827 355.502 145.071 361.528L144.879 362.236C144.86 363.947 145.363 365.624 146.32 367.043C146.568 367.048 146.813 366.989 147.032 366.87C147.529 367.303 148.159 367.553 148.818 367.58C149.074 368.269 149.374 368.627 149.718 368.652C150.064 368.411 150.238 368.167 150.238 367.924H150.776C150.776 368.281 150.898 368.46 151.142 368.461H151.315L151.679 368.288C151.675 368.311 151.677 368.335 151.685 368.358C151.693 368.38 151.705 368.401 151.722 368.418C151.739 368.434 151.759 368.447 151.782 368.455C151.804 368.462 151.828 368.464 151.852 368.461H152.217C152.361 368.259 152.548 368.091 152.763 367.968C152.979 367.846 153.219 367.772 153.467 367.751H154.19V368.115H154.556C157.54 366.153 160.403 364.01 163.127 361.7C166.993 358.033 169.197 355.479 169.738 354.038C171.903 350.681 173.152 347.892 173.486 345.669C174.118 343.886 174.537 342.035 174.735 340.154V339.446C174.735 338.437 174.62 336.119 174.39 332.494L174.908 330.713C174.558 329.158 174.261 327.442 174.019 325.565ZM170.08 338.549C169.165 343.972 166.755 349.032 163.123 353.161C159.637 356.954 157.376 358.85 156.339 358.85C156.388 356.947 156.266 355.042 155.973 353.161C156.088 353.161 156.146 353.098 156.146 352.97C155.868 351.087 155.752 349.184 155.8 347.281V344.428C155.819 344.046 155.938 343.676 156.146 343.355C155.966 343.355 155.786 341.752 155.608 338.547L155.799 337.84C155.645 337.84 155.523 337.482 155.435 336.766L155.799 333.932C155.773 333.936 155.746 333.933 155.721 333.925C155.696 333.917 155.674 333.903 155.655 333.884C155.636 333.865 155.623 333.843 155.614 333.818C155.606 333.793 155.604 333.766 155.608 333.74L155.799 332.686V331.425L155.972 331.08H155.799C155.82 330.604 155.877 330.13 155.972 329.663C155.856 328.17 155.799 327.276 155.799 326.982C155.799 326.881 155.856 326.408 155.972 325.565L155.799 325.201L155.972 324.129V323.248C157.412 323.175 158.844 322.996 160.258 322.711C165.023 322.903 167.406 323.675 167.408 325.028C169.674 328.961 170.808 331.63 170.808 333.034C170.665 334.884 170.422 336.725 170.08 338.549Z" fill="white"/>
<path d="M203.807 364.021L203.462 364.192C203.103 364.192 202.744 363.835 202.385 363.12L201.674 363.483L200.774 363.31C200.777 363.333 200.775 363.357 200.767 363.38C200.76 363.402 200.747 363.423 200.731 363.44C200.714 363.456 200.693 363.469 200.671 363.477C200.648 363.484 200.624 363.486 200.601 363.483C199.269 362.991 197.891 362.631 196.489 362.41C195.772 362.41 195.412 361.938 195.412 360.993V359.921C194.938 355.223 194.701 352.554 194.701 351.915C193.79 348.238 193.255 344.477 193.106 340.692L193.279 339.448C193.147 339.167 193.088 338.858 193.106 338.548C193.106 338.37 193.343 338.19 193.817 338.013L194.163 338.204C198.813 337.808 201.138 337.45 201.139 337.131L200.966 336.767V336.423C201.363 336.351 201.73 336.165 202.022 335.887C201.91 335.73 201.85 335.543 201.85 335.35C201.85 335.158 201.91 334.97 202.022 334.814C202.022 333.985 201.67 333.57 200.966 333.569V333.742L200.066 333.569L199.182 333.742C198.482 333.533 197.759 333.417 197.029 333.398H193.629L193.284 333.569C192.566 333.352 192.207 332.995 192.207 332.497C192.476 330.671 192.598 328.826 192.572 326.981L192.745 325.909C192.629 325.909 192.572 325.73 192.572 325.372V324.128C195.98 324.369 197.825 324.49 198.107 324.491H198.28C198.28 323.751 198.997 322.684 200.432 321.291C200.432 320.691 200.253 320.333 199.894 320.218H198.107L197.207 320.026C197.207 320.155 197.034 320.218 196.687 320.218H196.322C195.824 320.222 195.334 320.097 194.9 319.854V320.027L194 319.854H193.289L192.212 320.027C191.518 319.822 190.801 319.706 190.078 319.683L189.178 319.854C189.154 319.857 189.131 319.855 189.108 319.848C189.086 319.841 189.065 319.828 189.049 319.812C189.032 319.795 189.019 319.775 189.011 319.753C189.004 319.73 189.002 319.706 189.005 319.683C188.629 319.69 188.255 319.613 187.913 319.458C187.57 319.302 187.267 319.071 187.025 318.783L185.968 319.511C185.768 319.511 185.641 319.389 185.603 319.148C185.512 319.148 185.153 319.206 184.526 319.321L183.642 319.148C183.642 319.389 183.283 319.51 182.565 319.511C181.284 320.178 180.63 320.771 180.604 321.292L180.777 322.536C180.611 323.055 180.49 323.587 180.413 324.126C180.434 324.317 180.499 324.501 180.604 324.662L180.066 326.806C180.066 326.873 180.123 327.645 180.239 329.124C180.198 329.441 180.079 329.744 179.893 330.004C179.916 330.001 179.94 330.003 179.963 330.01C179.985 330.018 180.006 330.03 180.023 330.047C180.039 330.064 180.052 330.084 180.059 330.107C180.067 330.13 180.069 330.153 180.066 330.177V330.714L179.893 331.077H180.066C179.825 332.61 179.703 334.16 179.701 335.712V338.374L179.892 338.737C179.764 338.737 179.642 338.916 179.528 339.274C179.547 339.652 179.673 340.017 179.892 340.326C179.871 340.517 179.805 340.701 179.701 340.863C179.981 341.975 180.161 343.109 180.239 344.253C180.144 344.417 180.085 344.6 180.066 344.789C180.36 344.789 180.654 346.213 180.95 349.06C180.854 349.224 180.795 349.408 180.777 349.597C181.17 351.592 181.408 353.616 181.488 355.648L181.143 355.821C181.258 356.868 181.316 357.461 181.316 357.602C181.324 358.045 181.197 358.479 180.95 358.847C181.124 359.237 181.191 359.667 181.142 360.092C181.69 361.169 182.109 362.306 182.391 363.481H183.275C183.898 363.695 184.414 364.141 184.717 364.726L185.062 364.553C186.65 366.456 188.143 367.407 189.54 367.407C189.54 367.278 189.598 367.215 189.713 367.215L190.424 367.751H190.788L191.865 367.58C192.025 367.672 192.202 367.73 192.385 367.751C192.881 367.717 193.368 367.601 193.826 367.407C194.015 367.426 194.199 367.485 194.364 367.58L199.726 367.216C200.948 367.618 202.202 367.919 203.474 368.116H203.647L204.722 366.871C204.726 366.618 204.666 366.368 204.549 366.143C204.667 365.926 204.727 365.682 204.722 365.435V364.727C204.663 364.486 204.358 364.25 203.807 364.021Z" fill="white"/>
<path d="M263.671 320.03L263.844 319.686C263.711 319.527 263.546 319.398 263.361 319.306C263.176 319.214 262.974 319.161 262.767 319.15C261.985 319.239 261.332 319.89 260.808 321.103C260.808 321.295 259.853 324.442 257.944 330.545C256.779 334.645 255.406 338.684 253.83 342.645C252.37 347.675 251.358 350.586 250.794 351.378H250.621V350.841C248.511 345.9 246.665 340.851 245.09 335.715L243.841 331.425L244.013 331.08V330.905C243.796 330.777 243.617 330.596 243.492 330.377C243.367 330.159 243.302 329.912 243.302 329.661C242.401 328.315 241.792 326.795 241.515 325.199C241.515 322.952 240.144 321.35 237.403 320.393V320.22L237.748 319.684H237.575L237.037 320.028H236.69C236.445 320.028 236.324 319.855 236.324 319.511H236.151L235.786 319.684L235.958 320.028V320.392C235.254 320.392 234.902 320.098 234.902 319.511L234.002 319.684L233.118 319.511C232.938 319.984 232.759 320.22 232.58 320.219C232.285 320.219 232.105 319.983 232.041 319.511H231.868C231.323 319.897 230.72 320.195 230.082 320.392C230.082 320.277 230.017 320.219 229.888 320.219H229.177C228.935 320.271 228.698 320.565 228.466 321.1C229.062 322.078 229.43 323.177 229.543 324.317C229.415 324.317 229.351 324.375 229.351 324.49C229.49 325.015 229.555 325.556 229.543 326.099C230.051 327.611 230.469 329.153 230.793 330.715L230.62 331.615C230.735 332.419 230.908 332.834 231.138 332.859C231.228 334.669 231.53 336.462 232.038 338.202C233.104 343.423 233.879 346.034 234.363 346.035C235.099 348.985 235.99 351.893 237.034 354.749C237.634 357.673 238.05 359.454 238.284 360.092C238.265 360.281 238.206 360.463 238.111 360.627L238.284 361.337C238.897 361.952 239.387 362.68 239.725 363.481C240.184 363.466 240.637 363.596 241.019 363.851C241.402 364.107 241.695 364.475 241.858 364.905L242.224 364.732H242.57C242.928 364.821 243.228 365.236 243.47 365.976C244.546 366.155 245.084 366.57 245.084 367.221H245.429C245.672 367.221 245.794 367.106 245.795 366.876C246.113 366.917 246.417 367.036 246.679 367.221C246.679 367.029 246.8 366.915 247.045 366.876H247.41L247.928 367.221H248.294L249.716 366.34H250.255L250.62 366.513C250.62 366.36 251.036 366.181 251.87 365.976L252.236 366.149C252.87 365.327 253.405 364.434 253.83 363.487L253.485 361.343L254.024 358.508C256.752 349.162 258.419 344.177 259.024 343.552C259.498 340.687 260.278 337.882 261.349 335.183C261.349 333.395 261.701 332.501 262.405 332.502V331.792H262.06C262.068 331.372 262.126 330.954 262.233 330.548C262.929 328.576 263.469 326.553 263.847 324.496C263.847 324.14 263.725 323.96 263.481 323.96C263.678 323.176 263.916 322.402 264.192 321.642V321.105L263.674 320.397L263.671 320.03Z" fill="white"/>
<path d="M292.844 364.021L292.499 364.192C292.139 364.192 291.78 363.835 291.423 363.12L290.712 363.483L289.812 363.31C289.815 363.333 289.813 363.357 289.805 363.38C289.798 363.402 289.785 363.423 289.768 363.44C289.752 363.456 289.731 363.469 289.709 363.477C289.686 363.484 289.662 363.486 289.639 363.483C288.306 362.991 286.928 362.631 285.525 362.41C284.808 362.41 284.45 361.938 284.45 360.993V359.921C283.976 355.223 283.739 352.554 283.739 351.915C282.828 348.238 282.293 344.477 282.144 340.692L282.316 339.448C282.185 339.167 282.126 338.858 282.144 338.548C282.144 338.37 282.381 338.19 282.855 338.013L283.201 338.204C287.851 337.808 290.176 337.45 290.176 337.131L290.003 336.767V336.423C290.4 336.351 290.767 336.165 291.06 335.887C290.947 335.731 290.886 335.543 290.886 335.35C290.886 335.158 290.947 334.97 291.06 334.814C291.06 333.985 290.707 333.57 290.003 333.569V333.742L289.103 333.569L288.219 333.742C287.52 333.533 286.796 333.417 286.067 333.398H282.667L282.321 333.569C281.603 333.352 281.245 332.995 281.246 332.497C281.515 330.671 281.637 328.826 281.611 326.981L281.784 325.909C281.668 325.909 281.611 325.73 281.611 325.372V324.128C285.019 324.369 286.864 324.49 287.146 324.491H287.318C287.318 323.751 288.035 322.684 289.471 321.291C289.471 320.691 289.291 320.333 288.933 320.218H287.146L286.246 320.026C286.246 320.155 286.073 320.218 285.728 320.218H285.362C284.864 320.222 284.374 320.097 283.94 319.854V320.027L283.04 319.854H282.328L281.253 320.027C280.559 319.822 279.842 319.706 279.119 319.683L278.219 319.854C278.195 319.857 278.172 319.855 278.149 319.848C278.127 319.841 278.106 319.828 278.09 319.812C278.073 319.795 278.06 319.775 278.052 319.753C278.045 319.73 278.043 319.706 278.046 319.683C277.67 319.69 277.297 319.613 276.954 319.458C276.612 319.302 276.308 319.071 276.067 318.783L275.01 319.511C274.81 319.511 274.683 319.389 274.645 319.148C274.554 319.148 274.195 319.206 273.567 319.321L272.684 319.148C272.684 319.389 272.325 319.51 271.607 319.511C270.325 320.178 269.672 320.771 269.646 321.292L269.819 322.536C269.653 323.055 269.531 323.587 269.454 324.126C269.475 324.317 269.54 324.501 269.645 324.662L269.09 326.805C269.09 326.872 269.147 327.644 269.263 329.123C269.222 329.44 269.103 329.743 268.917 330.003C268.94 330 268.964 330.002 268.987 330.009C269.009 330.017 269.03 330.029 269.046 330.046C269.063 330.063 269.076 330.084 269.083 330.106C269.091 330.129 269.093 330.152 269.09 330.176V330.713L268.917 331.076H269.09C268.85 332.609 268.728 334.159 268.726 335.711V338.373L268.917 338.736C268.789 338.736 268.667 338.915 268.552 339.273C268.571 339.651 268.698 340.016 268.917 340.325C268.895 340.516 268.83 340.7 268.726 340.862C269.006 341.974 269.186 343.108 269.264 344.252C269.168 344.416 269.109 344.599 269.091 344.788C269.385 344.788 269.68 346.212 269.975 349.059C269.879 349.223 269.82 349.407 269.802 349.596C270.195 351.592 270.433 353.615 270.513 355.647L270.168 355.82C270.283 356.867 270.341 357.46 270.341 357.601C270.349 358.044 270.221 358.478 269.975 358.846C270.149 359.236 270.216 359.666 270.167 360.091C270.715 361.168 271.134 362.305 271.416 363.48H272.3C272.923 363.694 273.439 364.14 273.742 364.725L274.087 364.552C275.675 366.455 277.167 367.406 278.565 367.406C278.565 367.277 278.623 367.214 278.738 367.214L279.449 367.75H279.814L280.89 367.579C281.05 367.671 281.227 367.729 281.41 367.75C281.906 367.716 282.393 367.6 282.851 367.406C283.04 367.425 283.224 367.484 283.389 367.579L288.751 367.215C289.973 367.617 291.227 367.918 292.499 368.115H292.671L293.748 366.87C293.751 366.617 293.692 366.367 293.575 366.142C293.693 365.925 293.753 365.681 293.748 365.434V364.726C293.696 364.486 293.39 364.25 292.844 364.021Z" fill="white"/>
<path d="M326.84 362.067C326.198 361.206 325.711 360.24 325.399 359.213C323.514 356.892 321.486 354.692 319.326 352.625C318.083 350.366 317.372 349.236 317.193 349.235H317.001V349.599H316.828C314.958 346.484 313.228 344.645 311.639 344.083C311.984 343.483 312.343 343.183 312.715 343.183C315.315 341.408 316.922 340.042 317.538 339.083C318.521 338.168 319.313 337.068 319.868 335.845C320.422 334.621 320.728 333.3 320.768 331.958V330.905C320.768 329.488 319.992 327.35 318.442 324.49C318.37 323.797 318.138 323.13 317.765 322.542C317.391 321.953 316.886 321.46 316.29 321.1C314.74 320.87 313.965 320.398 313.965 319.683H313.426C312.945 319.591 312.47 319.47 312.004 319.32H310.582C309.263 319.283 307.947 319.168 306.642 318.975C305.943 319.058 305.272 319.301 304.681 319.683L303.971 319.51C303.702 319.544 303.452 319.665 303.259 319.854H302.72L302.355 319.683C302.358 319.706 302.356 319.73 302.348 319.752C302.341 319.774 302.328 319.795 302.311 319.811C302.295 319.828 302.274 319.84 302.252 319.848C302.23 319.855 302.206 319.857 302.183 319.854H301.644C301.4 319.854 301.278 319.676 301.278 319.319H300.74L299.856 319.146C298.806 320.466 298.017 321.973 297.53 323.588C297.773 325.363 297.953 327.501 298.069 330.003C298.045 330 298.021 330.002 297.999 330.009C297.976 330.017 297.956 330.029 297.939 330.046C297.922 330.063 297.91 330.083 297.902 330.106C297.895 330.128 297.892 330.152 297.896 330.176L298.069 330.904C298.089 331.208 298.029 331.511 297.896 331.785C298 332.315 298.058 332.854 298.069 333.395V335.348L297.896 336.248C298.126 336.248 298.242 338.322 298.242 342.472V344.962L298.415 345.862C298.391 345.859 298.367 345.861 298.345 345.868C298.322 345.876 298.302 345.888 298.285 345.905C298.268 345.922 298.256 345.942 298.248 345.965C298.241 345.987 298.238 346.011 298.242 346.035L298.415 346.915L298.242 347.279C298.265 347.276 298.289 347.278 298.312 347.285C298.334 347.293 298.355 347.305 298.371 347.322C298.388 347.339 298.401 347.359 298.408 347.382C298.416 347.404 298.418 347.428 298.415 347.452V350.842L298.607 351.187H298.415C298.445 353.869 298.625 356.548 298.953 359.211C298.851 359.857 298.793 360.51 298.78 361.165L298.953 362.065C298.929 362.062 298.905 362.064 298.883 362.071C298.86 362.079 298.84 362.091 298.823 362.108C298.806 362.125 298.794 362.145 298.786 362.168C298.779 362.19 298.776 362.214 298.78 362.238C298.999 363.431 299.422 364.578 300.03 365.628C300.389 365.436 300.568 365.258 300.568 365.091C301.132 365.314 301.645 365.649 302.075 366.078C302.505 366.506 302.843 367.018 303.068 367.582C303.196 367.582 303.26 367.524 303.26 367.409C304.141 367.42 305.004 367.664 305.76 368.117L306.105 367.925C306.105 368.052 306.284 368.174 306.643 368.289C307.043 368.289 307.343 367.995 307.543 367.408L308.427 367.581L309.138 367.217C309.444 366.182 309.744 365.589 310.038 365.436C310.084 364.84 310.336 364.278 310.75 363.847C310.548 363.024 310.426 362.184 310.384 361.338L310.576 360.457C310.331 358.376 310.209 357.131 310.21 356.722C310.228 356.533 310.287 356.35 310.383 356.186L310.21 355.113V353.869C310.21 353.269 310.389 352.969 310.749 352.969V352.796C310.273 352.796 310.036 351.845 310.037 349.943V347.989C310.333 348.15 310.586 348.38 310.773 348.661C310.96 348.941 311.076 349.263 311.112 349.598C312.06 350.37 312.901 351.264 313.612 352.259C313.591 352.45 313.525 352.634 313.42 352.796V352.969C313.548 352.969 313.612 352.911 313.612 352.796H313.785C315.322 355.031 316.276 356.218 316.648 356.358C316.854 357.162 318.283 358.886 320.935 361.529C321.83 361.529 323.38 362.596 325.585 364.729C325.585 365.022 326.118 365.38 327.185 365.802H328.799V365.265C327.967 364.385 327.249 363.555 326.647 362.775L326.84 362.067ZM309.871 340.867C309.871 340.675 309.749 340.56 309.505 340.522L308.795 337.132V336.961C308.79 336.713 308.849 336.468 308.968 336.251C308.831 334.051 308.351 331.887 307.545 329.836C307.366 326.159 307.066 324.32 306.645 324.32C306.641 324.067 306.701 323.816 306.818 323.592L305.762 322.175V322.005C305.953 321.984 306.137 321.918 306.299 321.813C307.093 322.211 307.933 322.513 308.799 322.713C308.865 322.713 309.519 322.592 310.76 322.35C311.712 322.764 312.52 323.45 313.084 324.322C314.365 324.322 315.614 326.575 316.832 331.082C316.813 331.271 316.754 331.454 316.659 331.619L316.832 331.963L316.486 333.207C316.504 333.396 316.563 333.579 316.659 333.744L315.949 335.525C313.677 338.371 311.651 340.152 309.871 340.867Z" fill="white"/>
<path d="M373.329 365.437C373.35 364.961 373.407 364.487 373.501 364.02C373.501 363.353 372.309 360.563 369.927 355.65C369.568 353.748 369.209 352.797 368.85 352.797C366.77 348.247 364.381 343.846 361.701 339.622L358.127 331.422C356.205 325.613 354.597 322.708 353.303 322.708C352.561 321.475 351.597 320.39 350.46 319.508L349.56 319.681C348.984 319.081 348.625 318.781 348.483 318.781L348.137 318.973L345.813 318.609C345.587 318.856 345.457 319.175 345.447 319.509L344.735 319.146L343.852 319.319C343.361 319.252 342.878 319.137 342.41 318.974L341.526 319.682C341.545 320.063 341.664 320.433 341.872 320.754C341.054 322.791 340.342 324.868 339.738 326.978L339.911 327.342C339.916 327.589 339.856 327.833 339.738 328.05C339.585 330.655 338.989 331.957 337.951 331.956V332.148C337.944 332.195 337.949 332.243 337.964 332.287C337.979 332.332 338.004 332.373 338.038 332.407C338.071 332.44 338.112 332.465 338.157 332.48C338.202 332.495 338.25 332.5 338.297 332.493C338.153 333.705 337.725 334.867 337.048 335.883C336.954 336.825 336.652 337.734 336.163 338.544V338.908L336.336 339.272C335.196 344.139 334.484 346.572 334.202 346.572C334.198 346.595 334.201 346.619 334.208 346.642C334.216 346.664 334.228 346.685 334.245 346.702C334.262 346.718 334.282 346.731 334.305 346.739C334.327 346.746 334.351 346.748 334.375 346.745C333.811 350.55 333.158 352.452 332.416 352.452C332.408 352.499 332.412 352.547 332.426 352.593C332.441 352.638 332.466 352.679 332.5 352.713C332.533 352.747 332.575 352.772 332.62 352.787C332.666 352.801 332.714 352.805 332.761 352.797H332.953C332.953 353.04 332.888 353.16 332.761 353.16C332.172 357.181 331.576 359.493 330.974 360.094C331 360.09 331.026 360.092 331.051 360.101C331.076 360.109 331.099 360.123 331.118 360.141C331.136 360.16 331.15 360.182 331.159 360.207C331.167 360.232 331.17 360.259 331.166 360.285L330.8 360.822V360.993C330.8 361.35 331.037 361.529 331.512 361.53V362.238C331.755 363.309 332.113 363.846 332.587 363.847C332.587 363.718 332.645 363.655 332.76 363.655H333.126C333.267 363.655 333.683 364.134 334.375 365.091L334.741 364.9H334.914C335.106 365.729 335.401 366.144 335.798 366.144L336.163 365.971C336.406 365.971 336.88 366.271 337.586 366.871H337.951L339.029 366.335C339.259 366.335 339.374 366.514 339.374 366.871H339.739C339.97 366.871 340.085 366.749 340.085 366.508C340.274 366.526 340.458 366.585 340.623 366.681C341.993 366.681 342.89 365.557 343.314 363.309C344.032 362.058 345.044 358.496 346.35 352.623L346.696 352.796L347.062 352.623C346.882 352.265 346.703 352.087 346.523 352.087C346.579 351.363 346.702 350.645 346.889 349.943C346.889 349.113 347.779 348.698 349.56 348.697C352.518 349.056 354.363 349.235 355.094 349.234C355.094 348.877 355.337 348.641 355.825 348.526H355.998C356.639 349.599 357.112 350.135 357.42 350.135V351.016L358.32 352.089L357.956 352.625V352.97L359.398 354.042V354.579C359.366 354.835 359.417 355.095 359.545 355.319C359.673 355.544 359.871 355.72 360.108 355.823C360.47 357.108 360.946 358.358 361.531 359.558C361.631 360.272 361.931 360.63 362.431 360.63V361.167C362.905 362.711 363.379 363.483 363.853 363.484C363.853 364.927 364.743 366.236 366.524 367.411C366.524 367.858 367.715 368.387 370.099 369C370.697 368.836 371.212 368.453 371.541 367.927C372.373 367.697 372.789 367.461 372.79 367.219H373.135L373.499 367.411C373.517 367.222 373.576 367.038 373.672 366.874H373.499L373.672 365.974V365.805C373.674 365.598 373.559 365.476 373.329 365.437ZM354.035 344.792C353.667 344.76 353.296 344.819 352.957 344.965L349.748 344.602L348.848 344.793C348.685 344.689 348.501 344.623 348.309 344.602C348.475 342.38 348.835 341.135 349.387 340.867C349.368 340.678 349.309 340.494 349.214 340.33L350.097 336.06H350.27C351.218 336.966 351.994 338.633 352.596 341.06C352.88 342.258 353.367 343.398 354.037 344.431L354.035 344.792Z" fill="white"/>
<path d="M405.461 361.339C405.589 361.339 405.768 360.988 406 360.285C406 359.851 405.705 359.493 405.115 359.212L405.654 357.068C405.064 355.65 404.705 354.941 404.577 354.942C404.897 354.385 405.136 353.785 405.288 353.161V351.917C405.108 351.559 404.929 351.381 404.749 351.381L405.115 347.991C404.999 347.991 404.942 347.812 404.942 347.454V347.11C404.936 346.61 405.055 346.116 405.288 345.673C405.049 344.623 404.933 343.549 404.942 342.473C404.924 342.163 404.983 341.854 405.115 341.573L404.942 340.519V338.375L404.75 336.249H404.942L405.288 336.422L405.827 335.714L405.288 333.397V332.152C405.339 331.126 405.026 330.116 404.404 329.299C404.404 327.001 402.137 324.211 397.604 320.929C396.065 320.572 395.296 320.215 395.298 319.856H394.932L390.647 318.784H389.569C389.085 319.242 388.448 319.502 387.782 319.512C386.834 319.856 386.36 320.15 386.36 320.393H385.821L385.284 320.029H385.111L384.572 320.393H383.861V319.685H383.67L383.324 319.856L383.497 320.22V320.393H382.958L382.248 319.685H382.075V320.029C380.997 320.323 380.461 320.623 380.461 320.929V321.102C380.908 321.588 381.161 322.222 381.171 322.883C380.095 327.506 379.378 331.125 379.019 333.741L379.21 334.641C378.664 338.119 378.305 341.624 378.135 345.141C378.25 346.622 378.308 347.395 378.308 347.458C378.193 347.458 378.135 347.522 378.135 347.65C378.158 347.647 378.182 347.649 378.205 347.656C378.227 347.664 378.248 347.676 378.264 347.693C378.281 347.71 378.294 347.73 378.301 347.753C378.309 347.776 378.311 347.799 378.308 347.823V350.313C378.295 350.967 378.237 351.62 378.135 352.266C378.646 355.471 379.004 357.073 379.21 357.074C379.711 359.023 380.494 360.887 381.536 362.609C383.432 364.856 384.501 365.979 384.745 365.978C387.474 367.445 389.383 368.396 390.473 368.832C390.72 368.834 390.964 368.774 391.183 368.659L391.529 368.832L392.606 368.659L393.317 369.004C393.565 369.009 393.81 368.949 394.028 368.831C394.56 368.934 395.101 368.992 395.643 369.004C395.886 369.004 396.007 368.825 396.007 368.468H396.718C397.101 368.449 397.472 368.33 397.795 368.123C398.043 368.118 398.288 368.177 398.506 368.296L400.12 367.759C401.268 366.79 402.602 366.067 404.041 365.634V365.442L403.868 365.097C404.386 364.688 404.812 364.175 405.12 363.592C405.428 363.008 405.61 362.366 405.655 361.708L405.461 361.339ZM400.638 345.865C400.638 347.64 400.58 349.121 400.465 350.308C399.805 353.146 398.97 355.941 397.965 358.677C398.145 359.15 398.324 359.385 398.504 359.385C397.824 361.044 396.217 361.875 393.681 361.876H392.969C391.67 360.906 390.62 359.641 389.905 358.186C389.19 356.731 388.831 355.127 388.858 353.506L389.203 352.97V352.625C388.858 352.625 388.685 352.504 388.685 352.261V349.773C388.915 342.355 389.21 337.426 389.568 334.987L389.395 333.743C389.418 333.746 389.442 333.744 389.465 333.737C389.487 333.729 389.508 333.716 389.524 333.7C389.541 333.683 389.554 333.662 389.561 333.64C389.569 333.617 389.571 333.593 389.568 333.57H389.39C389.45 331.536 389.688 329.511 390.102 327.519L389.736 326.809L389.928 325.909L388.853 322.883V322.71H389.026C389.907 322.844 390.755 323.143 391.526 323.591C392.142 323.591 393.333 324.427 395.101 326.1C396.291 326.1 397.425 327.402 398.501 330.006C399.368 331.781 399.797 333.739 399.75 335.714C400.15 335.714 400.445 337.967 400.635 342.474C400.636 343.129 400.578 343.783 400.462 344.428C400.58 344.898 400.639 345.38 400.638 345.865Z" fill="white"/>
<path d="M335.51 311.369C335.534 311.829 336.246 312.423 337.644 313.15C337.644 313.98 338.835 314.395 341.218 314.394H342.832L343.198 314.203V314.394C344.821 314.272 346.433 314.029 348.021 313.668C348.235 313.798 348.481 313.865 348.732 313.86C349.679 313.86 350.153 313.56 350.154 312.96C351.282 312.616 352.366 312.141 353.383 311.543H353.556L353.92 311.716C353.916 311.692 353.919 311.668 353.926 311.646C353.934 311.623 353.946 311.603 353.963 311.586C353.98 311.569 354 311.557 354.023 311.549C354.045 311.542 354.069 311.54 354.093 311.543H354.439C354.693 311.54 354.943 311.599 355.169 311.716C356.179 311.716 357.07 311.007 357.84 309.59C357.84 309.233 357.602 308.933 357.128 308.69L357.84 307.808C357.84 307.591 357.54 307.471 356.956 307.445C356.756 307.445 356.629 307.567 356.59 307.808C356.339 307.813 356.093 307.747 355.879 307.617C355.523 307.699 355.164 307.763 354.802 307.808C354.35 307.726 353.923 307.543 353.553 307.273C353.334 307.39 353.089 307.449 352.841 307.444H351.4L349.267 307.617V307.273H349.978V306.905L348.19 306.735C345.448 306.802 344.078 306.916 344.078 307.079C338.478 307.412 335.678 307.827 335.678 308.324C335.485 309.282 335.248 309.761 334.967 309.76C334.985 309.949 335.044 310.132 335.139 310.297C335.12 310.486 335.062 310.669 334.967 310.833C335.239 311.19 335.42 311.369 335.51 311.369Z" fill="white"/>
<defs>
<linearGradient id="paint0_linear_35_1181" x1="275.505" y1="458.939" x2="275.505" y2="59.002" gradientUnits="userSpaceOnUse">
<stop stop-color="#FFBA00"/>
<stop offset="1" stop-color="#FFE400"/>
</linearGradient>
</defs>
</svg>
