<svg width="231" height="110" fill="none" xmlns="http://www.w3.org/2000/svg"><path d="m183.582 54.27 8.287-38.5c.617-2.99 1.213-5.294 1.585-7.456.706-3.99 1.5-6.193-2.031-6.193h-17.071c.371 2.01.505 4.058.4 6.1a47.778 47.778 0 0 1-1.056 7.548l-7.77 37.634a55.612 55.612 0 0 1-2.037 7.546 36.21 36.21 0 0 1-2.942 6.1h38.142l8.912-18.543c-10.657 5.371-14.672 5.149-24.42 5.762m-85.289-.01c-3.278-5.644-11.351-21.824-11.351-21.824s21.3-23.882 23.631-25.937c1.78-1.63 3.7-3.1 5.738-4.393l-20.179.006a7.865 7.865 0 0 1-1.1 1.942 28.172 28.172 0 0 1-2.21 2.535L73.54 28.667c.592-2.872 3.441-16.8 4.057-19.751.741-3.5 1.245-6.808-2.021-6.808h-16.69a26.59 26.59 0 0 1 .4 6.092 48.359 48.359 0 0 1-1.046 7.554l-7.761 37.639a55.786 55.786 0 0 1-2.047 7.544 36.06 36.06 0 0 1-2.94 6.095h17.111c3.9 0 4.1-2.065 4.839-7.106.242-1.656 3.876-20.215 3.876-20.215s5.756 12.75 9.637 19.7c5.627 10.061 15.9 10.818 19.687 10.818 5.866 0 9.319-.886 9.621-1.515-2.387-1.794-6.891-5.683-11.97-14.461M32.187 25.902c-5.144-3.775-7.693-6.248-7.543-10.033.185-5.059 5.467-7.046 9.412-7.046 7.663 0 14.127 9.228 14.127 9.228 1.845-7.554 2.539-10.4 3.565-14.939A54.942 54.942 0 0 0 34.162 0c-18.359 0-27.2 11.86-27.2 21.159-.006 11.095 6.889 14.656 13.414 19.652 3.833 2.929 7.826 5.322 7.817 10.637 0 4.826-3.76 7.139-8.4 6.966C10.146 58.037 4.6 46.497 4.6 46.497 2.539 54.511 1.39 58.831 0 64.642a47.884 47.884 0 0 0 20.45 4.34c13.986 0 26.347-7.355 26.349-22.45 0-8.894-4.423-13.156-14.613-20.629M165.68 27.88C165.68 9.807 153.323.038 138.3.036c-16.877 0-37.336 15.511-37.34 38.376a30.226 30.226 0 0 0 4.969 16.021 34.37 34.37 0 0 1-.486-5.809c.01-21.582 14.147-34.459 27.6-34.459 7.78 0 13.728 5.148 13.728 13.975 0 8.9-6.586 16-12.731 19.336l2.639-11.5-27.48 23.079c8.391 9.409 18.267 15.486 37.306 16.951a48.133 48.133 0 0 1-9.317-9.79c21.7-8.085 28.481-26.46 28.491-38.33" fill="#CE0037"/><path d="m109.201 59.049 27.48-23.079-2.639 11.5c6.145-3.338 12.727-10.434 12.73-19.336 0-8.826-5.948-13.974-13.728-13.974-13.453 0-27.59 12.877-27.6 34.458-.003 1.947.159 3.89.486 5.809a30.217 30.217 0 0 1-4.969-16.021c0-22.865 20.462-38.38 37.339-38.376 15.023 0 27.38 9.771 27.38 27.844-.01 11.87-6.79 30.245-28.491 38.33a48.132 48.132 0 0 0 9.318 9.79c-19.04-1.46-28.916-7.536-37.306-16.945Zm-8.559 11.187c-3.785 0-14.06-.757-19.687-10.817-3.882-6.954-9.637-19.7-9.637-19.7s-3.634 18.559-3.876 20.215c-.743 5.04-.943 7.105-4.839 7.105H45.492a36.06 36.06 0 0 0 2.94-6.095 55.66 55.66 0 0 0 2.047-7.544l7.764-37.638a48.359 48.359 0 0 0 1.046-7.554 26.587 26.587 0 0 0-.4-6.093h16.69c3.266 0 2.762 3.31 2.021 6.808-.616 2.951-3.465 16.879-4.057 19.751l19.282-22.08c.787-.8 1.525-1.647 2.21-2.536a7.859 7.859 0 0 0 1.1-1.941l20.179-.006a41.104 41.104 0 0 0-5.738 4.393c-2.335 2.056-23.632 25.937-23.632 25.937s8.073 16.18 11.352 21.824c5.079 8.778 9.582 12.667 11.97 14.461-.3.628-3.747 1.514-9.6 1.514l-.024-.004ZM.001 64.641c1.391-5.811 2.539-10.13 4.6-18.145 0 0 5.546 11.539 15.193 11.917 4.641.174 8.4-2.14 8.4-6.966.01-5.315-3.983-7.707-7.817-10.636-6.525-5-13.42-8.557-13.414-19.652 0-9.3 8.837-21.155 27.2-21.159a54.947 54.947 0 0 1 17.586 3.112c-1.026 4.534-1.721 7.385-3.566 14.939 0 0-6.463-9.229-14.126-9.229-3.946 0-9.227 1.987-9.412 7.046-.149 3.785 2.4 6.259 7.544 10.033 10.19 7.474 14.617 11.736 14.613 20.63 0 15.094-12.363 22.451-26.349 22.45h-.037a47.885 47.885 0 0 1-20.415-4.34Zm160.945 2.41a36.046 36.046 0 0 0 2.942-6.1 55.772 55.772 0 0 0 2.038-7.547l7.771-37.636a47.78 47.78 0 0 0 1.057-7.548 26.203 26.203 0 0 0-.4-6.1h17.071c3.532 0 2.738 2.2 2.031 6.193-.371 2.162-.968 4.465-1.585 7.455l-8.286 38.5c9.748-.614 13.763-.392 24.42-5.763l-8.912 18.544-38.147.002Z" fill="#fff"/><path d="M26.278 104h-2.333l-1.906-5.041h-7.625L12.621 104h-2.345l6.897-17.983h2.182L26.278 104Zm-4.929-6.935-2.821-7.662c-.092-.251-.184-.652-.276-1.204h-.05c-.084.51-.18.911-.289 1.204l-2.796 7.662h6.232Zm16.885.138V104h-2.107V86.017h4.941c1.923 0 3.411.468 4.465 1.404 1.062.937 1.593 2.258 1.593 3.963 0 1.706-.59 3.102-1.769 4.189-1.17 1.087-2.755 1.63-4.753 1.63h-2.37Zm0-9.28v7.374h2.207c1.455 0 2.563-.33 3.324-.99.769-.67 1.153-1.61 1.153-2.822 0-2.375-1.404-3.562-4.213-3.562h-2.47ZM70.607 104h-2.508l-3.01-5.041a10.45 10.45 0 0 0-.803-1.192 4.37 4.37 0 0 0-.802-.815 2.579 2.579 0 0 0-.878-.451c-.31-.1-.66-.15-1.053-.15h-1.731V104h-2.107V86.017h5.367c.786 0 1.51.1 2.17.3a4.722 4.722 0 0 1 1.73.891c.494.401.879.903 1.154 1.505.276.594.414 1.292.414 2.094 0 .627-.096 1.204-.288 1.731a4.36 4.36 0 0 1-.803 1.392c-.343.41-.76.76-1.254 1.053a6.437 6.437 0 0 1-1.643.665v.05c.301.134.56.289.778.464.226.167.439.368.64.602.2.234.396.502.589.803.2.292.422.635.665 1.028L70.607 104ZM59.822 87.923v6.521h2.86c.526 0 1.01-.08 1.454-.238.451-.159.84-.385 1.166-.677.326-.301.581-.665.765-1.091.184-.435.276-.92.276-1.455 0-.962-.313-1.71-.94-2.245-.62-.543-1.518-.815-2.697-.815h-2.884ZM89.812 104h-9.53V86.017h9.129v1.906h-7.023v5.982h6.496v1.894h-6.496v6.295h7.424V104Zm9.812-.727v-2.483c.284.25.623.476 1.016.677.401.2.819.372 1.254.514.443.134.886.238 1.329.313a7.3 7.3 0 0 0 1.229.113c1.296 0 2.262-.238 2.897-.714.644-.485.966-1.179.966-2.082 0-.485-.109-.907-.326-1.267a3.436 3.436 0 0 0-.878-.978 8.07 8.07 0 0 0-1.342-.853 71.625 71.625 0 0 0-1.655-.865 28.026 28.026 0 0 1-1.756-.966 7.615 7.615 0 0 1-1.417-1.078 4.632 4.632 0 0 1-.953-1.33c-.226-.501-.339-1.086-.339-1.755 0-.82.18-1.53.539-2.132.36-.61.832-1.112 1.418-1.505a6.424 6.424 0 0 1 1.993-.878 9.244 9.244 0 0 1 2.295-.288c1.773 0 3.064.213 3.875.64v2.37c-1.061-.736-2.424-1.104-4.088-1.104-.46 0-.919.05-1.379.15-.46.093-.87.247-1.229.465a2.72 2.72 0 0 0-.878.84c-.226.343-.339.76-.339 1.254 0 .46.084.857.251 1.191.176.335.431.64.765.916.335.275.74.543 1.217.802.484.26 1.04.544 1.667.853.644.318 1.255.652 1.831 1.003a8.38 8.38 0 0 1 1.518 1.166 5.07 5.07 0 0 1 1.028 1.418c.259.518.389 1.111.389 1.78 0 .887-.176 1.639-.527 2.258a4.224 4.224 0 0 1-1.404 1.492c-.586.385-1.263.66-2.032.828-.769.175-1.58.263-2.433.263-.284 0-.635-.025-1.053-.075a11.918 11.918 0 0 1-1.279-.201 10.938 10.938 0 0 1-1.242-.313 4.076 4.076 0 0 1-.928-.439Zm31.206.727h-9.53V86.017h9.129v1.906h-7.023v5.982h6.496v1.894h-6.496v6.295h7.424V104Zm25.15 0h-2.584l-9.254-14.334a5.907 5.907 0 0 1-.577-1.129h-.076c.067.385.101 1.209.101 2.471V104h-2.107V86.017h2.734l9.004 14.108c.376.585.619.986.727 1.204h.05c-.083-.518-.125-1.4-.125-2.646V86.017h2.107V104Zm22.541-16.077h-5.192V104h-2.107V87.923h-5.179v-1.906h12.478v1.906ZM200.71 104h-2.332l-1.906-5.041h-7.625L187.054 104h-2.345l6.897-17.983h2.182L200.71 104Zm-4.928-6.935-2.822-7.662c-.092-.251-.184-.652-.276-1.204h-.05c-.083.51-.18.911-.288 1.204l-2.797 7.662h6.233Z" fill="#B00039"/><path d="M21 102.302h-2.333l-1.906-5.041H9.136l-1.793 5.041H5l6.9-17.983h2.182L21 102.302Zm-4.928-6.935-2.822-7.662a7.329 7.329 0 0 1-.276-1.2h-.05a6.72 6.72 0 0 1-.288 1.2l-2.8 7.662h6.236Zm16.872.138v6.8h-2.107V84.319h4.941a6.522 6.522 0 0 1 4.471 1.4 5.016 5.016 0 0 1 1.586 3.963 5.45 5.45 0 0 1-1.762 4.189 6.731 6.731 0 0 1-4.759 1.63l-2.37.004Zm0-9.28v7.374h2.207a4.935 4.935 0 0 0 3.33-1 3.529 3.529 0 0 0 1.147-2.815c0-2.374-1.405-3.561-4.214-3.561l-2.47.002Zm32.36 16.077H62.8l-3.01-5.041c-.24-.417-.507-.818-.8-1.2a4.578 4.578 0 0 0-.8-.81 2.76 2.76 0 0 0-.878-.457 3.606 3.606 0 0 0-1.06-.144h-1.731v7.65h-2.107V84.319h5.367a7.653 7.653 0 0 1 2.176.295 4.87 4.87 0 0 1 1.731.9c.492.406.884.919 1.147 1.5a4.97 4.97 0 0 1 .414 2.1 5.057 5.057 0 0 1-.282 1.724c-.18.511-.451.985-.8 1.4-.356.417-.78.771-1.254 1.047a6.4 6.4 0 0 1-1.649.671v.05c.279.12.542.274.784.458.231.18.443.384.633.608.216.254.417.521.6.8.197.297.416.642.658 1.035l3.365 5.395ZM54.519 86.225v6.52h2.859c.497.006.991-.075 1.461-.237.428-.148.823-.38 1.16-.683.331-.304.592-.676.765-1.091a3.65 3.65 0 0 0 .276-1.448 2.818 2.818 0 0 0-.93-2.25 4.013 4.013 0 0 0-2.7-.809l-2.891-.002ZM84.5 102.302h-9.53V84.319h9.13v1.906h-7.023v5.982h6.5V94.1h-6.5v6.3H84.5v1.901Zm9.812-.727v-2.483c.31.268.654.496 1.022.677.403.203.823.373 1.254.508.433.137.875.244 1.323.32.406.072.817.11 1.229.113a4.815 4.815 0 0 0 2.9-.721 2.702 2.702 0 0 0 .64-3.342 3.592 3.592 0 0 0-.884-.984 8.8 8.8 0 0 0-1.336-.853 102.94 102.94 0 0 0-1.662-.859 28.178 28.178 0 0 1-1.756-.966 7.604 7.604 0 0 1-1.417-1.078 4.498 4.498 0 0 1-.947-1.336 4.553 4.553 0 0 1 .194-3.888c.353-.6.838-1.113 1.417-1.5a6.425 6.425 0 0 1 2-.878 9.157 9.157 0 0 1 2.289-.288 8.773 8.773 0 0 1 3.875.64v2.37a7.025 7.025 0 0 0-4.088-1.1c-.463 0-.925.048-1.379.144a3.903 3.903 0 0 0-1.229.47c-.352.21-.652.497-.878.84a2.23 2.23 0 0 0-.339 1.254c-.01.412.078.82.257 1.191.188.354.446.665.759.915.38.305.79.573 1.223.8.48.26 1.035.544 1.662.853.644.318 1.254.651 1.831 1 .549.33 1.058.72 1.517 1.166.423.41.773.89 1.035 1.417.263.556.394 1.166.382 1.78a4.51 4.51 0 0 1-.52 2.252 4.273 4.273 0 0 1-1.4 1.5 6.128 6.128 0 0 1-2.038.834c-.799.175-1.615.261-2.433.257a9.754 9.754 0 0 1-1.053-.069 14.733 14.733 0 0 1-1.279-.2c-.418-.083-.83-.192-1.235-.326a3.843 3.843 0 0 1-.936-.43Zm31.206.727h-9.531V84.319h9.129v1.906h-7.023v5.982h6.5V94.1h-6.5v6.3h7.424l.001 1.901Zm25.149 0h-2.583l-9.255-14.334a5.987 5.987 0 0 1-.577-1.129h-.075c.088.82.122 1.645.1 2.47v12.992h-2.107V84.319h2.73l9 14.108c.376.585.618.985.727 1.2h.05a19.017 19.017 0 0 1-.125-2.646V84.319h2.107l.008 17.983Zm22.541-16.077h-5.192v16.077h-2.107V86.225h-5.179v-1.906h12.478v1.906Zm22.177 16.077h-2.333l-1.906-5.041h-7.625l-1.793 5.041h-2.345l6.9-17.983h2.182l6.92 17.983Zm-4.928-6.935-2.822-7.662a7.36 7.36 0 0 1-.276-1.2h-.05c-.059.408-.155.81-.288 1.2l-2.8 7.662h6.236Z" fill="#fff"/></svg>