<svg width="21" height="18" fill="none" xmlns="http://www.w3.org/2000/svg"><path d="M20.266 2.824a7.766 7.766 0 0 1-2.289.648 4.105 4.105 0 0 0 1.753-2.275 7.806 7.806 0 0 1-2.53 1 3.925 3.925 0 0 0-2.91-1.3 4.049 4.049 0 0 0-3.984 4.112c-.001.315.032.63.1.937a11.205 11.205 0 0 1-8.215-4.3 4.189 4.189 0 0 0-.54 2.067 4.144 4.144 0 0 0 1.773 3.422 3.865 3.865 0 0 1-1.805-.514v.052a4.083 4.083 0 0 0 3.2 4.031 3.925 3.925 0 0 1-1.801.072 4.01 4.01 0 0 0 3.723 2.855 7.822 7.822 0 0 1-5.9 1.7 11.031 11.031 0 0 0 6.11 1.848c7.331 0 11.34-6.266 11.34-11.7 0-.178 0-.355-.012-.532a8.258 8.258 0 0 0 1.991-2.131l-.004.008Z" fill="#F7E135"/></svg>