<svg width="21" height="16" viewBox="0 0 21 16" fill="F7E135" xmlns="http://www.w3.org/2000/svg">
<path d="M14.355 8.031L7.98197 11.922V4.139L14.355 8.031ZM20.311 11.631V4.402C20.311 4.402 20.311 0.916 16.955 0.916H4.19697C3.74405 0.911662 3.29501 0.999882 2.87739 1.17525C2.45977 1.35061 2.08237 1.60943 1.76833 1.93583C1.45429 2.26223 1.21023 2.64933 1.05111 3.0734C0.891987 3.49748 0.82116 3.94958 0.84297 4.402V11.631C0.84297 11.631 0.842969 15.115 4.19497 15.115H16.954C17.4069 15.1194 17.8559 15.0314 18.2736 14.8562C18.6913 14.6811 19.0689 14.4225 19.3832 14.0963C19.6974 13.7702 19.9418 13.3833 20.1014 12.9594C20.2609 12.5355 20.3322 12.0834 20.311 11.631Z" fill="#F7E135"/>
<defs>
<linearGradient id="paint0_linear_35_29" x1="0.839111" y1="8.0155" x2="20.3146" y2="8.0155" gradientUnits="userSpaceOnUse">
<stop offset="0.121" stop-color="#C2C2C2"/>
<stop offset="0.223" stop-color="#D2D2D2"/>
<stop offset="0.379" stop-color="#E5E5E5"/>
<stop offset="0.539" stop-color="#F1F1F1"/>
<stop offset="0.709" stop-color="#F5F5F5"/>
</linearGradient>
</defs>
</svg>
